{
.appVersion = "3148";
.formatVersion = 3;
customParameters = (
{
name = vendorID;
value = NEAT;
},
{
name = panose;
value = (
2,
0,
9,
3,
0,
0,
0,
0,
0,
0
);
},
{
name = unicodeRanges;
value = (
0,
60
);
},
{
name = fsType;
value = (
);
},
{
name = glyphOrder;
value = (
.notdef,
exclamation,
hashtag,
"dollar-sign",
percent,
asterisk,
plus,
"0",
"1",
"2",
"3",
"4",
"5",
"6",
"7",
"8",
"9",
"less-than",
equals,
"greater-than",
question,
at,
a,
b,
c,
d,
e,
f,
g,
h,
i,
j,
k,
l,
m,
n,
o,
p,
q,
r,
s,
t,
u,
v,
w,
x,
y,
z,
faucet,
trailer,
bacteria,
bacterium,
"box-tissue",
"hand-holding-medical",
"hand-sparkles",
"hands-bubbles",
"handshake-simple-slash",
"handshake-slash",
"head-side-cough",
"head-side-cough-slash",
"head-side-mask",
"head-side-virus",
"house-chimney-user",
"house-laptop",
"lungs-virus",
"people-arrows-left-right",
"plane-slash",
"pump-medical",
"pump-soap",
"shield-virus",
sink,
soap,
"stopwatch-20",
"shop-slash",
"store-slash",
"toilet-paper-slash",
"users-slash",
virus,
"virus-slash",
viruses,
vest,
"vest-patches",
"arrow-trend-down",
"arrow-trend-up",
"arrow-up-from-bracket",
"austral-sign",
"baht-sign",
"bitcoin-sign",
"camera-rotate",
"cedi-sign",
"chart-column",
"chart-gantt",
clapperboard,
clover,
"code-compare",
"code-fork",
"code-pull-request",
"colon-sign",
"cruzeiro-sign",
"dong-sign",
elevator,
"filter-circle-xmark",
"florin-sign",
"franc-sign",
"guarani-sign",
gun,
"hands-clapping",
"house-user",
"indian-rupee-sign",
"kip-sign",
"lari-sign",
"litecoin-sign",
"manat-sign",
"mask-face",
"mill-sign",
"naira-sign",
panorama,
"peseta-sign",
"peso-sign",
"rupiah-sign",
stairs,
timeline,
"turkish-lira-sign",
vault,
"wand-magic-sparkles",
"house-chimney",
"house-crack",
"house-medical",
"cent-sign",
"plus-minus",
sailboat,
section,
shrimp,
"brazilian-real-sign",
"earth-oceania",
"martini-glass-empty",
music,
"magnifying-glass",
heart,
star,
user,
film,
"table-cells-large",
"table-cells",
"table-list",
check,
xmark,
"magnifying-glass-plus",

glyphs = (
{
glyphname = .notdef;
layers = (
{
layerId = m01;
shapes = (
{
closed = 1;
nodes = (
(356,447,o),
(370,434,qs),
(383,420,o),
(384,400,qs),
(384,-16,ls),
(383,-36,o),
(370,-50,qs),
(356,-63,o),
(336,-64,qs),
(48,-64,ls),
(28,-63,o),
(14,-50,qs),
(1,-36,o),
(0,-16,qs),
(0,400,ls),
(1,420,o),
(14,434,qs),
(28,447,o),
(48,448,qs),
(336,448,l),
(336,448,l)
);
},
{
closed = 1;
nodes = (
(103,384,l),
(192,250,l),
(282,384,l),
(282,384,l)
);
},
{
closed = 1;
nodes = (
(64,58,l),
(154,192,l),
(64,326,l),
(64,326,l)
);
},
{
closed = 1;
nodes = (
(282,0,l),
(192,134,l),
(103,0,l),
(103,0,l)
);
},
{
closed = 1;
nodes = (
(320,326,l),
(231,192,l),
(320,58,l),
(320,58,l)
);
}
);
width = 384;
}
);
note = ".notdef";
},
{
glyphname = fastmail;
lastChange = "2022-07-07 15:48:21 +0000";
layers = (
{
layerId = m01;
shapes = (
{
attr = {
fillColor = (0,255);
};
closed = 1;
nodes = (
(375,274,l),
(375,125,l),
(375,117,o),
(368,110,o),
(360,110,c),
(136,110,l),
(136,274,l),
(256,192,l),
(256,192,l)
);
},
{
attr = {
fillColor = (0,255);
};
closed = 1;
nodes = (
(512,51,o),
(397,-64,o),
(256,-64,c),
(168,-64,o),
(91,-20,o),
(45,47,c),
(91,79,l),
(127,27,o),
(187,-8,o),
(256,-8,c),
(366,-8,o),
(456,82,o),
(456,192,c),
(456,233,o),
(443,272,o),
(420,305,c),
(420,305,l),
(384,358,o),
(324,392,o),
(256,392,c),
(145,392,o),
(56,303,o),
(56,192,c),
(56,152,o),
(68,112,o),
(91,79,c),
(45,47,l),
(16,90,o),
(0,140,o),
(0,192,c),
(0,333,o),
(115,448,o),
(256,448,c),
(343,448,o),
(420,404,o),
(466,337,c),
(496,294,o),
(512,244,o),
(512,192,c)
);
}
);
width = 512;
}
);
note = faucet;
unicode = 57345;
},
{
glyphname = giphy;
lastChange = "2023-04-30 14:34:45 +0000";
layers = (
{
layerId = m01;
shapes = (
{
attr = {
fillColor = (0,255);
};
closed = 1;
nodes = (
(109,-6,l),
(403,-6,l),
(403,273,l),
(285,273,l),
(285,389,l),
(109,389,l)
);
},
{
attr = {
fillColor = (0,255);
};
closed = 1;
nodes = (
(461,-64,l),
(51,-64,l),
(51,448,l),
(343,448,l),
(343,389,l),
(403,389,l),
(403,331,l),
(461,331,l)
);
}
);
width = 512;
}
);
note = faucet;
unicode = 57346;
},
{
glyphname = gumroad;
lastChange = "2022-07-07 15:54:32 +0000";
layers = (
{
layerId = m01;
shapes = (
{
attr = {
fillColor = (0,255);
};
closed = 1;
nodes = (
(28,-64,o),
(0,-36,o),
(0,-5,cs),
(0,363,ls),
(0,393,o),
(27,420,o),
(58,420,cs),
(401,420,l),
(407,436,o),
(425,448,o),
(443,448,cs),
(469,448,o),
(488,427,o),
(488,403,cs),
(488,377,o),
(469,358,o),
(443,358,cs),
(427,358,o),
(410,366,o),
(403,381,c),
(58,381,ls),
(47,381,o),
(38,373,o),
(38,363,cs),
(38,-5,ls),
(38,-16,o),
(47,-26,o),
(58,-26,cs),
(425,-26,ls),
(437,-26,o),
(445,-16,o),
(445,-5,cs),
(445,213,ls),
(445,225,o),
(437,234,o),
(425,234,cs),
(208,234,ls),
(195,234,o),
(185,224,o),
(185,213,cs),
(185,145,ls),
(185,134,o),
(196,125,o),
(208,125,cs),
(286,125,l),
(293,141,o),
(309,150,o),
(325,150,cs),
(351,150,o),
(370,129,o),
(370,105,cs),
(370,80,o),
(351,59,o),
(325,59,cs),
(307,59,o),
(291,70,o),
(283,87,c),
(208,87,ls),
(174,87,o),
(147,113,o),
(147,145,cs),
(147,213,ls),
(147,246,o),
(174,272,o),
(208,272,cs),
(425,272,ls),
(456,272,o),
(483,247,o),
(483,213,cs),
(483,-5,ls),
(483,-36,o),
(456,-64,o),
(425,-64,cs),
(58,-64,ls)
);
},
{
attr = {
fillColor = (0,255);
};
closed = 1;
nodes = (
(337,83,o),
(348,93,o),
(348,105,cs),
(348,117,o),
(337,126,o),
(325,126,cs),
(314,126,o),
(304,117,o),
(304,105,cs),
(304,93,o),
(314,83,o),
(325,83,cs)
);
},
{
attr = {
fillColor = (0,255);
};
closed = 1;
nodes = (
(454,381,o),
(465,389,o),
(465,403,cs),
(465,414,o),
(454,424,o),
(443,424,cs),
(431,424,o),
(422,414,o),
(422,403,cs),
(422,389,o),
(431,381,o),
(443,381,cs)
);
}
);
width = 488;
}
);
note = faucet;
unicode = 57347;
},
{
glyphname = hackerone;
lastChange = "2023-04-30 14:34:59 +0000";
layers = (
{
layerId = m01;
shapes = (
{
closed = 1;
nodes = (
(171,446,o),
(164,448,o),
(154,448,cs),
(143,448,o),
(135,446,o),
(129,442,cs),
(122,437,o),
(119,431,o),
(119,425,cs),
(119,-40,ls),
(119,-46,o),
(122,-51,o),
(129,-56,cs),
(136,-61,o),
(144,-64,o),
(154,-64,cs),
(162,-64,o),
(171,-61,o),
(178,-56,cs),
(185,-51,o),
(188,-46,o),
(188,-40,cs),
(188,425,l),
(189,431,o),
(186,437,o),
(179,442,cs)
);
},
{
attr = {
fillColor = (0,255);
};
closed = 1;
nodes = (
(233,194,o),
(231,188,o),
(232,179,cs),
(233,171,o),
(237,163,o),
(243,156,cs),
(250,149,o),
(258,145,o),
(266,142,cs),
(275,140,o),
(281,141,o),
(285,145,c),
(323,168,l),
(323,-40,ls),
(323,-46,o),
(326,-51,o),
(332,-56,cs),
(339,-61,o),
(347,-64,o),
(357,-64,cs),
(367,-64,o),
(375,-61,o),
(382,-56,cs),
(390,-51,o),
(393,-46,o),
(393,-40,cs),
(393,240,ls),
(393,248,o),
(390,253,o),
(382,257,cs),
(375,261,o),
(367,263,o),
(357,263,cs),
(346,263,o),
(338,261,o),
(331,257,cs),
(237,198,l)
);
}
);
width = 512;
}
);
note = faucet;
unicode = 57348;
},
{
glyphname = honk;
lastChange = "2022-07-07 16:02:48 +0000";
layers = (
{
layerId = m01;
shapes = (
{
attr = {
fillColor = (0,255);
};
closed = 1;
nodes = (
(443,138,o),
(405,60,o),
(335,1,c),
(283,-43,o),
(232,-61,o),
(230,-62,c),
(226,-63,o),
(222,-64,o),
(218,-63,c),
(214,-63,o),
(210,-61,o),
(207,-59,c),
(204,-57,o),
(201,-54,o),
(199,-50,c),
(198,-47,o),
(197,-43,o),
(197,-39,c),
(197,6,l),
(86,18,o),
(0,113,o),
(0,227,c),
(0,349,o),
(99,448,o),
(221,448,c),
(343,448,o),
(443,349,o),
(443,227,c)
);
},
{
attr = {
fillColor = (0,255);
};
closed = 1;
nodes = (
(94,221,l),
(94,151,o),
(152,95,o),
(222,95,c),
(293,95,o),
(350,151,o),
(350,221,c),
(304,221,l),
(304,177,o),
(267,140,o),
(222,140,c),
(176,140,o),
(140,177,o),
(140,221,c)
);
},
{
attr = {
fillColor = (0,255);
};
closed = 1;
nodes = (
(308,265,o),
(314,263,o),
(320,263,c),
(328,263,o),
(335,266,o),
(341,272,c),
(347,277,o),
(350,285,o),
(350,293,c),
(350,299,o),
(349,305,o),
(345,310,c),
(342,315,o),
(337,319,o),
(332,321,c),
(326,324,o),
(320,324,o),
(314,323,c),
(308,322,o),
(304,319,o),
(300,315,c),
(295,311,o),
(292,305,o),
(291,300,c),
(290,294,o),
(290,288,o),
(293,282,c),
(295,276,o),
(299,272,o),
(304,268,c)
);
},
{
attr = {
fillColor = (0,255);
};
closed = 1;
nodes = (
(234,322,o),
(228,324,o),
(222,324,c),
(214,324,o),
(206,321,o),
(200,315,c),
(195,309,o),
(191,301,o),
(191,293,c),
(191,287,o),
(193,281,o),
(196,276,c),
(200,271,o),
(205,268,o),
(210,265,c),
(216,263,o),
(222,262,o),
(228,263,c),
(233,265,o),
(239,267,o),
(242,272,c),
(246,276,o),
(249,281,o),
(251,287,c),
(252,293,o),
(251,299,o),
(249,305,c),
(247,310,o),
(243,315,o),
(239,318,c)
);
},
{
attr = {
fillColor = (0,255);
};
closed = 1;
nodes = (
(136,322,o),
(130,324,o),
(124,324,c),
(116,324,o),
(108,321,o),
(103,315,c),
(97,309,o),
(94,301,o),
(94,293,c),
(94,287,o),
(96,281,o),
(99,276,c),
(102,271,o),
(106,268,o),
(112,265,c),
(117,263,o),
(123,262,o),
(129,263,c),
(135,265,o),
(140,267,o),
(145,272,c),
(149,276,o),
(152,281,o),
(153,287,c),
(154,293,o),
(154,299,o),
(152,305,c),
(149,310,o),
(146,315,o),
(141,318,c)
);
}
);
width = 443;
}
);
note = faucet;
unicode = 57349;
},
{
glyphname = keyoxide;
lastChange = "2023-04-30 14:35:14 +0000";
layers = (
{
layerId = m01;
shapes = (
{
attr = {
fillColor = (0,255);
};
closed = 1;
nodes = (
(270,370,o),
(260,360,o),
(248,360,c),
(235,360,o),
(224,370,o),
(224,383,c),
(224,395,o),
(235,405,o),
(248,405,c),
(260,405,o),
(270,395,o),
(270,383,c)
);
},
{
attr = {
fillColor = (0,255);
};
closed = 1;
nodes = (
(284,419,o),
(278,412,o),
(269,412,c),
(261,412,o),
(255,419,o),
(255,427,c),
(255,435,o),
(261,442,o),
(269,442,c),
(278,442,o),
(284,435,o),
(284,427,c)
);
},
{
attr = {
fillColor = (0,255);
};
closed = 1;
nodes = (
(239,432,o),
(234,427,o),
(229,427,c),
(223,427,o),
(218,432,o),
(218,438,c),
(218,443,o),
(223,448,o),
(229,448,c),
(234,448,o),
(239,443,o),
(239,438,c)
);
},
{
attr = {
fillColor = (0,255);
};
closed = 1;
nodes = (
(407,329,o),
(399,321,o),
(389,321,c),
(379,321,o),
(370,329,o),
(370,339,c),
(370,349,o),
(379,357,o),
(389,357,c),
(399,357,o),
(407,349,o),
(407,339,c)
);
},
{
attr = {
fillColor = (0,255);
};
closed = 1;
nodes = (
(416,-35,o),
(386,-64,o),
(351,-64,c),
(338,-64,o),
(324,-59,o),
(314,-52,c),
(314,-52,l),
(221,10,l),
(221,1,l),
(221,-35,o),
(192,-63,o),
(156,-63,c),
(120,-63,o),
(92,-35,o),
(92,1,c),
(92,131,l),
(92,131,o),
(92,131,o),
(92,132,c),
(92,281,l),
(92,282,o),
(92,283,o),
(92,284,c),
(92,320,o),
(120,349,o),
(156,349,c),
(192,349,o),
(221,320,o),
(221,284,c),
(221,283,o),
(221,281,o),
(221,280,c),
(221,263,l),
(292,318,l),
(292,318,o),
(296,321,o),
(295,323,c),
(295,326,o),
(293,326,o),
(291,328,c),
(282,334,o),
(276,344,o),
(276,356,c),
(276,374,o),
(292,389,o),
(310,389,c),
(328,389,o),
(344,374,o),
(344,356,c),
(344,352,o),
(343,350,o),
(344,348,c),
(345,346,o),
(347,346,o),
(350,346,c),
(352,346,o),
(355,346,o),
(358,346,c),
(359,346,o),
(361,345,o),
(361,343,c),
(362,342,o),
(362,341,o),
(362,339,c),
(362,324,o),
(373,312,o),
(389,312,c),
(392,312,o),
(395,312,o),
(398,314,c),
(400,315,o),
(402,315,o),
(404,315,c),
(407,314,o),
(407,313,o),
(407,311,c),
(421,284,o),
(414,249,o),
(390,230,c),
(267,135,l),
(382,58,l),
(402,47,o),
(416,25,o),
(416,1,c)
);
}
);
width = 512;
}
);
note = faucet;
unicode = 57350;
},
{
glyphname = letterboxd;
lastChange = "2022-07-07 16:03:17 +0000";
layers = (
{
layerId = m01;
shapes = (
{
attr = {
fillColor = (0,255);
};
closed = 1;
nodes = (
(512,51,o),
(397,-64,o),
(256,-64,c),
(115,-64,o),
(0,51,o),
(0,192,c),
(0,333,o),
(115,448,o),
(256,448,c),
(397,448,o),
(512,333,o),
(512,192,c)
);
},
{
attr = {
fillColor = (0,255);
};
closed = 1;
nodes = (
(352,264,o),
(329,250,o),
(317,229,c),
(324,218,o),
(328,206,o),
(328,192,c),
(328,178,o),
(324,165,o),
(317,154,c),
(329,133,o),
(352,119,o),
(377,119,c),
(417,119,o),
(449,152,o),
(449,192,c),
(449,231,o),
(417,264,o),
(377,264,c)
);
},
{
attr = {
fillColor = (0,255);
};
closed = 1;
nodes = (
(305,206,o),
(310,218,o),
(317,229,c),
(303,250,o),
(281,264,o),
(256,264,c),
(230,264,o),
(208,250,o),
(194,229,c),
(182,250,o),
(160,264,o),
(134,264,c),
(94,264,o),
(62,231,o),
(62,192,c),
(62,152,o),
(94,119,o),
(134,119,c),
(160,119,o),
(182,133,o),
(194,154,c),
(208,133,o),
(230,119,o),
(256,119,c),
(281,119,o),
(303,133,o),
(317,154,c),
(310,165,o),
(305,178,o),
(305,192,c)
);
},
{
attr = {
fillColor = (0,255);
};
closed = 1;
nodes = (
(194,229,o),
(194,229,o),
(194,229,c),
(194,229,o),
(194,229,o),
(194,229,c),
(194,229,o),
(194,229,o),
(194,229,c),
(194,229,o),
(194,229,o),
(194,229,c)
);
},
{
attr = {
fillColor = (0,255);
};
closed = 1;
nodes = (
(206,178,o),
(201,165,o),
(194,154,c),
(187,165,o),
(183,178,o),
(183,192,c),
(183,206,o),
(187,218,o),
(194,229,c),
(201,218,o),
(206,206,o),
(206,192,c)
);
},
{
attr = {
fillColor = (0,255);
};
closed = 1;
nodes = (
(194,154,o),
(194,154,o),
(194,154,c),
(194,154,o),
(194,154,o),
(194,154,c),
(194,154,o),
(194,154,o),
(194,154,c),
(194,154,o),
(194,154,o),
(194,154,c)
);
}
);
width = 512;
}
);
note = faucet;
unicode = 57351;
},
{
glyphname = liberapay;
lastChange = "2022-07-07 16:03:25 +0000";
layers = (
{
layerId = m01;
shapes = (
{
attr = {
fillColor = (0,255);
};
closed = 1;
nodes = (
(512,-15,l),
(512,-42,o),
(489,-64,o),
(462,-64,c),
(49,-64,l),
(22,-64,o),
(0,-42,o),
(0,-15,c),
(0,398,l),
(0,425,o),
(22,448,o),
(49,448,c),
(462,448,l),
(489,448,o),
(512,425,o),
(512,398,c)
);
},
{
attr = {
fillColor = (0,255);
};
closed = 1;
nodes = (
(209,88,l),
(218,131,l),
(213,132,o),
(207,132,o),
(205,135,c),
(201,137,o),
(199,138,o),
(198,141,c),
(195,143,o),
(195,147,o),
(195,150,c),
(195,154,o),
(196,158,o),
(196,162,c),
(245,362,l),
(191,354,l),
(147,169,l),
(144,158,o),
(143,149,o),
(143,138,c),
(143,128,o),
(146,120,o),
(150,112,c),
(154,106,o),
(160,99,o),
(170,95,c),
(179,91,o),
(191,88,o),
(209,88,c)
);
},
{
attr = {
fillColor = (0,255);
};
closed = 1;
nodes = (
(403,204,l),
(403,204,o),
(403,204,o),
(403,204,c),
(403,204,o),
(403,204,o),
(403,204,c)
);
},
{
attr = {
fillColor = (0,255);
};
closed = 1;
nodes = (
(403,214,o),
(402,224,o),
(399,233,c),
(396,242,o),
(391,250,o),
(385,257,c),
(379,264,o),
(371,269,o),
(361,273,c),
(352,277,o),
(341,280,o),
(328,280,c),
(314,280,o),
(301,279,o),
(289,276,c),
(278,273,o),
(268,272,o),
(258,269,c),
(201,28,l),
(251,28,l),
(268,91,l),
(276,90,o),
(282,88,o),
(290,88,c),
(306,88,o),
(322,91,o),
(336,98,c),
(349,103,o),
(361,111,o),
(371,120,c),
(381,131,o),
(389,143,o),
(395,158,c),
(400,171,o),
(403,187,o),
(403,204,c)
);
},
{
attr = {
fillColor = (0,255);
};
closed = 1;
nodes = (
(301,234,l),
(308,236,o),
(314,236,o),
(321,236,c),
(333,236,o),
(340,233,o),
(345,225,c),
(349,218,o),
(352,210,o),
(352,200,c),
(352,190,o),
(349,181,o),
(347,171,c),
(344,163,o),
(340,157,o),
(335,150,c),
(329,145,o),
(324,139,o),
(316,137,c),
(309,132,o),
(300,131,o),
(292,131,c),
(285,131,o),
(281,131,o),
(277,132,c)
);
}
);
width = 512;
}
);
note = faucet;
unicode = 57352;
},
{
glyphname = lichess;
lastChange = "2022-07-07 16:18:25 +0000";
layers = (
{
layerId = m01;
shapes = (
{
attr = {
fillColor = (0,255);
};
closed = 1;
nodes = (
(43,90,o),
(2,198,o),
(51,290,cs),
(98,380,o),
(183,410,o),
(276,393,c),
(299,406,o),
(324,423,o),
(347,422,c),
(331,378,l),
(449,180,l),
(445,127,o),
(399,123,o),
(399,123,c),
(394,137,o),
(384,150,o),
(354,179,cs),
(324,208,o),
(192,273,o),
(207,329,c),
(189,265,o),
(303,198,o),
(338,165,cs),
(372,133,o),
(388,109,o),
(391,102,c),
(391,102,o),
(479,126,o),
(464,185,c),
(354,386,l),
(368,448,l),
(335,444,o),
(308,439,o),
(282,420,c),
(58,435,o),
(0,281,o),
(13,180,cs),
(39,-13,o),
(302,-64,o),
(390,66,c),
(321,-6,o),
(211,-15,o),
(127,37,cs)
);
}
);
width = 479;
}
);
note = faucet;
unicode = 57353;
},
{
glyphname = litecoin;
lastChange = "2022-07-07 16:03:58 +0000";
layers = (
{
layerId = m01;
shapes = (
{
attr = {
fillColor = (0,255);
};
closed = 1;
nodes = (
(256,448,l),
(115,448,o),
(0,333,o),
(0,192,c),
(0,51,o),
(115,-64,o),
(256,-64,c),
(397,-64,o),
(512,51,o),
(512,192,c),
(512,192,l),
(512,260,o),
(485,325,o),
(438,373,c),
(390,421,o),
(325,448,o),
(257,448,c)
);
},
{
attr = {
fillColor = (0,255);
};
closed = 1;
nodes = (
(260,183,l),
(234,93,l),
(376,93,l),
(378,94,o),
(380,93,o),
(381,92,c),
(383,90,o),
(384,88,o),
(384,87,c),
(384,84,l),
(371,41,l),
(370,37,o),
(366,34,o),
(362,35,c),
(144,35,l),
(180,159,l),
(139,147,l),
(149,175,l),
(190,188,l),
(241,362,l),
(242,367,o),
(246,369,o),
(250,369,c),
(305,369,l),
(307,369,o),
(309,369,o),
(311,367,c),
(312,366,o),
(313,364,o),
(313,362,c),
(313,360,l),
(270,212,l),
(310,225,l),
(302,195,l)
);
}
);
width = 512;
}
);
note = faucet;
unicode = 57360;
},
{
glyphname = literal;
lastChange = "2023-04-30 14:35:31 +0000";
layers = (
{
layerId = m01;
shapes = (
{
attr = {
fillColor = (0,255);
};
closed = 1;
nodes = (
(254,152,l),
(129,169,l),
(167,441,l),
(113,448,l),
(67,122,l),
(247,98,l)
);
},
{
attr = {
fillColor = (0,255);
};
closed = 1;
nodes = (
(445,-16,l),
(438,39,l),
(87,-10,l),
(95,-64,l)
);
},
{
attr = {
fillColor = (0,255);
};
closed = 1;
nodes = (
(406,255,l),
(375,317,l),
(441,312,l),
(444,351,l),
(376,356,l),
(417,412,l),
(386,435,l),
(343,376,l),
(311,440,l),
(277,422,l),
(309,359,l),
(241,365,l),
(239,327,l),
(306,321,l),
(265,266,l),
(297,243,l),
(339,302,l),
(372,237,l)
);
}
);
width = 512;
}
);
note = faucet;
unicode = 57361;
},
{
glyphname = lobsters;
lastChange = "2022-07-07 16:07:33 +0000";
layers = (
{
layerId = m01;
shapes = (
{
attr = {
fillColor = (0,255);
};
closed = 1;
nodes = (
(0,277,o),
(0,107,o),
(0,-64,c),
(171,-64,o),
(341,-64,o),
(512,-64,c),
(512,107,o),
(512,277,o),
(512,448,c),
(341,448,o),
(171,448,o),
(0,448,c)
);
},
{
attr = {
fillColor = (0,255);
};
closed = 1;
nodes = (
(318,18,o),
(215,18,o),
(112,18,c),
(112,21,o),
(112,24,o),
(112,27,c),
(112,31,o),
(112,34,o),
(112,38,c),
(112,41,o),
(112,41,o),
(116,41,c),
(123,42,o),
(130,42,o),
(138,44,c),
(152,46,o),
(159,53,o),
(161,68,c),
(162,73,o),
(162,78,o),
(162,82,c),
(162,154,o),
(162,226,o),
(162,298,c),
(162,304,o),
(162,309,o),
(161,315,c),
(160,325,o),
(153,331,o),
(144,334,c),
(135,338,o),
(126,338,o),
(117,339,c),
(116,339,o),
(114,339,o),
(113,339,c),
(113,340,o),
(113,340,o),
(113,341,c),
(113,347,o),
(113,353,o),
(113,359,c),
(113,362,o),
(113,362,o),
(116,362,c),
(149,362,o),
(182,362,o),
(215,362,c),
(238,362,o),
(260,362,o),
(283,362,c),
(285,362,o),
(286,362,o),
(286,359,c),
(286,353,o),
(286,348,o),
(286,341,c),
(286,340,o),
(286,340,o),
(286,339,c),
(282,339,o),
(277,339,o),
(273,338,c),
(267,337,o),
(260,336,o),
(254,335,c),
(243,331,o),
(237,324,o),
(236,313,c),
(236,308,o),
(235,303,o),
(235,299,c),
(235,230,o),
(235,162,o),
(235,94,c),
(235,85,o),
(236,77,o),
(237,68,c),
(238,59,o),
(244,53,o),
(253,50,c),
(260,47,o),
(268,46,o),
(276,46,c),
(296,45,o),
(316,46,o),
(335,51,c),
(364,58,o),
(382,76,o),
(392,103,c),
(395,112,o),
(396,122,o),
(398,131,c),
(398,132,o),
(399,133,o),
(400,133,c),
(407,133,o),
(413,133,o),
(421,133,c),
(420,94,o),
(421,56,o),
(420,18,c)
);
}
);
width = 512;
}
);
note = faucet;
unicode = 57362;
},
{
glyphname = matrix;
lastChange = "2022-07-07 16:08:39 +0000";
layers = (
{
layerId = m01;
shapes = (
{
attr = {
fillColor = (0,255);
};
closed = 1;
nodes = (
(74,448,l),
(74,421,l),
(29,421,l),
(29,-37,l),
(74,-37,l),
(74,-64,l),
(0,-64,l),
(0,448,l)
);
},
{
attr = {
fillColor = (0,255);
};
closed = 1;
nodes = (
(439,421,l),
(439,448,l),
(512,448,l),
(512,-64,l),
(439,-64,l),
(439,-37,l),
(484,-37,l),
(484,421,l)
);
},
{
attr = {
fillColor = (0,255);
};
closed = 1;
nodes = (
(97,300,l),
(161,300,l),
(163,274,l),
(179,294,o),
(200,304,o),
(226,304,c),
(254,304,o),
(273,293,o),
(283,271,c),
(298,293,o),
(320,304,o),
(348,304,c),
(393,304,o),
(415,277,o),
(417,223,c),
(417,80,l),
(348,80,l),
(348,219,l),
(348,230,o),
(346,238,o),
(342,244,c),
(338,249,o),
(331,251,o),
(321,251,c),
(308,251,o),
(298,245,o),
(291,233,c),
(291,230,l),
(291,80,l),
(222,80,l),
(222,219,l),
(222,230,o),
(220,238,o),
(217,244,c),
(213,249,o),
(206,251,o),
(196,251,c),
(182,251,o),
(172,245,o),
(166,233,c),
(166,80,l),
(97,80,l)
);
}
);
width = 512;
}
);
note = faucet;
unicode = 57363;
},
{
glyphname = musicboard;
lastChange = "2023-04-30 14:35:43 +0000";
layers = (
{
layerId = m01;
shapes = (
{
attr = {
fillColor = (0,255);
};
closed = 1;
nodes = (
(460,45,l),
(460,180,l),
(458,180,l),
(256,289,l),
(54,180,l),
(52,180,l),
(52,180,l),
(52,45,l),
(256,-64,l)
);
},
{
attr = {
fillColor = (0,255);
};
closed = 1;
nodes = (
(208,106,l),
(256,134,l),
(304,106,l),
(256,80,l)
);
},
{
attr = {
fillColor = (0,255);
};
closed = 1;
nodes = (
(326,190,o),
(384,248,o),
(384,319,cs),
(384,390,o),
(326,448,o),
(256,448,cs),
(185,448,o),
(128,390,o),
(128,319,cs),
(128,248,o),
(185,190,o),
(256,190,cs)
);
},
{
attr = {
fillColor = (0,255);
};
closed = 1;
nodes = (
(245,301,o),
(236,309,o),
(236,319,cs),
(236,329,o),
(245,338,o),
(256,338,cs),
(267,338,o),
(274,329,o),
(274,319,cs),
(274,309,o),
(267,301,o),
(256,301,cs)
);
}
);
width = 512;
}
);
note = faucet;
unicode = 57364;
},
{
glyphname = myanimelist;
lastChange = "2022-07-07 16:09:11 +0000";
layers = (
{
layerId = m01;
shapes = (
{
attr = {
fillColor = (0,255);
};
closed = 1;
nodes = (
(93,249,l),
(137,305,l),
(187,305,l),
(187,104,l),
(137,104,l),
(137,230,l),
(93,173,l),
(49,230,l),
(49,104,l),
(0,104,l),
(0,305,l),
(49,305,l)
);
},
{
attr = {
fillColor = (0,255);
};
closed = 1;
nodes = (
(233,79,l),
(220,100,o),
(213,117,q),
(202,144,o),
(202,173,q),
(202,231,o),
(229,265,q),
(261,305,o),
(327,305,q),
(358,305,l),
(371,262,l),
(333,262,l),
(306,262,o),
(282,246,q),
(258,230,o),
(258,211,q),
(315,211,l),
(315,255,l),
(364,255,l),
(364,104,l),
(315,104,l),
(315,167,l),
(252,167,l),
(252,154,o),
(260,136,q),
(267,120,o),
(277,104,q)
);
},
{
attr = {
fillColor = (0,255);
};
closed = 1;
nodes = (
(386,104,l),
(386,305,l),
(436,305,l),
(436,148,l),
(512,148,l),
(499,104,l)
);
}
);
width = 512;
}
);
note = faucet;
unicode = 57365;
},
{
glyphname = "nintendo-switch";
lastChange = "2022-07-07 16:09:23 +0000";
layers = (
{
layerId = m01;
shapes = (
{
attr = {
fillColor = (0,255);
};
closed = 1;
nodes = (
(59,437,o),
(18,399,o),
(5,349,c),
(0,332,o),
(0,321,o),
(0,182,c),
(1,55,o),
(1,52,o),
(3,42,c),
(15,-11,o),
(52,-49,o),
(106,-61,c),
(113,-63,o),
(122,-63,o),
(179,-64,c),
(239,-64,o),
(245,-64,o),
(246,-62,c),
(248,-61,o),
(248,-40,o),
(248,191,c),
(248,363,o),
(248,444,o),
(247,446,c),
(246,447,o),
(244,448,o),
(182,447,c),
(132,447,o),
(116,447,o),
(110,446,c)
);
},
{
attr = {
fillColor = (0,255);
};
closed = 1;
nodes = (
(206,-23,l),
(162,-22,l),
(123,-22,o),
(119,-22,o),
(111,-20,c),
(76,-11,o),
(51,15,o),
(44,50,c),
(42,60,o),
(42,324,o),
(44,334,c),
(50,364,o),
(71,389,o),
(99,400,c),
(113,405,o),
(119,406,o),
(165,406,c),
(206,406,l)
);
},
{
attr = {
fillColor = (0,255);
};
closed = 1;
nodes = (
(112,340,o),
(102,335,o),
(97,330,c),
(85,321,o),
(80,307,o),
(81,291,c),
(81,283,o),
(82,280,o),
(85,274,c),
(90,263,o),
(98,256,o),
(108,251,c),
(115,247,o),
(117,247,o),
(126,247,c),
(134,246,o),
(137,247,o),
(143,248,c),
(166,256,o),
(180,279,o),
(176,301,c),
(171,329,o),
(146,347,o),
(119,342,c)
);
},
{
attr = {
fillColor = (0,255);
};
closed = 1;
nodes = (
(299,447,o),
(299,332,o),
(299,192,c),
(299,-39,o),
(299,-63,o),
(300,-63,c),
(303,-64,o),
(386,-64,o),
(396,-63,c),
(439,-58,o),
(477,-32,o),
(497,7,c),
(500,12,o),
(503,20,o),
(505,25,c),
(512,45,o),
(512,40,o),
(512,192,c),
(512,314,o),
(511,332,o),
(510,340,c),
(499,395,o),
(457,436,o),
(402,446,c),
(395,447,o),
(383,448,o),
(346,448,c),
(321,448,o),
(300,447,o),
(300,447,c)
);
},
{
attr = {
fillColor = (0,255);
};
closed = 1;
nodes = (
(429,212,o),
(443,199,o),
(448,183,c),
(452,173,o),
(452,159,o),
(448,149,c),
(442,133,o),
(429,121,o),
(413,117,c),
(386,110,o),
(358,126,o),
(350,152,c),
(348,160,o),
(348,174,o),
(351,182,c),
(359,208,o),
(386,223,o),
(413,216,c)
);
}
);
width = 512;
}
);
note = faucet;
unicode = 57366;
},
{
glyphname = notion;
lastChange = "2022-07-07 16:09:38 +0000";
layers = (
{
layerId = m01;
shapes = (
{
attr = {
fillColor = (0,255);
};
closed = 1;
nodes = (
(94,-61,o),
(92,-58,o),
(49,-4,cs),
(27,24,o),
(8,51,o),
(5,57,cs),
(1,66,l),
(0,403,l),
(3,409,l),
(6,417,o),
(15,423,o),
(24,425,c),
(27,426,o),
(95,431,o),
(175,437,cs),
(255,443,o),
(327,448,o),
(336,447,cs),
(357,447,o),
(361,445,o),
(408,413,cs),
(480,362,o),
(485,359,o),
(488,352,c),
(490,347,o),
(490,336,o),
(490,163,cs),
(489,-41,o),
(490,-26,o),
(480,-35,cs),
(470,-43,o),
(479,-42,o),
(323,-52,cs),
(187,-59,ls),
(150,-62,o),
(115,-64,o),
(110,-63,cs)
);
},
{
attr = {
fillColor = (0,255);
};
closed = 1;
nodes = (
(154,21,o),
(154,26,o),
(157,32,c),
(158,35,o),
(162,37,o),
(169,39,cs),
(180,42,l),
(180,239,l),
(173,239,ls),
(161,239,o),
(155,240,o),
(155,244,cs),
(155,250,o),
(160,257,o),
(164,260,cs),
(167,262,o),
(182,264,o),
(208,265,cs),
(229,267,o),
(246,268,o),
(247,268,c),
(297,191,ls),
(324,150,o),
(346,115,o),
(347,115,c),
(348,114,o),
(348,141,o),
(348,181,cs),
(348,250,l),
(341,250,l),
(324,253,o),
(322,253,o),
(323,259,cs),
(323,264,o),
(326,269,o),
(331,271,c),
(333,272,o),
(349,273,o),
(366,275,cs),
(402,276,ls),
(407,277,o),
(407,276,o),
(407,272,cs),
(407,264,o),
(403,259,o),
(393,257,cs),
(384,255,l),
(384,146,l),
(383,37,l),
(379,35,ls),
(367,27,o),
(343,23,o),
(332,28,cs),
(325,32,o),
(318,41,o),
(267,122,cs),
(218,198,l),
(218,124,ls),
(218,55,o),
(218,50,o),
(222,49,c),
(236,45,ls),
(244,44,o),
(249,42,o),
(249,41,cs),
(249,41,o),
(248,39,o),
(247,36,c),
(242,27,o),
(237,26,o),
(196,24,cs),
(176,22,o),
(158,21,o),
(157,21,cs)
);
},
{
attr = {
fillColor = (0,255);
};
closed = 1;
nodes = (
(120,-26,o),
(440,-7,o),
(445,-5,cs),
(449,-4,o),
(452,-2,o),
(453,2,cs),
(456,5,o),
(457,15,o),
(457,157,cs),
(457,317,l),
(456,321,o),
(453,325,o),
(451,328,cs),
(446,332,o),
(447,332,o),
(350,327,cs),
(310,324,o),
(239,320,o),
(194,318,cs),
(129,314,o),
(110,312,o),
(108,310,c),
(105,308,o),
(103,305,o),
(102,301,cs),
(101,297,o),
(100,250,o),
(101,141,cs),
(101,-14,l),
(105,-18,ls),
(107,-20,o),
(111,-23,o),
(115,-24,c)
);
},
{
attr = {
fillColor = (0,255);
};
closed = 1;
nodes = (
(94,-61,o),
(92,-58,o),
(49,-4,cs),
(27,24,o),
(8,51,o),
(5,57,cs),
(1,66,l),
(0,403,l),
(3,409,l),
(6,417,o),
(15,423,o),
(24,425,c),
(27,426,o),
(95,431,o),
(175,437,cs),
(255,443,o),
(327,448,o),
(336,447,cs),
(357,447,o),
(361,445,o),
(408,413,cs),
(480,362,o),
(485,359,o),
(488,352,c),
(490,347,o),
(490,336,o),
(490,163,cs),
(489,-41,o),
(490,-26,o),
(480,-35,cs),
(470,-43,o),
(479,-42,o),
(323,-52,cs),
(187,-59,ls),
(150,-62,o),
(115,-64,o),
(110,-63,cs)
);
},
{
attr = {
fillColor = (0,255);
};
closed = 1;
nodes = (
(113,346,o),
(417,366,o),
(420,367,c),
(420,367,o),
(420,369,o),
(418,371,c),
(411,378,o),
(362,413,o),
(354,415,cs),
(345,420,o),
(327,420,o),
(272,415,cs),
(246,413,o),
(203,411,o),
(177,409,cs),
(42,398,o),
(43,398,o),
(43,393,cs),
(43,391,o),
(77,363,o),
(92,353,c),
(94,351,o),
(100,348,o),
(104,348,c)
);
}
);
width = 490;
}
);
note = faucet;
unicode = 57367;
},
{
glyphname = opensea;
lastChange = "2022-07-07 16:09:44 +0000";
layers = (
{
layerId = m01;
shapes = (
{
attr = {
fillColor = (0,255);
};
closed = 1;
nodes = (
(397,-64,o),
(512,51,o),
(512,192,cs),
(512,333,o),
(397,448,o),
(256,448,cs),
(115,448,o),
(0,333,o),
(0,192,cs),
(0,51,o),
(115,-64,o),
(256,-64,cs)
);
},
{
attr = {
fillColor = (0,255);
};
closed = 1;
nodes = (
(126,180,o),
(125,182,o),
(126,183,c),
(194,289,ls),
(195,291,o),
(197,291,o),
(198,289,cs),
(209,264,o),
(219,233,o),
(214,214,cs),
(212,206,o),
(207,195,o),
(201,185,c),
(200,184,o),
(200,182,o),
(199,181,cs),
(198,180,o),
(197,180,o),
(197,180,c),
(128,180,ls)
);
},
{
attr = {
fillColor = (0,255);
};
closed = 1;
nodes = (
(146,62,o),
(108,100,o),
(108,147,cs),
(108,149,ls),
(108,150,o),
(109,151,o),
(110,151,cs),
(184,151,ls),
(186,151,o),
(187,150,o),
(187,148,cs),
(186,144,o),
(187,139,o),
(189,134,cs),
(194,125,o),
(203,120,o),
(213,120,cs),
(250,120,l),
(250,148,l),
(213,148,ls),
(211,148,o),
(210,150,o),
(211,152,c),
(213,154,l),
(216,159,o),
(221,166,o),
(226,175,cs),
(235,193,ls),
(236,195,o),
(236,196,o),
(236,197,c),
(237,199,o),
(238,201,o),
(238,203,c),
(239,204,o),
(239,206,o),
(240,207,c),
(241,213,o),
(241,218,o),
(241,224,cs),
(241,231,ls),
(241,234,o),
(241,236,o),
(240,239,c),
(240,241,o),
(240,243,o),
(239,245,c),
(239,249,o),
(238,252,o),
(237,255,c),
(237,257,l),
(236,259,o),
(236,261,o),
(235,263,c),
(233,271,o),
(231,278,o),
(228,284,cs),
(227,287,o),
(226,289,o),
(225,292,cs),
(221,302,ls),
(220,304,o),
(219,305,o),
(219,306,c),
(216,311,l),
(216,312,o),
(215,313,o),
(215,314,c),
(210,322,l),
(210,324,o),
(211,325,o),
(212,325,c),
(240,317,l),
(240,317,l),
(250,314,l),
(250,331,ls),
(250,339,o),
(256,346,o),
(264,346,cs),
(268,346,o),
(272,344,o),
(274,341,c),
(277,339,o),
(278,335,o),
(278,331,cs),
(278,306,l),
(281,305,ls),
(282,305,o),
(282,305,o),
(282,305,c),
(285,303,ls),
(286,302,o),
(287,301,o),
(289,300,c),
(292,297,o),
(295,295,o),
(298,291,c),
(299,291,o),
(300,290,o),
(301,289,cs),
(306,285,o),
(311,280,o),
(316,274,cs),
(317,273,o),
(318,271,o),
(320,269,cs),
(321,268,o),
(323,266,o),
(324,264,cs),
(325,262,o),
(327,260,o),
(329,257,cs),
(330,256,o),
(330,255,o),
(331,254,cs),
(337,245,l),
(337,243,o),
(338,242,o),
(339,240,cs),
(340,236,o),
(342,232,o),
(343,228,cs),
(343,227,o),
(343,226,o),
(344,225,c),
(344,224,l),
(344,221,ls),
(344,216,o),
(344,212,o),
(343,207,cs),
(343,206,o),
(342,204,o),
(342,202,c),
(341,200,o),
(340,198,o),
(340,196,c),
(334,186,ls),
(333,184,o),
(332,183,o),
(332,182,c),
(329,178,ls),
(328,176,o),
(327,175,o),
(325,173,cs),
(324,172,o),
(323,170,o),
(322,169,cs),
(316,163,ls),
(315,162,o),
(314,160,o),
(313,159,cs),
(310,156,ls),
(308,154,o),
(307,153,o),
(305,152,c),
(302,149,l),
(301,148,l),
(278,148,l),
(278,120,l),
(307,120,ls),
(313,120,o),
(319,122,o),
(324,126,cs),
(325,127,o),
(333,134,o),
(341,143,c),
(342,143,o),
(342,144,o),
(342,144,c),
(420,166,l),
(422,167,o),
(423,166,o),
(423,164,cs),
(423,148,ls),
(423,147,o),
(423,146,o),
(422,145,c),
(417,143,o),
(399,135,o),
(392,125,cs),
(373,99,o),
(359,62,o),
(327,62,cs),
(193,62,ls)
);
}
);
width = 512;
}
);
note = faucet;
unicode = 57368;
},
{
glyphname = osk;
lastChange = "2022-07-07 16:09:50 +0000";
layers = (
{
layerId = m01;
shapes = (
{
attr = {
fillColor = (0,255);
};
closed = 1;
nodes = (
(512,78,l),
(471,78,l),
(427,166,l),
(389,123,l),
(389,78,l),
(353,78,l),
(353,275,l),
(11,275,l),
(11,309,l),
(389,309,l),
(389,166,l),
(393,170,o),
(395,173,o),
(397,176,c),
(465,249,l),
(507,249,l),
(455,193,l)
);
},
{
attr = {
fillColor = (0,255);
};
closed = 1;
nodes = (
(210,124,l),
(216,110,o),
(228,104,o),
(247,104,c),
(271,104,o),
(283,111,o),
(283,125,c),
(283,129,o),
(281,133,o),
(277,136,c),
(273,139,o),
(269,141,o),
(264,142,c),
(233,148,l),
(198,154,o),
(181,171,o),
(181,198,c),
(181,214,o),
(186,226,o),
(197,237,c),
(208,248,o),
(224,253,o),
(246,253,c),
(282,253,o),
(304,240,o),
(312,213,c),
(278,206,l),
(274,219,o),
(264,225,o),
(247,225,c),
(227,225,o),
(216,219,o),
(216,206,c),
(216,197,o),
(225,191,o),
(241,188,c),
(278,180,l),
(307,174,o),
(321,158,o),
(321,131,c),
(321,112,o),
(313,98,o),
(299,88,c),
(284,79,o),
(267,75,o),
(246,75,c),
(229,75,o),
(213,78,o),
(200,85,c),
(187,92,o),
(178,103,o),
(174,117,c)
);
},
{
attr = {
fillColor = (0,255);
};
closed = 1;
nodes = (
(52,75,o),
(33,84,o),
(20,102,c),
(6,120,o),
(0,141,o),
(0,164,c),
(0,190,o),
(7,211,o),
(22,228,c),
(37,244,o),
(56,253,o),
(80,253,c),
(103,253,o),
(122,245,o),
(137,228,c),
(152,212,o),
(159,191,o),
(159,164,c),
(159,137,o),
(151,116,o),
(136,99,c),
(121,83,o),
(101,75,o),
(78,75,c)
);
},
{
attr = {
fillColor = (0,255);
};
closed = 1;
nodes = (
(105,106,o),
(118,126,o),
(118,165,c),
(118,182,o),
(115,196,o),
(109,206,c),
(103,216,o),
(93,221,o),
(80,221,c),
(67,221,o),
(57,216,o),
(51,205,c),
(44,195,o),
(41,181,o),
(41,164,c),
(41,145,o),
(44,131,o),
(51,121,c),
(58,111,o),
(67,106,o),
(79,106,c)
);
}
);
width = 512;
}
);
note = faucet;
unicode = 57369;
},
{
glyphname = pinboard;
lastChange = "2022-07-07 16:12:00 +0000";
layers = (
{
layerId = m01;
shapes = (
{
attr = {
fillColor = (0,255);
};
closed = 1;
nodes = (
(189,38,l),
(204,125,l),
(73,287,l),
(0,283,l),
(162,448,l),
(162,385,l),
(316,243,l),
(412,267,l),
(312,161,l),
(512,-64,l),
(285,137,l)
);
}
);
width = 512;
}
);
note = faucet;
unicode = 57376;
},
{
glyphname = plutonium;
lastChange = "2023-02-03 04:24:56 +0000";
layers = (
{
layerId = m01;
shapes = (
{
attr = {
fill = 1;
fillColor = (0,255);
strokeHeight = 30;
strokeWidth = 30;
};
closed = 1;
nodes = (
(63,45,o),
(49,57,o),
(43,67,c),
(34,83,o),
(39,106,o),
(58,134,c),
(62,140,o),
(67,145,o),
(72,151,c),
(76,157,o),
(81,162,o),
(86,167,c),
(93,174,o),
(100,181,o),
(107,187,c),
(106,188,o),
(105,189,o),
(104,190,c),
(94,199,o),
(85,208,o),
(76,218,c),
(43,255,o),
(31,287,o),
(43,307,c),
(49,317,o),
(63,328,o),
(97,328,c),
(120,328,o),
(147,324,o),
(177,314,c),
(179,314,o),
(180,313,o),
(182,313,c),
(182,316,o),
(183,318,o),
(184,321,c),
(186,334,o),
(190,346,o),
(194,358,c),
(210,404,o),
(232,430,o),
(256,430,c),
(280,430,o),
(302,404,o),
(318,358,c),
(322,347,o),
(325,334,o),
(328,321,c),
(329,318,o),
(330,316,o),
(330,313,c),
(332,313,o),
(333,314,o),
(335,314,c),
(365,324,o),
(392,328,o),
(415,328,c),
(449,328,o),
(463,317,o),
(469,307,c),
(480,288,o),
(470,257,o),
(440,222,c),
(439,221,o),
(438,220,o),
(436,218,c),
(430,211,o),
(423,203,o),
(415,197,c),
(412,193,o),
(408,190,o),
(405,187,c),
(408,184,o),
(412,181,o),
(415,177,c),
(423,170,o),
(430,163,o),
(436,156,c),
(437,155,l),
(438,154,o),
(439,153,o),
(440,152,c),
(470,116,o),
(480,86,o),
(469,67,c),
(463,57,o),
(449,45,o),
(415,45,c),
(392,45,o),
(365,50,o),
(335,60,c),
(332,60,o),
(330,61,o),
(328,62,c),
(325,49,o),
(322,37,o),
(318,26,c),
(302,-20,o),
(280,-46,o),
(256,-46,c),
(232,-46,o),
(210,-20,o),
(194,26,c),
(190,37,o),
(187,49,o),
(184,62,c),
(182,61,o),
(180,60,o),
(177,60,c),
(147,50,o),
(120,45,o),
(97,45,c)
);
},
{
attr = {
fill = 1;
fillColor = (0,255);
strokeHeight = 30;
strokeWidth = 30;
};
closed = 1;
nodes = (
(214,302,o),
(234,294,o),
(254,284,c),
(255,284,o),
(255,284,o),
(256,283,c),
(257,284,o),
(257,284,o),
(258,284,c),
(278,294,o),
(298,302,o),
(319,309,c),
(320,310,o),
(322,310,o),
(323,311,c),
(322,313,o),
(322,315,o),
(321,318,c),
(319,331,o),
(315,344,o),
(311,356,c),
(296,399,o),
(276,422,o),
(256,422,c),
(236,422,o),
(216,399,o),
(201,356,c),
(197,344,o),
(193,331,o),
(191,318,c),
(190,315,o),
(190,313,o),
(189,311,c),
(190,310,o),
(192,310,o),
(193,309,c)
);
},
{
attr = {
fill = 1;
fillColor = (0,255);
strokeHeight = 30;
strokeWidth = 30;
};
closed = 1;
nodes = (
(298,72,o),
(278,80,o),
(258,90,c),
(257,90,o),
(257,90,o),
(256,91,c),
(255,90,o),
(255,90,o),
(254,90,c),
(234,80,o),
(214,72,o),
(193,65,c),
(192,64,o),
(192,64,o),
(191,64,c),
(194,52,o),
(197,40,o),
(201,28,c),
(216,-15,o),
(236,-38,o),
(256,-38,c),
(276,-38,o),
(296,-15,o),
(311,28,c),
(315,40,o),
(318,52,o),
(321,64,c),
(320,64,o),
(320,64,o),
(319,64,c)
);
},
{
attr = {
fill = 1;
fillColor = (0,255);
strokeHeight = 30;
strokeWidth = 30;
};
closed = 1;
nodes = (
(151,222,o),
(160,228,o),
(169,234,c),
(169,234,l),
(170,235,o),
(171,235,o),
(172,236,c),
(172,238,o),
(172,240,o),
(172,242,c),
(172,242,l),
(174,264,o),
(176,286,o),
(180,305,c),
(179,306,o),
(178,306,o),
(176,307,c),
(146,316,o),
(119,321,o),
(97,321,c),
(80,321,o),
(58,318,o),
(50,304,c),
(40,287,o),
(51,259,o),
(80,225,c),
(80,225,l),
(81,223,l),
(88,216,o),
(96,207,o),
(105,199,c),
(107,198,o),
(109,196,o),
(110,195,c),
(111,194,o),
(112,193,o),
(113,192,c),
(123,200,o),
(133,208,o),
(143,216,c)
);
},
{
attr = {
fill = 1;
fillColor = (0,255);
strokeHeight = 30;
strokeWidth = 30;
};
closed = 1;
nodes = (
(195,250,o),
(204,256,o),
(213,261,c),
(224,267,o),
(235,273,o),
(247,279,c),
(245,280,o),
(242,281,o),
(239,283,c),
(224,290,o),
(208,296,o),
(192,301,c),
(191,302,o),
(189,303,o),
(187,303,c),
(187,303,o),
(187,302,o),
(187,302,c),
(184,286,o),
(182,270,o),
(180,253,c),
(180,250,o),
(180,246,o),
(179,242,c),
(179,241,l),
(182,242,o),
(184,244,o),
(186,245,c)
);
},
{
attr = {
fill = 1;
fillColor = (0,255);
strokeHeight = 30;
strokeWidth = 30;
};
closed = 1;
nodes = (
(398,181,o),
(396,180,o),
(396,179,c),
(386,171,o),
(375,163,o),
(365,155,c),
(357,150,o),
(350,145,o),
(343,140,c),
(342,139,o),
(341,138,o),
(340,138,c),
(338,118,o),
(335,98,o),
(332,79,c),
(331,75,o),
(330,72,o),
(330,69,c),
(332,69,o),
(334,68,o),
(336,67,c),
(366,58,o),
(393,53,o),
(415,53,c),
(432,53,o),
(454,56,o),
(462,70,c),
(471,85,o),
(463,110,o),
(441,139,c),
(435,146,o),
(428,153,o),
(421,160,c),
(415,167,o),
(409,173,o),
(402,179,c),
(401,180,o),
(400,181,o),
(399,182,c),
(399,182,o),
(398,181,o),
(398,181,c)
);
},
{
attr = {
fill = 1;
fillColor = (0,255);
strokeHeight = 30;
strokeWidth = 30;
};
closed = 1;
nodes = (
(270,97,o),
(268,96,o),
(265,95,c),
(268,94,o),
(270,92,o),
(273,91,c),
(289,84,o),
(306,77,o),
(323,72,c),
(323,75,o),
(324,79,o),
(325,82,c),
(328,98,o),
(330,114,o),
(332,131,c),
(332,131,o),
(332,132,o),
(332,132,c),
(313,120,o),
(293,109,o),
(273,99,c)
);
},
{
attr = {
fill = 1;
fillColor = (0,255);
strokeHeight = 30;
strokeWidth = 30;
};
closed = 1;
nodes = (
(334,306,o),
(333,306,o),
(332,305,c),
(336,285,o),
(338,264,o),
(340,242,c),
(340,240,o),
(340,238,o),
(340,236,c),
(341,235,o),
(342,235,o),
(343,234,c),
(353,227,o),
(363,220,o),
(373,213,c),
(381,207,o),
(389,201,o),
(396,195,c),
(397,194,o),
(397,193,o),
(398,193,c),
(398,193,o),
(399,192,o),
(399,192,c),
(401,194,o),
(402,195,o),
(404,196,c),
(410,202,o),
(416,208,o),
(421,214,c),
(428,220,o),
(435,228,o),
(441,235,c),
(463,264,o),
(471,288,o),
(462,304,c),
(454,318,o),
(432,321,o),
(415,321,c),
(393,321,o),
(366,316,o),
(336,307,c)
);
},
{
attr = {
fill = 1;
fillColor = (0,255);
strokeHeight = 30;
strokeWidth = 30;
};
closed = 1;
nodes = (
(304,296,o),
(288,290,o),
(273,283,c),
(270,281,o),
(268,280,o),
(265,279,c),
(277,273,o),
(288,267,o),
(300,261,c),
(308,256,o),
(317,250,o),
(326,245,c),
(328,244,o),
(330,242,o),
(333,241,c),
(333,242,l),
(332,246,o),
(332,250,o),
(332,253,c),
(330,270,o),
(328,286,o),
(325,302,c),
(325,302,o),
(325,303,o),
(325,303,c),
(323,303,o),
(322,302,o),
(320,301,c)
);
},
{
attr = {
fill = 1;
fillColor = (0,255);
strokeHeight = 30;
strokeWidth = 30;
};
closed = 1;
nodes = (
(229,261,o),
(204,247,o),
(180,232,c),
(180,232,o),
(179,231,o),
(179,231,c),
(179,229,o),
(178,226,o),
(178,224,c),
(178,213,o),
(178,203,o),
(178,192,c),
(178,178,o),
(178,164,o),
(179,151,c),
(179,147,l),
(179,147,l),
(179,145,o),
(179,144,o),
(179,142,c),
(180,142,o),
(180,142,o),
(180,142,c),
(181,141,l),
(181,141,l),
(181,141,l),
(205,126,o),
(229,112,o),
(254,100,c),
(255,100,o),
(255,99,o),
(256,99,c),
(269,106,o),
(283,112,o),
(296,120,c),
(308,127,o),
(320,134,o),
(331,141,c),
(332,142,l),
(332,142,o),
(332,142,o),
(333,142,c),
(333,147,l),
(333,147,l),
(333,151,l),
(334,164,o),
(334,178,o),
(334,192,c),
(334,205,o),
(334,218,o),
(333,231,c),
(333,231,o),
(332,232,o),
(332,232,c),
(331,233,l),
(331,233,l),
(319,240,o),
(308,247,o),
(296,254,c),
(283,261,o),
(269,268,o),
(256,275,c),
(255,275,o),
(255,274,o),
(254,274,c)
);
},
{
attr = {
fill = 1;
fillColor = (0,255);
strokeHeight = 30;
strokeWidth = 30;
};
closed = 1;
nodes = (
(149,211,o),
(136,201,o),
(123,190,c),
(121,189,o),
(120,188,o),
(119,187,c),
(120,186,o),
(121,185,o),
(123,184,c),
(130,177,o),
(138,171,o),
(146,165,c),
(152,161,o),
(157,157,o),
(163,153,c),
(166,151,o),
(169,149,o),
(172,147,c),
(172,147,o),
(172,147,o),
(172,147,c),
(171,152,o),
(171,157,o),
(171,162,c),
(170,183,o),
(170,205,o),
(171,226,c),
(168,224,o),
(166,222,o),
(163,221,c)
);
},
{
attr = {
fill = 1;
fillColor = (0,255);
strokeHeight = 30;
strokeWidth = 30;
};
closed = 1;
nodes = (
(342,149,l),
(345,150,o),
(347,152,o),
(349,153,c),
(359,160,o),
(368,167,o),
(377,174,c),
(381,177,o),
(385,181,o),
(389,184,c),
(391,185,o),
(392,186,o),
(393,187,c),
(388,191,o),
(383,195,o),
(379,199,c),
(369,206,o),
(359,214,o),
(349,221,c),
(346,222,o),
(344,224,o),
(341,226,c),
(341,225,o),
(341,223,o),
(341,222,c),
(342,212,o),
(342,202,o),
(342,192,c),
(342,191,l),
(342,176,o),
(341,162,o),
(340,147,c),
(341,148,o),
(341,148,o),
(342,148,c)
);
},
{
attr = {
fill = 1;
fillColor = (0,255);
strokeHeight = 30;
strokeWidth = 30;
};
closed = 1;
nodes = (
(108,178,o),
(107,176,o),
(105,175,c),
(96,166,o),
(88,158,o),
(81,150,c),
(77,146,o),
(74,142,o),
(71,137,c),
(48,109,o),
(41,85,o),
(50,70,c),
(58,56,o),
(80,53,o),
(97,53,c),
(119,53,o),
(146,58,o),
(176,67,c),
(178,68,o),
(180,69,o),
(182,69,c),
(182,72,o),
(181,75,o),
(180,79,c),
(177,98,o),
(174,118,o),
(172,138,c),
(171,138,o),
(170,139,o),
(169,140,c),
(169,140,l),
(163,144,o),
(157,148,o),
(151,152,c),
(138,161,o),
(125,171,o),
(113,182,c),
(112,181,o),
(111,180,o),
(110,179,c)
);
},
{
attr = {
fill = 1;
fillColor = (0,255);
strokeHeight = 30;
strokeWidth = 30;
};
closed = 1;
nodes = (
(208,78,o),
(224,84,o),
(239,91,c),
(242,92,o),
(244,94,o),
(247,95,c),
(245,96,o),
(242,97,o),
(240,99,c),
(219,109,o),
(199,120,o),
(180,133,c),
(180,132,o),
(180,131,o),
(180,131,c),
(182,114,o),
(184,98,o),
(187,82,c),
(188,79,o),
(189,75,o),
(189,72,c),
(190,72,o),
(191,72,o),
(192,72,c)
);
}
);
width = 512;
}
);
note = faucet;
unicode = 57377;
},
{
glyphname = polywork;
lastChange = "2022-07-07 16:18:40 +0000";
layers = (
{
layerId = m01;
shapes = (
{
attr = {
fillColor = (0,255);
};
closed = 1;
nodes = (
(245,-64,ls),
(302,-64,o),
(349,-18,o),
(349,40,cs),
(349,93,l),
(408,93,ls),
(466,93,o),
(512,139,o),
(512,197,cs),
(512,344,ls),
(512,402,o),
(466,448,o),
(408,448,cs),
(104,448,ls),
(46,448,o),
(0,402,o),
(0,344,cs),
(0,40,ls),
(0,-18,o),
(46,-64,o),
(104,-64,cs)
);
},
{
attr = {
fillColor = (0,255);
};
closed = 1;
nodes = (
(61,-37,o),
(26,-3,o),
(26,40,cs),
(26,90,l),
(160,90,l),
(160,-37,l),
(102,-37,ls)
);
},
{
attr = {
fillColor = (0,255);
};
closed = 1;
nodes = (
(26,256,l),
(160,256,l),
(160,118,l),
(26,118,l)
);
},
{
attr = {
fillColor = (0,255);
};
closed = 1;
nodes = (
(189,88,l),
(322,88,l),
(322,38,ls),
(322,-3,o),
(288,-38,o),
(245,-38,cs),
(189,-38,l)
);
},
{
attr = {
fillColor = (0,255);
};
closed = 1;
nodes = (
(189,256,l),
(322,256,l),
(322,118,l),
(189,118,l)
);
},
{
attr = {
fillColor = (0,255);
};
closed = 1;
nodes = (
(27,346,ls),
(27,387,o),
(61,422,o),
(104,422,cs),
(160,422,l),
(160,286,l),
(27,286,l)
);
},
{
attr = {
fillColor = (0,255);
};
closed = 1;
nodes = (
(352,256,l),
(485,256,l),
(485,195,ls),
(485,154,o),
(451,118,o),
(408,118,cs),
(352,118,l)
);
},
{
attr = {
fillColor = (0,255);
};
closed = 1;
nodes = (
(189,422,l),
(322,422,l),
(322,286,l),
(189,286,l)
);
},
{
attr = {
fillColor = (0,255);
};
closed = 1;
nodes = (
(352,421,l),
(408,421,ls),
(450,421,o),
(485,387,o),
(485,344,cs),
(485,286,l),
(352,286,l)
);
}
);
width = 512;
}
);
note = faucet;
unicode = 57378;
},
{
glyphname = postype;
lastChange = "2022-07-07 16:25:12 +0000";
layers = (
{
layerId = m01;
shapes = (
{
closed = 1;
nodes = (
(128,-63,l),
(128,153,l),
(129,368,l),
(186,368,l),
(187,153,l),
(187,-63,l),
(255,-63,l),
(255,5,l),
(256,72,l),
(297,73,ls),
(336,73,o),
(343,74,o),
(359,77,cs),
(383,81,o),
(420,97,o),
(432,108,c),
(438,112,ls),
(443,115,o),
(467,139,o),
(470,144,c),
(471,147,o),
(474,150,o),
(475,151,cs),
(477,153,o),
(490,174,o),
(490,175,cs),
(490,176,o),
(491,179,o),
(493,183,cs),
(506,207,o),
(512,246,o),
(509,275,cs),
(507,294,o),
(504,310,o),
(501,317,c),
(500,318,o),
(499,322,o),
(498,324,cs),
(497,327,o),
(495,332,o),
(493,336,cs),
(491,339,o),
(490,343,o),
(490,343,c),
(490,348,o),
(468,377,o),
(455,390,cs),
(442,403,o),
(412,425,o),
(408,425,cs),
(407,425,o),
(404,427,o),
(400,428,c),
(397,430,o),
(391,432,o),
(389,433,cs),
(386,434,o),
(383,436,o),
(382,436,c),
(376,439,o),
(360,442,o),
(343,444,cs),
(326,446,o),
(2,447,o),
(1,444,c),
(0,444,o),
(0,426,o),
(1,406,cs),
(1,369,l),
(59,368,l),
(60,-63,l)
);
},
{
attr = {
fillColor = (0,255);
};
closed = 1;
nodes = (
(256,259,ls),
(255,318,o),
(256,367,o),
(256,367,c),
(257,370,o),
(342,369,o),
(351,366,cs),
(355,365,o),
(360,364,o),
(362,363,c),
(367,362,o),
(388,352,o),
(390,350,cs),
(391,349,o),
(393,347,o),
(396,345,cs),
(405,339,o),
(421,321,o),
(421,317,c),
(421,317,o),
(423,315,o),
(424,313,c),
(426,311,o),
(427,309,o),
(427,309,c),
(427,308,o),
(428,304,o),
(432,297,cs),
(440,278,o),
(439,238,o),
(430,218,cs),
(427,211,l),
(427,210,o),
(420,200,o),
(417,195,cs),
(412,189,o),
(395,173,o),
(387,168,cs),
(381,164,o),
(376,162,o),
(364,157,cs),
(356,153,o),
(333,152,o),
(292,152,cs),
(256,152,l)
);
}
);
width = 510;
}
);
note = faucet;
unicode = 57379;
},
{
glyphname = "rainbow-me";
lastChange = "2022-07-07 16:25:28 +0000";
layers = (
{
layerId = m01;
shapes = (
{
attr = {
fillColor = (0,255);
};
closed = 1;
nodes = (
(0,448,l),
(282,448,o),
(512,218,o),
(512,-64,c),
(409,-64,l),
(409,162,o),
(226,345,o),
(0,345,c)
);
},
{
attr = {
fillColor = (0,255);
};
closed = 1;
nodes = (
(0,294,l),
(198,294,o),
(358,134,o),
(358,-64,c),
(256,-64,l),
(256,77,o),
(141,192,o),
(0,192,c)
);
},
{
attr = {
fillColor = (0,255);
};
closed = 1;
nodes = (
(0,141,l),
(113,141,o),
(205,49,o),
(205,-64,c),
(102,-64,l),
(102,-8,o),
(56,38,o),
(0,38,c)
);
}
);
width = 512;
}
);
note = faucet;
unicode = 57380;
},
{
glyphname = rarible;
lastChange = "2022-07-07 16:25:33 +0000";
layers = (
{
layerId = m01;
shapes = (
{
attr = {
fillColor = (0,255);
};
closed = 1;
nodes = (
(410,448,l),
(466,448,o),
(512,402,o),
(512,346,c),
(512,38,l),
(512,-18,o),
(466,-64,o),
(410,-64,c),
(102,-64,l),
(46,-64,o),
(0,-18,o),
(0,38,c),
(0,346,l),
(0,402,o),
(46,448,o),
(102,448,c)
);
},
{
attr = {
fillColor = (0,255);
};
closed = 1;
nodes = (
(369,198,o),
(384,210,o),
(384,234,c),
(384,275,o),
(349,284,o),
(306,284,c),
(131,284,l),
(131,102,l),
(204,102,l),
(204,164,l),
(292,164,l),
(305,164,o),
(313,159,o),
(313,145,c),
(313,102,l),
(387,102,l),
(387,148,l),
(387,173,o),
(373,188,o),
(353,194,c)
);
},
{
attr = {
fillColor = (0,255);
};
closed = 1;
nodes = (
(204,213,l),
(204,231,l),
(293,231,l),
(303,231,o),
(308,230,o),
(308,222,c),
(308,214,o),
(303,213,o),
(293,213,c)
);
}
);
width = 512;
}
);
note = faucet;
unicode = 57381;
},
{
glyphname = ravencoin;
lastChange = "2022-07-07 16:25:38 +0000";
layers = (
{
layerId = m01;
shapes = (
{
attr = {
fillColor = (0,255);
};
closed = 1;
nodes = (
(512,51,o),
(397,-64,o),
(256,-64,c),
(115,-64,o),
(0,51,o),
(0,192,c),
(0,333,o),
(115,448,o),
(256,448,c),
(397,448,o),
(512,333,o),
(512,192,c)
);
},
{
attr = {
fillColor = (0,255);
};
closed = 1;
nodes = (
(204,294,l),
(141,1,l),
(241,73,l)
);
},
{
attr = {
fillColor = (0,255);
};
closed = 1;
nodes = (
(243,74,l),
(304,73,l),
(206,293,l)
);
},
{
attr = {
fillColor = (0,255);
};
closed = 1;
nodes = (
(309,79,l),
(356,252,l),
(338,273,l)
);
},
{
attr = {
fillColor = (0,255);
};
closed = 1;
nodes = (
(287,350,l),
(210,298,l),
(322,335,l)
);
},
{
attr = {
fillColor = (0,255);
};
closed = 1;
nodes = (
(277,350,l),
(230,348,l),
(223,329,l)
);
},
{
attr = {
fillColor = (0,255);
};
closed = 1;
nodes = (
(323,332,l),
(212,297,l),
(335,280,l)
);
},
{
attr = {
fillColor = (0,255);
};
closed = 1;
nodes = (
(306,345,l),
(313,363,l),
(277,379,l)
);
},
{
attr = {
fillColor = (0,255);
};
closed = 1;
nodes = (
(316,365,l),
(324,336,l),
(371,349,l)
);
},
{
attr = {
fillColor = (0,255);
};
closed = 1;
nodes = (
(336,277,l),
(208,295,l),
(306,74,l)
);
},
{
attr = {
fillColor = (0,255);
};
closed = 1;
nodes = (
(283,350,l),
(222,326,l),
(208,299,l)
);
},
{
attr = {
fillColor = (0,255);
};
closed = 1;
nodes = (
(246,368,l),
(230,351,l),
(281,353,l)
);
},
{
attr = {
fillColor = (0,255);
};
closed = 1;
nodes = (
(272,381,l),
(248,370,l),
(303,346,l)
);
},
{
attr = {
fillColor = (0,255);
};
closed = 1;
nodes = (
(300,383,l),
(274,383,l),
(314,367,l)
);
},
{
attr = {
fillColor = (0,255);
};
closed = 1;
nodes = (
(314,362,l),
(308,344,l),
(321,338,l)
);
}
);
width = 512;
}
);
note = faucet;
unicode = 57382;
},
{
glyphname = revue;
lastChange = "2022-07-07 16:25:42 +0000";
layers = (
{
layerId = m01;
shapes = (
{
attr = {
fillColor = (0,255);
};
closed = 1;
nodes = (
(0,333,o),
(115,448,o),
(256,448,c),
(397,448,o),
(512,333,o),
(512,192,c),
(512,51,o),
(397,-64,o),
(256,-64,c),
(115,-64,o),
(0,51,o),
(0,192,c)
);
},
{
attr = {
fillColor = (0,255);
};
closed = 1;
nodes = (
(341,17,l),
(378,17,o),
(382,49,o),
(375,52,c),
(328,75,o),
(301,152,o),
(301,152,c),
(301,152,o),
(384,187,o),
(384,257,c),
(384,328,o),
(327,358,o),
(269,358,c),
(204,358,o),
(133,323,o),
(102,256,c),
(83,214,o),
(139,200,o),
(141,214,c),
(150,257,o),
(199,325,o),
(269,325,c),
(306,325,o),
(328,301,o),
(328,257,c),
(328,204,o),
(266,175,o),
(239,166,c),
(245,196,l),
(252,229,o),
(255,241,o),
(255,249,c),
(255,271,o),
(242,275,o),
(229,275,c),
(214,275,o),
(202,263,o),
(202,263,c),
(211,247,o),
(196,188,o),
(189,164,c),
(180,131,o),
(172,98,o),
(163,64,c),
(156,37,o),
(205,44,o),
(208,52,c),
(212,61,o),
(221,93,o),
(230,127,c),
(244,132,o),
(260,138,o),
(260,138,c),
(260,138,o),
(287,17,o),
(341,17,c)
);
}
);
width = 512;
}
);
note = faucet;
unicode = 57383;
},
{
glyphname = roblox;
lastChange = "2022-07-07 16:25:46 +0000";
layers = (
{
layerId = m01;
shapes = (
{
attr = {
fillColor = (0,255);
};
closed = 1;
nodes = (
(0,41,l),
(407,-64,l),
(512,343,l),
(105,448,l)
);
},
{
attr = {
fillColor = (0,255);
};
closed = 1;
nodes = (
(206,163,l),
(227,242,l),
(306,222,l),
(286,142,l)
);
}
);
width = 512;
}
);
note = faucet;
unicode = 57384;
},
{
glyphname = signal.org;
lastChange = "2022-10-26 19:50:47 +0000";
layers = (
{
layerId = m01;
shapes = (
{
attr = {
fillColor = (0,255);
};
closed = 1;
nodes = (
(200,420,l),
(177,415,o),
(156,406,o),
(136,394,c),
(124,414,l),
(146,428,o),
(169,438,o),
(194,444,c)
);
},
{
attr = {
fillColor = (0,255);
};
closed = 1;
nodes = (
(311,420,l),
(334,415,o),
(355,406,o),
(375,394,c),
(387,414,l),
(365,428,o),
(342,437,o),
(317,444,c)
);
},
{
attr = {
fillColor = (0,255);
};
closed = 1;
nodes = (
(24,306,o),
(14,282,o),
(8,257,c),
(31,252,l),
(37,274,o),
(46,296,o),
(58,316,c),
(37,328,l)
);
},
{
attr = {
fillColor = (0,255);
};
closed = 1;
nodes = (
(24,208,o),
(25,219,o),
(27,231,c),
(3,234,l),
(-1,209,o),
(-1,183,o),
(3,158,c),
(27,161,l),
(25,173,o),
(24,184,o),
(24,196,c)
);
},
{
attr = {
fillColor = (0,255);
};
closed = 1;
nodes = (
(375,-2,l),
(355,-14,o),
(334,-23,o),
(311,-28,c),
(317,-52,l),
(342,-45,o),
(365,-36,o),
(387,-22,c)
);
},
{
attr = {
fillColor = (0,255);
};
closed = 1;
nodes = (
(487,184,o),
(486,173,o),
(484,161,c),
(508,158,l),
(511,183,o),
(511,209,o),
(508,234,c),
(484,231,l),
(486,219,o),
(487,208,o),
(487,196,c)
);
},
{
attr = {
fillColor = (0,255);
};
closed = 1;
nodes = (
(480,141,l),
(474,118,o),
(465,96,o),
(453,76,c),
(474,64,l),
(487,86,o),
(497,110,o),
(503,135,c)
);
},
{
attr = {
fillColor = (0,255);
};
closed = 1;
nodes = (
(267,-36,o),
(244,-36,o),
(221,-33,c),
(217,-56,l),
(243,-60,o),
(268,-60,o),
(294,-56,c),
(290,-33,l)
);
},
{
attr = {
fillColor = (0,255);
};
closed = 1;
nodes = (
(428,40,o),
(411,24,o),
(393,10,c),
(407,-9,l),
(427,6,o),
(446,24,o),
(461,45,c),
(442,59,l)
);
},
{
attr = {
fillColor = (0,255);
};
closed = 1;
nodes = (
(411,368,o),
(428,352,o),
(442,333,c),
(461,347,l),
(446,368,o),
(427,386,o),
(407,401,c),
(393,382,l)
);
},
{
attr = {
fillColor = (0,255);
};
closed = 1;
nodes = (
(83,352,o),
(100,368,o),
(118,382,c),
(104,401,l),
(83,386,o),
(65,368,o),
(50,347,c),
(69,333,l)
);
},
{
attr = {
fillColor = (0,255);
};
closed = 1;
nodes = (
(453,316,l),
(465,296,o),
(474,274,o),
(480,252,c),
(503,257,l),
(497,282,o),
(487,306,o),
(474,328,c)
);
},
{
attr = {
fillColor = (0,255);
};
closed = 1;
nodes = (
(244,428,o),
(267,428,o),
(290,425,c),
(294,448,l),
(268,452,o),
(243,452,o),
(217,448,c),
(221,425,l)
);
},
{
attr = {
fillColor = (0,255);
};
closed = 1;
nodes = (
(32,-27,l),
(44,22,l),
(21,28,l),
(9,-22,l),
(6,-35,o),
(14,-47,o),
(27,-50,c),
(30,-51,o),
(34,-51,o),
(38,-50,c),
(87,-39,l),
(82,-16,l)
);
},
{
attr = {
fillColor = (0,255);
};
closed = 1;
nodes = (
(49,44,l),
(57,78,l),
(45,97,o),
(36,118,o),
(31,141,c),
(8,135,l),
(13,114,o),
(21,93,o),
(31,74,c),
(25,49,l)
);
},
{
attr = {
fillColor = (0,255);
};
closed = 1;
nodes = (
(103,-11,l),
(108,-34,l),
(133,-28,l),
(153,-39,o),
(173,-46,o),
(194,-52,c),
(200,-28,l),
(178,-23,o),
(157,-14,o),
(137,-3,c),
(137,-3,l)
);
},
{
attr = {
fillColor = (0,255);
};
closed = 1;
nodes = (
(141,403,o),
(48,310,o),
(48,196,c),
(48,157,o),
(59,119,o),
(80,86,c),
(60,1,l),
(145,21,l),
(242,-40,o),
(370,-11,o),
(431,86,c),
(492,182,o),
(463,310,o),
(366,371,c),
(333,392,o),
(295,403,o),
(255,403,cs)
);
}
);
width = 510;
}
);
note = faucet;
unicode = 57385;
},
{
glyphname = spacehey;
lastChange = "2022-07-07 16:25:54 +0000";
layers = (
{
layerId = m01;
shapes = (
{
attr = {
fillColor = (0,255);
};
closed = 1;
nodes = (
(291,-17,ls),
(413,-17,o),
(512,83,o),
(512,205,cs),
(512,401,l),
(221,401,ls),
(99,401,o),
(0,307,o),
(0,192,cs),
(0,77,o),
(99,-17,o),
(221,-17,cs)
);
},
{
attr = {
fillColor = (0,255);
};
closed = 1;
nodes = (
(106,139,o),
(101,144,o),
(101,155,cs),
(101,273,ls),
(101,278,o),
(103,282,o),
(105,285,c),
(107,288,o),
(111,289,o),
(115,289,cs),
(119,289,o),
(122,288,o),
(125,285,cs),
(127,282,o),
(129,278,o),
(129,273,cs),
(129,232,l),
(132,236,o),
(135,239,o),
(139,242,cs),
(142,244,o),
(146,246,o),
(149,247,cs),
(154,248,o),
(158,249,o),
(162,249,cs),
(169,249,o),
(175,247,o),
(181,245,cs),
(186,242,o),
(190,237,o),
(193,232,cs),
(195,229,o),
(196,225,o),
(197,221,cs),
(198,217,o),
(198,212,o),
(198,207,cs),
(198,155,ls),
(198,150,o),
(197,145,o),
(194,143,cs),
(192,140,o),
(188,139,o),
(184,139,cs),
(176,139,o),
(171,144,o),
(171,155,cs),
(171,201,ls),
(171,210,o),
(170,216,o),
(167,221,cs),
(165,226,o),
(160,228,o),
(152,228,cs),
(148,228,o),
(143,227,o),
(139,224,cs),
(135,221,o),
(132,217,o),
(131,212,cs),
(129,208,o),
(128,201,o),
(128,191,cs),
(128,155,ls),
(128,150,o),
(127,145,o),
(125,143,cs),
(122,140,o),
(119,139,o),
(115,139,cs)
);
},
{
attr = {
fillColor = (0,255);
};
closed = 1;
nodes = (
(258,139,o),
(244,144,o),
(235,153,cs),
(225,163,o),
(220,177,o),
(220,194,cs),
(220,202,o),
(221,209,o),
(224,216,cs),
(226,223,o),
(230,229,o),
(234,234,cs),
(239,239,o),
(244,243,o),
(251,245,cs),
(258,248,o),
(265,249,o),
(273,249,cs),
(284,249,o),
(293,247,o),
(301,242,cs),
(308,238,o),
(314,232,o),
(318,225,cs),
(321,218,o),
(323,211,o),
(323,203,cs),
(323,196,o),
(321,192,o),
(317,190,cs),
(313,188,o),
(308,187,o),
(301,187,cs),
(248,187,l),
(248,181,o),
(249,175,o),
(251,171,cs),
(254,166,o),
(257,162,o),
(261,160,cs),
(265,158,o),
(270,156,o),
(274,156,cs),
(277,156,o),
(281,157,o),
(283,158,c),
(286,158,o),
(288,160,o),
(291,161,c),
(293,163,o),
(296,165,o),
(298,166,c),
(298,166,l),
(306,174,ls),
(308,175,o),
(309,176,o),
(312,176,cs),
(315,176,o),
(317,175,o),
(319,173,cs),
(321,172,o),
(322,170,o),
(322,167,cs),
(322,165,o),
(321,162,o),
(319,158,cs),
(317,155,o),
(314,152,o),
(310,149,cs),
(306,146,o),
(301,143,o),
(295,141,cs),
(290,139,o),
(283,139,o),
(275,139,cs)
);
},
{
attr = {
fillColor = (0,255);
};
closed = 1;
nodes = (
(297,202,l),
(296,212,o),
(294,219,o),
(289,223,cs),
(285,228,o),
(279,230,o),
(272,230,cs),
(265,230,o),
(260,228,o),
(255,223,cs),
(251,218,o),
(249,211,o),
(248,202,c)
);
},
{
attr = {
fillColor = (0,255);
};
closed = 1;
nodes = (
(345,98,o),
(339,99,o),
(335,101,cs),
(331,102,o),
(329,106,o),
(329,110,cs),
(329,113,o),
(330,116,o),
(331,117,cs),
(333,119,o),
(336,120,o),
(340,120,cs),
(341,120,o),
(343,120,o),
(344,119,cs),
(346,119,o),
(347,119,o),
(349,119,cs),
(352,119,o),
(354,119,o),
(356,120,cs),
(358,121,o),
(359,123,o),
(361,125,cs),
(362,127,o),
(364,131,o),
(366,135,cs),
(368,141,l),
(335,225,ls),
(333,230,o),
(332,234,o),
(332,236,cs),
(332,238,o),
(332,240,o),
(334,242,cs),
(335,244,o),
(336,246,o),
(338,247,cs),
(341,248,o),
(343,249,o),
(345,249,cs),
(349,249,o),
(352,248,o),
(354,245,cs),
(356,243,o),
(358,239,o),
(359,234,cs),
(382,167,l),
(404,230,ls),
(406,235,o),
(407,239,o),
(409,241,c),
(410,244,o),
(412,246,o),
(413,247,c),
(415,248,o),
(417,249,o),
(420,249,cs),
(422,249,o),
(424,248,o),
(425,247,cs),
(427,246,o),
(429,245,o),
(430,243,cs),
(431,241,o),
(431,239,o),
(431,237,c),
(431,237,l),
(430,231,l),
(430,231,l),
(428,224,l),
(392,132,ls),
(389,124,o),
(386,117,o),
(384,113,cs),
(381,108,o),
(377,104,o),
(372,102,cs),
(367,99,o),
(361,98,o),
(353,98,cs)
);
}
);
width = 512;
}
);
note = faucet;
unicode = 57392;
},
{
glyphname = "spark-ar";
lastChange = "2022-07-07 16:26:15 +0000";
layers = (
{
layerId = m01;
shapes = (
{
attr = {
fillColor = (0,255);
};
closed = 1;
nodes = (
(376,192,l),
(376,21,l),
(188,-64,l),
(0,21,l)
);
},
{
attr = {
fillColor = (0,255);
};
closed = 1;
nodes = (
(0,362,l),
(0,192,l),
(376,362,l),
(188,448,l)
);
},
{
attr = {
fillColor = (0,255);
};
closed = 1;
nodes = (
(175,113,l),
(363,197,l),
(201,270,l),
(13,186,l)
);
}
);
width = 376;
}
);
note = faucet;
unicode = 57393;
},
{
glyphname = tetrio;
lastChange = "2022-07-07 16:26:21 +0000";
layers = (
{
layerId = m01;
shapes = (
{
attr = {
fillColor = (0,255);
};
closed = 1;
nodes = (
(256,448,l),
(256,363,l),
(171,363,l),
(171,277,l),
(85,277,l),
(85,363,l),
(0,363,l),
(0,448,l)
);
},
{
attr = {
fillColor = (0,255);
};
closed = 1;
nodes = (
(85,269,l),
(171,269,l),
(171,-64,l),
(85,-64,l)
);
},
{
attr = {
fillColor = (0,255);
};
closed = 1;
nodes = (
(179,269,l),
(265,269,l),
(265,-64,l),
(179,-64,l)
);
},
{
attr = {
fillColor = (0,255);
};
closed = 1;
nodes = (
(273,269,l),
(350,269,l),
(350,346,l),
(512,346,l),
(512,98,l),
(435,98,l),
(435,21,l),
(273,21,l)
);
},
{
attr = {
fillColor = (0,255);
};
closed = 1;
nodes = (
(354,104,l),
(431,104,l),
(431,263,l),
(354,263,l)
);
}
);
width = 512;
}
);
note = faucet;
unicode = 57394;
},
{
glyphname = threema;
lastChange = "2022-07-07 16:26:44 +0000";
layers = (
{
layerId = m01;
shapes = (
{
attr = {
fillColor = (0,255);
};
closed = 1;
nodes = (
(375,11,o),
(392,-6,o),
(392,-26,c),
(392,-48,o),
(375,-64,o),
(355,-64,c),
(334,-64,o),
(318,-48,o),
(318,-26,c),
(318,-6,o),
(334,11,o),
(355,11,c)
);
},
{
attr = {
fillColor = (0,255);
};
closed = 1;
nodes = (
(106,11,o),
(122,-6,o),
(122,-26,c),
(122,-48,o),
(106,-64,o),
(85,-64,c),
(64,-64,o),
(48,-48,o),
(48,-26,c),
(47,-6,o),
(64,11,o),
(85,11,c)
);
},
{
attr = {
fillColor = (0,255);
};
closed = 1;
nodes = (
(240,11,o),
(257,-6,o),
(257,-26,c),
(257,-48,o),
(240,-64,o),
(220,-64,c),
(199,-64,o),
(183,-48,o),
(183,-26,c),
(182,-6,o),
(199,11,o),
(220,11,c)
);
},
{
attr = {
fillColor = (0,255);
};
closed = 1;
nodes = (
(342,448,o),
(439,361,o),
(439,254,c),
(439,146,o),
(342,60,o),
(220,60,c),
(186,60,o),
(153,67,o),
(123,80,c),
(14,53,l),
(37,146,l),
(14,177,o),
(0,214,o),
(0,254,c),
(0,361,o),
(98,448,o),
(220,448,c)
);
},
{
attr = {
fillColor = (0,255);
};
closed = 1;
nodes = (
(186,357,o),
(158,329,o),
(158,294,c),
(158,270,l),
(155,270,l),
(149,270,o),
(145,265,o),
(145,260,c),
(145,172,l),
(145,167,o),
(149,162,o),
(155,162,c),
(285,162,l),
(290,162,o),
(294,167,o),
(294,172,c),
(294,260,l),
(294,265,o),
(290,270,o),
(285,270,c),
(282,270,l),
(282,294,l),
(282,329,o),
(254,357,o),
(220,357,c)
);
},
{
attr = {
fillColor = (0,255);
};
closed = 1;
nodes = (
(240,332,o),
(257,316,o),
(257,294,c),
(257,270,l),
(182,270,l),
(182,294,l),
(182,316,o),
(199,332,o),
(220,332,c)
);
}
);
width = 439;
}
);
note = faucet;
unicode = 57395;
},
{
glyphname = tinyletter;
lastChange = "2022-07-07 16:27:00 +0000";
layers = (
{
layerId = m01;
shapes = (
{
attr = {
fillColor = (0,255);
};
closed = 1;
nodes = (
(304,356,l),
(309,363,o),
(310,372,o),
(310,380,c),
(310,398,o),
(303,416,o),
(290,429,c),
(277,440,o),
(260,448,o),
(242,448,c),
(223,448,o),
(207,440,o),
(194,427,c),
(192,427,l),
(190,429,l),
(177,440,o),
(161,448,o),
(143,448,c),
(125,448,o),
(108,440,o),
(95,427,c),
(75,409,o),
(70,380,o),
(80,356,c),
(42,356,l),
(19,356,o),
(0,337,o),
(0,315,c),
(0,74,l),
(0,50,o),
(19,31,o),
(42,31,c),
(139,31,l),
(266,-64,l),
(266,31,l),
(345,31,l),
(367,31,o),
(386,49,o),
(386,74,c),
(386,315,l),
(386,337,o),
(367,356,o),
(343,356,c)
);
},
{
attr = {
fillColor = (0,255);
};
closed = 1;
nodes = (
(122,416,o),
(133,421,o),
(144,421,c),
(154,421,o),
(165,416,o),
(172,409,c),
(194,387,l),
(215,409,l),
(222,416,o),
(233,421,o),
(244,421,c),
(255,421,o),
(266,416,o),
(273,409,c),
(280,401,o),
(285,391,o),
(285,380,c),
(285,368,o),
(280,359,o),
(273,352,c),
(194,288,l),
(115,352,l),
(99,368,o),
(99,393,o),
(115,409,c)
);
},
{
attr = {
fillColor = (0,255);
};
closed = 1;
nodes = (
(101,328,l),
(194,253,l),
(286,328,l),
(345,328,l),
(353,328,o),
(360,321,o),
(360,315,c),
(360,273,l),
(192,148,l),
(28,273,l),
(28,315,l),
(28,321,o),
(33,328,o),
(42,328,c)
);
},
{
attr = {
fillColor = (0,255);
};
closed = 1;
nodes = (
(357,144,l),
(295,191,l),
(357,239,l)
);
},
{
attr = {
fillColor = (0,255);
};
closed = 1;
nodes = (
(28,144,l),
(28,239,l),
(90,191,l)
);
},
{
attr = {
fillColor = (0,255);
};
closed = 1;
nodes = (
(239,59,l),
(239,-9,l),
(149,59,l),
(42,59,l),
(34,59,o),
(28,66,o),
(28,74,c),
(28,109,l),
(114,174,l),
(192,113,l),
(272,174,l),
(357,109,l),
(357,74,l),
(357,66,o),
(351,59,o),
(343,59,c)
);
}
);
width = 386;
}
);
note = faucet;
unicode = 57396;
},
{
glyphname = toss;
lastChange = "2022-07-07 16:27:06 +0000";
layers = (
{
layerId = m01;
shapes = (
{
attr = {
fillColor = (0,255);
};
closed = 1;
nodes = (
(512,135,o),
(489,81,o),
(449,40,c),
(409,0,o),
(354,-23,o),
(297,-23,c),
(211,-23,o),
(136,28,o),
(102,101,c),
(66,91,o),
(31,75,o),
(0,54,c),
(11,114,o),
(33,185,o),
(69,250,c),
(113,331,o),
(181,400,o),
(282,406,c),
(295,407,o),
(308,407,o),
(320,406,c),
(428,395,o),
(512,303,o),
(512,192,c),
(512,192,l)
);
}
);
width = 512;
}
);
note = faucet;
unicode = 57397;
},
{
glyphname = venmo;
lastChange = "2022-07-07 16:27:23 +0000";
layers = (
{
layerId = m01;
shapes = (
{
attr = {
fillColor = (0,255);
};
closed = 1;
nodes = (
(472,417,o),
(480,385,o),
(480,346,c),
(480,218,o),
(371,52,o),
(283,-64,c),
(81,-64,l),
(0,420,l),
(177,437,l),
(219,93,l),
(260,157,o),
(308,260,o),
(308,330,c),
(308,368,o),
(302,394,o),
(293,415,c),
(453,448,l)
);
}
);
width = 480;
}
);
note = faucet;
unicode = 57398;
},
{
glyphname = vero;
lastChange = "2022-07-07 16:27:31 +0000";
layers = (
{
layerId = m01;
shapes = (
{
attr = {
fillColor = (0,255);
};
closed = 1;
nodes = (
(0,411,l),
(369,411,l),
(213,141,l),
(256,65,l),
(455,412,l),
(512,412,l),
(256,-28,l)
);
}
);
width = 512;
}
);
note = faucet;
unicode = 57399;
},
{
glyphname = wattpad;
lastChange = "2022-07-07 16:28:39 +0000";
layers = (
{
layerId = m01;
shapes = (
{
attr = {
fillColor = (0,255);
};
closed = 1;
nodes = (
(142,20,o),
(154,30,o),
(163,44,cs),
(175,62,o),
(186,82,o),
(195,102,cs),
(206,128,o),
(219,154,o),
(233,178,c),
(234,180,o),
(235,181,o),
(236,183,c),
(237,182,l),
(237,181,o),
(237,180,o),
(237,179,cs),
(238,133,l),
(240,113,o),
(246,95,o),
(258,80,cs),
(268,66,o),
(284,56,o),
(302,54,cs),
(319,52,o),
(337,57,o),
(350,69,cs),
(362,78,o),
(372,91,o),
(379,105,cs),
(395,137,o),
(411,169,o),
(428,201,cs),
(448,237,o),
(470,272,o),
(494,306,cs),
(499,313,o),
(503,321,o),
(506,330,cs),
(511,351,o),
(501,368,o),
(479,371,cs),
(468,372,o),
(456,370,o),
(445,364,cs),
(430,356,o),
(416,346,o),
(404,335,cs),
(380,314,o),
(359,290,o),
(341,265,cs),
(338,262,l),
(338,265,ls),
(341,283,o),
(341,301,o),
(339,319,c),
(338,332,o),
(334,346,o),
(328,357,cs),
(319,373,o),
(303,383,o),
(285,383,cs),
(269,384,o),
(253,379,o),
(239,370,cs),
(222,358,o),
(206,343,o),
(192,326,cs),
(170,299,o),
(150,271,o),
(132,241,cs),
(130,237,l),
(129,238,o),
(129,239,o),
(130,240,cs),
(132,276,ls),
(134,293,o),
(132,311,o),
(129,328,cs),
(126,342,o),
(118,354,o),
(106,361,cs),
(81,376,o),
(50,371,o),
(31,350,cs),
(23,340,o),
(17,329,o),
(13,317,cs),
(5,292,o),
(1,266,o),
(1,239,cs),
(-1,212,o),
(0,184,o),
(2,157,cs),
(4,133,o),
(9,109,o),
(16,86,cs),
(22,66,o),
(32,47,o),
(45,31,cs),
(66,8,o),
(99,0,o),
(128,13,c)
);
}
);
width = 507;
}
);
note = faucet;
unicode = 57400;
},
{
glyphname = well;
lastChange = "2022-07-07 16:29:01 +0000";
layers = (
{
layerId = m01;
shapes = (
{
attr = {
fillColor = (0,255);
};
closed = 1;
nodes = (
(409,371,o),
(399,358,o),
(398,349,c),
(398,343,o),
(399,342,o),
(404,344,c),
(412,348,o),
(426,347,o),
(431,341,c),
(443,329,o),
(433,295,o),
(406,252,c),
(389,226,o),
(334,150,o),
(332,151,c),
(330,154,o),
(363,277,o),
(368,284,c),
(385,307,o),
(376,324,o),
(348,324,c),
(334,324,o),
(330,323,o),
(321,315,c),
(314,309,o),
(308,300,o),
(306,293,c),
(304,285,o),
(296,273,o),
(285,261,c),
(275,250,o),
(255,227,o),
(242,210,c),
(229,193,o),
(217,179,o),
(217,179,c),
(216,177,o),
(227,232,o),
(231,247,c),
(241,285,o),
(244,291,o),
(249,291,c),
(257,291,o),
(267,300,o),
(269,310,c),
(271,316,o),
(269,320,o),
(262,327,c),
(254,335,o),
(250,336,o),
(239,336,c),
(232,336,o),
(221,334,o),
(215,332,c),
(206,329,o),
(198,328,o),
(180,331,c),
(105,341,o),
(38,314,o),
(10,263,c),
(-14,218,o),
(6,169,o),
(49,169,c),
(75,169,o),
(92,184,o),
(96,212,c),
(98,227,o),
(92,235,o),
(86,226,c),
(85,224,o),
(80,221,o),
(76,219,c),
(68,217,o),
(54,229,o),
(54,240,c),
(54,251,o),
(65,270,o),
(77,281,c),
(97,299,o),
(113,304,o),
(145,304,c),
(161,304,o),
(178,303,o),
(183,302,c),
(191,300,o),
(191,300,o),
(187,289,c),
(180,273,o),
(172,241,o),
(158,173,c),
(146,115,o),
(141,99,o),
(125,62,c),
(116,40,o),
(112,10,o),
(118,3,c),
(120,0,o),
(126,-2,o),
(132,-2,c),
(153,-2,o),
(172,26,o),
(189,80,c),
(194,97,o),
(202,113,o),
(211,125,c),
(229,150,o),
(276,208,o),
(287,218,c),
(295,225,l),
(293,218,l),
(293,213,o),
(290,202,o),
(289,192,c),
(279,140,o),
(263,82,o),
(255,70,c),
(245,53,o),
(239,33,o),
(240,19,c),
(241,10,o),
(242,9,o),
(254,8,c),
(277,6,o),
(292,21,o),
(306,58,c),
(315,84,o),
(333,109,o),
(387,173,c),
(472,276,o),
(498,329,o),
(477,362,c),
(466,380,o),
(440,387,o),
(421,377,c)
);
}
);
width = 484;
}
);
note = faucet;
unicode = 57401;
},
{
glyphname = writeas;
lastChange = "2022-07-07 16:44:17 +0000";
layers = (
{
layerId = m01;
shapes = (
{
attr = {
fillColor = (0,255);
};
closed = 1;
nodes = (
(438,141,o),
(417,120,o),
(417,93,c),
(417,67,o),
(438,46,o),
(464,46,c),
(491,46,o),
(512,67,o),
(512,93,c),
(512,120,o),
(491,141,o),
(464,141,c)
);
},
{
attr = {
fillColor = (0,255);
};
closed = 1;
nodes = (
(210,338,l),
(168,193,l),
(166,185,o),
(164,179,o),
(162,173,c),
(161,167,o),
(160,162,o),
(158,157,c),
(157,151,o),
(156,147,o),
(155,142,c),
(154,138,o),
(153,134,o),
(153,130,c),
(152,130,l),
(151,139,o),
(149,149,o),
(147,158,c),
(145,168,o),
(142,176,o),
(140,185,c),
(121,256,l),
(119,260,o),
(118,263,o),
(118,267,c),
(117,271,o),
(117,274,o),
(117,277,c),
(117,284,o),
(119,290,o),
(122,294,c),
(125,298,o),
(131,301,o),
(139,301,c),
(139,338,l),
(0,338,l),
(0,294,l),
(23,295,l),
(23,292,o),
(24,289,o),
(25,286,c),
(25,284,o),
(26,281,o),
(27,277,c),
(28,274,o),
(29,270,o),
(31,266,c),
(32,261,o),
(34,255,o),
(37,248,c),
(107,46,l),
(165,46,l),
(197,142,l),
(198,145,o),
(200,151,o),
(202,158,c),
(205,166,o),
(207,175,o),
(210,184,c),
(213,194,o),
(215,204,o),
(218,214,c),
(220,224,o),
(222,233,o),
(223,241,c),
(224,241,l),
(226,235,o),
(228,229,o),
(230,222,c),
(231,215,o),
(233,208,o),
(235,201,c),
(237,195,o),
(239,189,o),
(240,183,c),
(242,178,o),
(244,173,o),
(245,170,c),
(285,46,l),
(346,46,l),
(412,238,l),
(414,242,o),
(416,247,o),
(418,254,c),
(421,261,o),
(425,268,o),
(429,275,c),
(433,282,o),
(438,288,o),
(444,294,c),
(450,299,o),
(457,301,o),
(464,301,c),
(464,338,l),
(354,338,l),
(354,294,l),
(388,296,l),
(388,296,l),
(386,293,o),
(384,289,o),
(383,286,c),
(382,283,o),
(380,280,o),
(379,276,c),
(378,272,o),
(376,269,o),
(375,264,c),
(373,260,o),
(372,255,o),
(370,250,c),
(348,176,l),
(346,169,o),
(343,161,o),
(340,151,c),
(338,142,o),
(336,134,o),
(335,126,c),
(334,126,l),
(332,134,o),
(330,142,o),
(327,152,c),
(324,161,o),
(322,170,o),
(320,178,c),
(273,338,l)
);
}
);
width = 512;
}
);
note = faucet;
unicode = 57408;
},
{
glyphname = xmpp;
lastChange = "2022-07-07 16:29:16 +0000";
layers = (
{
layerId = m01;
shapes = (
{
attr = {
fillColor = (0,255);
};
closed = 1;
nodes = (
(512,440,l),
(509,320,o),
(410,195,o),
(290,126,c),
(318,104,o),
(349,88,o),
(383,79,c),
(383,77,l),
(383,77,o),
(383,77,o),
(383,77,c),
(383,72,l),
(347,75,o),
(313,84,o),
(281,99,c),
(274,102,o),
(266,105,o),
(259,109,c),
(251,105,o),
(244,102,o),
(236,99,c),
(205,84,o),
(171,75,o),
(134,72,c),
(134,77,l),
(134,77,o),
(134,77,o),
(134,77,c),
(134,79,l),
(168,88,o),
(199,104,o),
(227,126,c),
(108,195,o),
(8,320,o),
(5,440,c),
(77,412,l),
(99,405,l),
(164,385,l),
(164,385,l),
(164,382,o),
(163,378,o),
(163,374,c),
(163,303,o),
(199,217,o),
(259,155,c),
(318,217,o),
(354,303,o),
(354,374,c),
(354,378,o),
(354,382,o),
(354,385,c),
(354,385,l),
(419,405,l),
(440,412,l)
);
},
{
attr = {
fillColor = (0,255);
};
closed = 1;
nodes = (
(3,29,l),
(37,29,l),
(63,-1,l),
(90,29,l),
(123,29,l),
(84,-14,l),
(126,-56,l),
(91,-56,l),
(63,-25,l),
(35,-56,l),
(0,-56,l),
(42,-14,l)
);
},
{
attr = {
fillColor = (0,255);
};
closed = 1;
nodes = (
(136,29,l),
(176,29,l),
(205,-26,l),
(235,29,l),
(275,29,l),
(275,-56,l),
(250,-56,l),
(250,5,l),
(249,5,l),
(215,-56,l),
(196,-56,l),
(161,5,l),
(161,5,l),
(161,-56,l),
(136,-56,l),
(136,29,l)
);
},
{
attr = {
fillColor = (0,255);
};
closed = 1;
nodes = (
(293,29,l),
(364,29,l),
(389,29,o),
(395,16,o),
(395,0,c),
(395,-8,l),
(395,-20,o),
(389,-35,o),
(371,-35,c),
(319,-35,l),
(319,-56,l),
(293,-56,l)
);
},
{
attr = {
fillColor = (0,255);
};
closed = 1;
nodes = (
(319,-14,l),
(359,-14,l),
(365,-14,o),
(368,-10,o),
(368,-5,c),
(368,-1,l),
(368,4,o),
(365,8,o),
(357,8,c),
(319,8,l)
);
},
{
attr = {
fillColor = (0,255);
};
closed = 1;
nodes = (
(409,29,l),
(480,29,l),
(505,29,o),
(511,16,o),
(511,0,c),
(511,-8,l),
(511,-20,o),
(505,-35,o),
(487,-35,c),
(435,-35,l),
(435,-56,l),
(409,-56,l)
);
},
{
attr = {
fillColor = (0,255);
};
closed = 1;
nodes = (
(435,-14,l),
(475,-14,l),
(481,-14,o),
(484,-10,o),
(484,-5,c),
(484,-1,l),
(484,4,o),
(481,8,o),
(473,8,c),
(435,8,l)
);
}
);
width = 512;
}
);
note = faucet;
unicode = 57409;
},
{
glyphname = prami;
lastChange = "2023-11-08 15:41:04 +0000";
layers = (
{
layerId = m01;
shapes = (
{
attr = {
fillColor = (0,255);
};
closed = 1;
nodes = (
(217,-20,o),
(177,-5,o),
(147,25,c),
(45,127,l),
(-15,187,o),
(-15,284,o),
(45,344,c),
(103,402,o),
(196,404,o),
(256,350,c),
(316,404,o),
(409,402,o),
(467,344,c),
(527,284,o),
(527,187,o),
(467,127,c),
(365,25,l),
(335,-5,o),
(295,-20,o),
(256,-20,c)
);
},
{
attr = {
fillColor = (0,255);
};
closed = 1;
nodes = (
(304,282,o),
(290,268,o),
(290,250,c),
(290,232,o),
(304,218,o),
(322,218,c),
(339,218,o),
(354,232,o),
(354,250,c),
(354,268,o),
(339,282,o),
(322,282,c)
);
},
{
attr = {
fillColor = (0,255);
};
closed = 1;
nodes = (
(173,282,o),
(158,268,o),
(158,250,c),
(158,232,o),
(173,218,o),
(190,218,c),
(208,218,o),
(222,232,o),
(222,250,c),
(222,268,o),
(208,282,o),
(190,282,c)
);
},
{
attr = {
fillColor = (0,255);
};
closed = 1;
nodes = (
(190,190,o),
(178,189,o),
(172,182,c),
(165,175,o),
(165,163,o),
(172,157,c),
(172,157,o),
(172,158,o),
(172,157,c),
(172,157,o),
(180,145,o),
(186,139,c),
(193,133,o),
(200,128,o),
(208,124,c),
(222,116,o),
(240,112,o),
(256,112,c),
(272,112,o),
(290,116,o),
(304,124,c),
(319,132,o),
(333,145,o),
(343,160,c),
(348,169,o),
(345,180,o),
(337,185,c),
(328,190,o),
(317,188,o),
(312,179,c),
(306,168,o),
(298,161,o),
(287,155,c),
(277,150,o),
(268,148,o),
(256,148,c),
(244,148,o),
(235,150,o),
(225,155,c),
(219,158,o),
(215,161,o),
(211,165,c),
(207,169,o),
(197,183,o),
(197,183,c),
(198,182,o),
(197,183,o),
(197,183,c)
);
}
);
width = 512;
}
);
note = faucet;
unicode = 57410;
},
{
glyphname = ninegag;
lastChange = "2022-07-07 16:29:56 +0000";
layers = (
{
layerId = m01;
shapes = (
{
attr = {
fillColor = (0,255);
};
closed = 1;
nodes = (
(253,259,o),
(284,276,o),
(314,294,c),
(223,346,l),
(193,329,o),
(163,311,o),
(132,294,c),
(163,276,o),
(193,259,o),
(223,242,c)
);
},
{
closed = 1;
nodes = (
(223,448,l),
(298,405,o),
(372,363,o),
(446,320,c),
(446,64,l),
(372,21,o),
(298,-21,o),
(223,-64,c),
(149,-21,o),
(74,21,o),
(0,65,c),
(30,81,o),
(59,98,o),
(89,115,c),
(133,89,o),
(179,64,o),
(223,38,c),
(268,64,o),
(314,89,o),
(358,115,c),
(357,149,o),
(358,184,o),
(357,218,c),
(313,192,o),
(268,166,o),
(223,141,c),
(149,182,o),
(75,225,o),
(1,268,c),
(1,320,l)
);
}
);
width = 446;
}
);
note = faucet;
unicode = 57411;
},
{
glyphname = anilist;
lastChange = "2022-07-07 16:30:03 +0000";
layers = (
{
layerId = m01;
shapes = (
{
attr = {
fillColor = (0,255);
};
closed = 1;
nodes = (
(489,98,l),
(504,98,o),
(512,89,o),
(512,74,c),
(512,22,l),
(512,7,o),
(504,-1,o),
(489,-1,c),
(489,-1,o),
(427,-1,o),
(371,-1,c),
(266,-1,l),
(243,66,l),
(128,66,l),
(105,-1,l),
(0,-1,l),
(136,385,l),
(235,385,l),
(252,339,l),
(252,353,o),
(252,362,o),
(252,362,c),
(252,377,o),
(260,385,o),
(275,385,c),
(327,385,l),
(342,385,o),
(350,377,o),
(350,362,c),
(350,98,l)
);
},
{
attr = {
fillColor = (0,255);
};
closed = 1;
nodes = (
(221,151,l),
(185,258,l),
(152,151,l)
);
}
);
width = 512;
}
);
note = faucet;
unicode = 57412;
},
{
glyphname = archiveofourown;
lastChange = "2022-07-07 16:30:12 +0000";
layers = (
{
layerId = m01;
shapes = (
{
attr = {
fillColor = (0,255);
};
closed = 1;
nodes = (
(377,206,o),
(353,193,o),
(328,190,c),
(239,180,o),
(199,277,o),
(255,333,c),
(304,382,o),
(404,352,o),
(402,271,c),
(402,258,o),
(399,242,o),
(391,229,c),
(391,229,l)
);
},
{
attr = {
fillColor = (0,255);
};
closed = 1;
nodes = (
(256,196,o),
(355,194,o),
(374,250,c),
(391,299,o),
(350,339,o),
(305,333,c),
(274,328,o),
(253,303,o),
(253,272,c)
);
},
{
attr = {
fillColor = (0,255);
};
closed = 1;
nodes = (
(496,315,o),
(504,322,o),
(507,317,c),
(512,312,o),
(498,307,o),
(491,303,c),
(472,290,o),
(455,277,o),
(439,260,c),
(418,237,o),
(398,209,o),
(385,179,c),
(398,179,o),
(449,175,o),
(461,147,c),
(471,124,o),
(453,101,o),
(433,91,c),
(447,82,o),
(471,70,o),
(469,51,c),
(466,2,o),
(391,4,o),
(359,37,c),
(355,43,o),
(352,47,o),
(355,50,c),
(358,53,o),
(361,45,o),
(369,40,c),
(374,37,o),
(377,35,o),
(382,32,c),
(409,18,o),
(452,24,o),
(455,50,c),
(456,61,o),
(441,70,o),
(429,75,c),
(418,80,o),
(398,83,o),
(398,96,c),
(398,107,o),
(409,105,o),
(420,110,c),
(431,115,o),
(441,129,o),
(441,134,c),
(441,153,o),
(398,153,o),
(372,153,c),
(366,140,o),
(363,128,o),
(358,107,c),
(355,94,o),
(355,67,o),
(342,64,c),
(326,61,o),
(321,74,o),
(312,85,c),
(299,99,o),
(282,120,o),
(270,132,c),
(207,112,o),
(156,88,o),
(96,53,c),
(67,37,o),
(51,20,o),
(41,24,c),
(34,29,o),
(34,37,o),
(38,43,c),
(46,55,o),
(57,69,o),
(68,83,c),
(81,101,o),
(91,118,o),
(97,136,c),
(111,172,o),
(123,236,o),
(129,260,c),
(131,268,o),
(135,268,o),
(135,263,c),
(135,253,o),
(131,220,o),
(129,212,c),
(119,153,o),
(113,118,o),
(86,77,c),
(132,105,o),
(188,140,o),
(247,161,c),
(188,228,o),
(124,295,o),
(35,336,c),
(22,342,o),
(0,344,o),
(0,350,c),
(0,357,o),
(16,352,o),
(22,350,c),
(73,338,o),
(124,304,o),
(162,277,c),
(208,244,o),
(262,193,o),
(283,169,c),
(297,174,o),
(331,179,o),
(361,180,c),
(377,214,o),
(415,266,o),
(463,296,c),
(471,301,o),
(480,307,o),
(490,312,c),
(490,312,l)
);
},
{
attr = {
fillColor = (0,255);
};
closed = 1;
nodes = (
(318,131,o),
(324,121,o),
(332,110,c),
(336,123,o),
(340,136,o),
(347,147,c),
(332,147,o),
(318,144,o),
(309,140,c),
(309,140,l)
);
}
);
width = 508;
}
);
note = faucet;
unicode = 57413;
},
{
glyphname = "basic-attention-token";
lastChange = "2022-07-07 16:30:18 +0000";
layers = (
{
layerId = m01;
shapes = (
{
attr = {
fillColor = (0,255);
};
closed = 1;
nodes = (
(257,412,l),
(512,-27,l),
(0,-28,l)
);
},
{
attr = {
fillColor = (0,255);
};
closed = 1;
nodes = (
(256,234,l),
(151,58,l),
(362,58,l)
);
}
);
width = 512;
}
);
note = faucet;
unicode = 57414;
},
{
glyphname = bookshop;
lastChange = "2022-07-07 16:30:24 +0000";
layers = (
{
layerId = m01;
shapes = (
{
attr = {
fillColor = (0,255);
};
closed = 1;
nodes = (
(359,-10,l),
(385,-10,l),
(388,-10,ls),
(398,-10,o),
(407,-9,o),
(416,-8,cs),
(422,-7,o),
(429,-6,o),
(435,-4,cs),
(442,-2,o),
(449,2,o),
(455,6,c),
(466,11,o),
(475,19,o),
(483,27,cs),
(498,43,o),
(508,62,o),
(511,84,cs),
(511,88,o),
(512,93,o),
(512,98,cs),
(512,103,o),
(511,108,o),
(511,112,c),
(506,141,o),
(491,166,o),
(468,182,cs),
(455,192,l),
(468,201,ls),
(491,217,o),
(507,242,o),
(511,271,c),
(511,276,o),
(512,280,o),
(512,285,cs),
(512,290,o),
(511,295,o),
(511,300,c),
(508,321,o),
(498,341,o),
(483,356,cs),
(475,365,o),
(466,372,o),
(455,378,cs),
(449,382,o),
(442,385,o),
(434,387,cs),
(415,392,o),
(396,394,o),
(376,394,cs),
(5,393,ls),
(2,393,o),
(0,391,o),
(0,388,cs),
(0,373,ls),
(0,370,o),
(2,368,o),
(5,368,cs),
(8,368,l),
(11,367,o),
(14,367,o),
(17,367,cs),
(24,367,o),
(32,366,o),
(39,365,c),
(41,364,o),
(44,363,o),
(47,361,cs),
(50,358,o),
(52,354,o),
(53,349,cs),
(54,340,o),
(54,332,o),
(54,324,cs),
(54,252,l),
(54,237,l),
(54,237,l),
(54,224,ls),
(54,218,o),
(53,212,o),
(49,208,c),
(45,206,o),
(40,205,o),
(35,205,cs),
(34,205,ls),
(30,205,o),
(26,205,o),
(23,205,cs),
(8,205,l),
(4,205,l),
(3,204,o),
(2,204,o),
(1,202,cs),
(0,201,o),
(0,200,o),
(0,198,cs),
(0,183,ls),
(0,180,o),
(2,178,o),
(5,178,cs),
(8,178,l),
(21,178,l),
(40,178,ls),
(45,178,o),
(50,177,o),
(52,171,c),
(53,170,o),
(53,168,o),
(53,166,cs),
(53,165,ls),
(53,160,o),
(54,155,o),
(54,150,cs),
(54,137,l),
(54,89,l),
(54,79,ls),
(54,68,o),
(54,58,o),
(53,47,cs),
(53,40,o),
(50,32,o),
(45,26,c),
(39,22,o),
(32,19,o),
(25,19,cs),
(11,19,ls),
(9,19,o),
(7,19,o),
(4,18,cs),
(3,18,ls),
(0,18,o),
(0,16,o),
(0,15,c),
(0,15,l),
(0,12,l),
(0,-5,ls),
(0,-6,o),
(0,-7,o),
(1,-8,cs),
(3,-10,o),
(5,-10,o),
(7,-10,cs)
);
},
{
attr = {
fillColor = (0,255);
};
closed = 1;
nodes = (
(96,19,o),
(90,21,o),
(86,25,cs),
(82,30,o),
(79,36,o),
(79,42,cs),
(79,166,ls),
(79,172,o),
(84,177,o),
(91,177,cs),
(199,177,l),
(283,177,l),
(369,177,l),
(388,179,o),
(407,177,o),
(425,172,cs),
(441,168,o),
(455,159,o),
(466,146,cs),
(477,133,o),
(484,116,o),
(485,98,cs),
(484,81,o),
(477,64,o),
(466,50,cs),
(459,42,o),
(451,35,o),
(442,30,cs),
(435,26,ls),
(414,17,o),
(391,18,o),
(369,18,cs),
(102,18,l)
);
},
{
attr = {
fillColor = (0,255);
};
closed = 1;
nodes = (
(85,206,o),
(79,211,o),
(79,218,cs),
(79,294,l),
(79,349,ls),
(79,358,o),
(86,364,o),
(94,364,cs),
(228,364,l),
(263,364,l),
(264,364,ls),
(282,364,o),
(303,364,o),
(323,364,cs),
(352,364,ls),
(364,364,o),
(376,365,o),
(388,364,cs),
(407,364,o),
(430,362,o),
(447,350,cs),
(464,339,o),
(476,323,o),
(482,304,cs),
(484,298,o),
(485,292,o),
(485,285,cs),
(484,267,o),
(477,251,o),
(466,237,cs),
(459,230,o),
(452,223,o),
(443,218,cs),
(423,206,o),
(398,206,o),
(380,206,cs),
(216,206,l),
(91,206,ls)
);
}
);
width = 512;
}
);
note = faucet;
unicode = 57415;
},
{
glyphname = buymeacoffee;
lastChange = "2023-04-30 14:34:06 +0000";
layers = (
{
layerId = m01;
shapes = (
{
attr = {
fillColor = (0,255);
};
closed = 1;
nodes = (
(249,-26,l),
(250,-26,o),
(250,-26,o),
(250,-26,c),
(250,-26,o),
(250,-26,o),
(250,-26,c)
);
},
{
attr = {
fillColor = (0,255);
};
closed = 1;
nodes = (
(325,225,o),
(335,223,o),
(344,220,c),
(323,8,l),
(323,1,o),
(319,-7,o),
(314,-13,c),
(307,-19,o),
(300,-21,o),
(291,-21,c),
(291,-21,o),
(264,-23,o),
(254,-23,c),
(245,-23,o),
(219,-21,o),
(219,-21,c),
(210,-21,o),
(203,-19,o),
(196,-13,c),
(190,-7,o),
(188,1,o),
(187,8,c),
(168,199,l),
(180,196,o),
(190,196,o),
(202,196,c),
(229,196,o),
(249,204,o),
(267,212,c),
(284,219,o),
(297,225,o),
(316,225,c)
);
},
{
attr = {
fillColor = (0,255);
};
closed = 1;
nodes = (
(415,267,o),
(407,264,o),
(399,263,c),
(398,263,o),
(395,262,o),
(393,260,c),
(392,257,o),
(391,256,o),
(391,254,c),
(386,210,l),
(376,112,l),
(373,83,o),
(370,53,o),
(367,23,c),
(366,14,o),
(365,6,o),
(364,-3,c),
(361,-34,o),
(339,-55,o),
(309,-60,c),
(289,-64,o),
(268,-63,o),
(247,-63,c),
(230,-62,o),
(215,-61,o),
(199,-60,c),
(172,-55,o),
(150,-39,o),
(147,-11,c),
(146,-6,o),
(146,0,o),
(145,5,c),
(143,32,o),
(139,60,o),
(137,87,c),
(128,183,l),
(122,229,l),
(122,238,o),
(129,244,o),
(137,244,c),
(145,244,o),
(150,237,o),
(150,229,c),
(150,229,o),
(151,227,o),
(151,227,c),
(157,163,l),
(168,67,l),
(170,49,o),
(171,32,o),
(173,14,c),
(175,1,o),
(176,-14,o),
(186,-24,c),
(197,-35,o),
(216,-36,o),
(230,-36,c),
(245,-36,o),
(259,-37,o),
(272,-37,c),
(285,-37,o),
(297,-35,o),
(311,-32,c),
(323,-29,o),
(332,-20,o),
(335,-7,c),
(337,2,o),
(337,11,o),
(339,19,c),
(339,28,o),
(339,37,o),
(340,45,c),
(344,78,o),
(347,108,o),
(351,140,c),
(353,170,o),
(356,200,o),
(359,229,c),
(361,244,l),
(361,246,o),
(361,248,o),
(360,250,c),
(359,250,o),
(358,252,o),
(358,253,c),
(357,254,o),
(356,255,o),
(354,256,c),
(352,256,o),
(352,256,o),
(350,256,c),
(345,256,o),
(339,255,o),
(335,254,c),
(275,249,o),
(213,250,o),
(154,257,c),
(139,259,o),
(123,262,o),
(109,263,c),
(93,267,o),
(81,279,o),
(79,296,c),
(79,304,o),
(81,311,o),
(82,318,c),
(83,325,o),
(84,332,o),
(87,339,c),
(91,346,o),
(96,351,o),
(102,355,c),
(110,359,o),
(117,359,o),
(126,358,c),
(133,357,o),
(139,355,o),
(146,355,c),
(149,354,o),
(150,354,o),
(153,354,c),
(154,354,o),
(158,353,o),
(156,354,c),
(159,353,o),
(163,353,o),
(165,352,c),
(196,348,o),
(225,347,o),
(255,347,c),
(264,347,o),
(271,347,o),
(278,347,c),
(293,347,o),
(308,348,o),
(323,349,c),
(331,350,o),
(338,351,o),
(345,352,c),
(349,352,o),
(352,353,o),
(356,354,c),
(358,354,l),
(358,354,l),
(358,354,l),
(359,354,o),
(360,354,o),
(361,354,c),
(362,354,o),
(362,355,o),
(363,355,c),
(363,356,o),
(364,357,o),
(364,358,c),
(364,358,o),
(364,359,o),
(364,359,c),
(361,369,o),
(358,378,o),
(357,387,c),
(357,387,o),
(357,387,o),
(357,388,c),
(356,391,l),
(356,394,o),
(355,397,o),
(354,399,c),
(350,410,o),
(339,410,o),
(331,412,c),
(325,413,o),
(320,414,o),
(314,414,c),
(312,415,l),
(311,415,o),
(311,415,o),
(310,415,c),
(306,416,o),
(305,416,o),
(302,417,c),
(290,417,o),
(278,418,o),
(266,419,c),
(243,419,o),
(218,419,o),
(194,416,c),
(190,416,o),
(188,415,o),
(185,415,c),
(185,415,l),
(183,414,o),
(182,414,o),
(180,414,c),
(176,414,o),
(171,413,o),
(168,412,c),
(168,412,l),
(167,412,o),
(166,412,o),
(166,412,c),
(165,411,o),
(165,411,o),
(165,410,c),
(165,409,o),
(165,408,o),
(166,408,c),
(166,407,o),
(167,407,o),
(168,407,c),
(172,405,o),
(177,405,o),
(183,405,c),
(185,405,l),
(185,405,l),
(188,405,l),
(190,404,o),
(193,404,o),
(196,403,c),
(202,403,o),
(207,402,o),
(213,401,c),
(225,400,o),
(237,400,o),
(250,400,c),
(263,400,o),
(275,400,o),
(289,402,c),
(294,402,o),
(299,403,o),
(305,404,c),
(307,404,o),
(311,405,o),
(313,405,c),
(314,405,l),
(315,405,o),
(316,405,o),
(318,405,c),
(325,405,o),
(332,403,o),
(335,394,c),
(338,388,o),
(332,378,o),
(325,377,c),
(318,376,o),
(312,375,o),
(306,374,c),
(280,372,o),
(254,372,o),
(229,372,c),
(205,372,o),
(181,375,o),
(158,380,c),
(150,381,o),
(143,384,o),
(134,388,c),
(129,390,o),
(122,394,o),
(120,399,c),
(116,408,o),
(117,418,o),
(123,424,c),
(129,430,o),
(136,432,o),
(143,434,c),
(162,441,o),
(181,444,o),
(201,446,c),
(227,447,o),
(254,448,o),
(280,447,c),
(301,446,o),
(323,444,o),
(345,439,c),
(350,437,o),
(354,435,o),
(358,434,c),
(366,431,o),
(375,425,o),
(380,417,c),
(382,412,o),
(384,404,o),
(385,397,c),
(386,388,o),
(387,380,o),
(389,372,c),
(389,368,o),
(391,363,o),
(393,359,c),
(398,357,o),
(402,356,o),
(406,355,c),
(419,350,o),
(425,338,o),
(427,325,c),
(431,311,l),
(433,297,o),
(432,284,o),
(422,273,c)
);
},
{
attr = {
fillColor = (0,255);
};
closed = 1;
nodes = (
(108,302,o),
(108,301,o),
(108,300,c),
(108,301,o),
(108,302,o),
(108,302,c)
);
},
{
attr = {
fillColor = (0,255);
};
closed = 1;
nodes = (
(109,296,l),
(109,296,o),
(109,296,o),
(109,295,c),
(109,296,o),
(109,296,o),
(109,296,c)
);
},
{
attr = {
fillColor = (0,255);
};
closed = 1;
nodes = (
(110,293,o),
(110,294,o),
(110,295,c)
);
},
{
attr = {
fillColor = (0,255);
};
closed = 1;
nodes = (
(111,293,l),
(111,293,o),
(111,293,o),
(111,292,c),
(111,293,o),
(111,293,o),
(111,293,c)
);
},
{
attr = {
fillColor = (0,255);
};
closed = 1;
nodes = (
(398,296,l),
(400,296,o),
(402,299,o),
(402,303,c),
(403,309,o),
(403,317,o),
(399,324,c),
(393,331,o),
(385,330,o),
(375,328,c),
(366,325,o),
(357,324,o),
(347,323,c),
(294,316,o),
(241,315,o),
(188,320,c),
(176,321,o),
(163,323,o),
(151,324,c),
(141,326,o),
(129,331,o),
(119,330,c),
(112,329,o),
(110,321,o),
(109,316,c),
(108,310,o),
(105,299,o),
(110,295,c),
(113,291,o),
(116,290,o),
(121,290,c),
(156,285,o),
(194,281,o),
(230,279,c),
(283,279,o),
(335,282,o),
(386,290,c),
(391,290,o),
(396,291,o),
(398,296,c)
);
}
);
width = 512;
}
);
note = faucet;
unicode = 57416;
},
{
glyphname = "cash-app";
lastChange = "2022-07-07 16:30:53 +0000";
layers = (
{
layerId = m01;
shapes = (
{
attr = {
fillColor = (0,255);
};
closed = 1;
nodes = (
(334,448,l),
(385,448,o),
(411,448,o),
(439,439,c),
(469,428,o),
(493,404,o),
(504,374,c),
(512,346,o),
(512,321,o),
(512,270,c),
(512,115,l),
(512,63,o),
(512,37,o),
(504,10,c),
(493,-20,o),
(469,-44,o),
(439,-55,c),
(411,-64,o),
(385,-64,o),
(334,-64,c),
(179,-64,l),
(127,-64,o),
(102,-64,o),
(74,-55,c),
(44,-44,o),
(20,-20,o),
(9,10,c),
(0,38,o),
(0,63,o),
(0,114,c),
(0,270,l),
(0,321,o),
(0,347,o),
(9,374,c),
(20,404,o),
(44,428,o),
(74,439,c),
(102,448,o),
(128,448,o),
(179,448,c)
);
},
{
attr = {
fillColor = (0,255);
};
closed = 1;
nodes = (
(340,258,l),
(344,254,o),
(351,254,o),
(354,258,c),
(374,278,l),
(379,282,o),
(378,290,o),
(374,294,c),
(358,308,o),
(340,318,o),
(320,325,c),
(327,355,l),
(328,362,o),
(323,368,o),
(316,368,c),
(278,368,l),
(273,368,o),
(268,364,o),
(267,359,c),
(262,332,l),
(210,330,o),
(167,304,o),
(167,250,c),
(167,204,o),
(203,184,o),
(241,170,c),
(277,156,o),
(296,151,o),
(296,132,c),
(296,112,o),
(277,100,o),
(249,100,c),
(223,100,o),
(196,109,o),
(176,130,c),
(171,134,o),
(165,134,o),
(161,130,c),
(139,108,l),
(135,104,o),
(135,97,o),
(139,93,c),
(156,76,o),
(177,64,o),
(202,57,c),
(196,29,l),
(194,22,o),
(199,16,o),
(206,16,c),
(245,16,l),
(250,16,o),
(254,19,o),
(255,24,c),
(261,51,l),
(323,55,o),
(360,90,o),
(360,139,c),
(360,185,o),
(323,205,o),
(277,220,c),
(251,230,o),
(228,237,o),
(228,257,c),
(228,276,o),
(250,284,o),
(271,284,c),
(298,284,o),
(323,273,o),
(340,257,c)
);
}
);
width = 512;
}
);
note = faucet;
unicode = 57417;
},
{
glyphname = coindrop;
lastChange = "2022-07-07 16:30:58 +0000";
layers = (
{
layerId = m01;
shapes = (
{
attr = {
fillColor = (0,255);
};
closed = 1;
nodes = (
(188,-60,ls),
(197,-60,o),
(205,-52,o),
(205,-43,cs),
(205,-12,l),
(256,-22,o),
(310,-17,o),
(358,2,c),
(358,-43,ls),
(358,-52,o),
(366,-60,o),
(375,-60,cs),
(427,-60,ls),
(436,-60,o),
(444,-52,o),
(444,-43,cs),
(444,63,l),
(461,84,o),
(473,109,o),
(477,137,c),
(478,137,ls),
(483,137,o),
(486,133,o),
(486,128,cs),
(486,102,ls),
(486,93,o),
(494,85,o),
(503,85,cs),
(512,85,l),
(512,102,l),
(503,102,l),
(503,128,ls),
(503,142,o),
(492,154,o),
(478,154,c),
(478,212,o),
(438,267,o),
(373,298,c),
(383,340,o),
(357,381,o),
(316,391,cs),
(275,400,o),
(234,375,o),
(224,333,cs),
(223,330,o),
(223,326,o),
(222,322,c),
(216,321,o),
(210,321,o),
(203,319,c),
(190,343,o),
(164,358,o),
(137,358,cs),
(132,358,o),
(128,355,o),
(128,350,cs),
(128,293,l),
(97,277,o),
(71,252,o),
(53,222,c),
(17,222,ls),
(8,222,o),
(0,214,o),
(0,205,cs),
(0,102,ls),
(0,93,o),
(8,85,o),
(17,85,cs),
(53,85,l),
(69,58,o),
(92,35,o),
(119,19,c),
(119,-43,ls),
(119,-52,o),
(127,-60,o),
(137,-60,cs)
);
},
{
attr = {
fillColor = (0,255);
};
closed = 1;
nodes = (
(147,205,o),
(162,220,o),
(162,239,c),
(145,239,l),
(145,230,o),
(137,222,o),
(128,222,cs),
(119,222,o),
(111,230,o),
(111,239,c),
(94,239,l),
(94,220,o),
(109,205,o),
(128,205,cs)
);
},
{
attr = {
fillColor = (0,255);
};
closed = 1;
nodes = (
(137,24,ls),
(137,27,o),
(135,30,o),
(132,31,c),
(104,47,o),
(81,70,o),
(65,98,c),
(64,101,o),
(61,102,o),
(58,102,cs),
(17,102,l),
(17,205,l),
(58,205,ls),
(61,205,o),
(64,207,o),
(65,209,cs),
(82,240,o),
(109,265,o),
(140,280,cs),
(143,282,o),
(145,285,o),
(145,288,cs),
(145,341,l),
(165,338,o),
(182,325,o),
(191,306,cs),
(193,303,o),
(196,301,o),
(200,301,c),
(208,303,o),
(215,304,o),
(223,305,c),
(223,302,ls),
(223,301,o),
(224,300,o),
(224,299,cs),
(224,297,o),
(225,296,o),
(225,294,cs),
(225,293,o),
(226,293,o),
(226,292,c),
(227,290,o),
(227,287,o),
(228,285,c),
(229,285,o),
(229,284,o),
(229,284,c),
(230,282,o),
(231,280,o),
(231,279,c),
(233,276,ls),
(234,275,o),
(234,274,o),
(235,273,cs),
(237,270,ls),
(238,269,o),
(239,268,o),
(239,267,c),
(240,266,o),
(241,266,o),
(241,265,c),
(244,262,ls),
(245,261,o),
(246,260,o),
(246,260,c),
(249,257,l),
(250,257,o),
(250,256,o),
(251,256,cs),
(222,256,l),
(222,239,l),
(375,239,l),
(375,256,l),
(347,256,l),
(348,257,ls),
(351,259,o),
(353,262,o),
(355,264,c),
(356,264,o),
(356,264,o),
(356,265,c),
(362,272,l),
(362,273,o),
(362,273,o),
(363,273,c),
(364,276,o),
(366,279,o),
(367,282,c),
(368,282,l),
(425,254,o),
(461,205,o),
(461,154,cs),
(460,123,o),
(449,94,o),
(429,71,c),
(427,70,o),
(427,68,o),
(427,66,cs),
(427,-43,l),
(375,-43,l),
(375,15,ls),
(375,20,o),
(372,24,o),
(367,24,c),
(363,23,l),
(311,0,o),
(254,-6,o),
(198,6,cs),
(194,7,o),
(189,4,o),
(188,0,cs),
(188,-2,l),
(188,-43,l),
(137,-43,l)
);
},
{
attr = {
fillColor = (0,255);
};
closed = 1;
nodes = (
(196,410,l),
(196,427,l),
(179,427,l),
(179,410,l)
);
},
{
attr = {
fillColor = (0,255);
};
closed = 1;
nodes = (
(213,393,l),
(213,410,l),
(196,410,l),
(196,393,l)
);
},
{
attr = {
fillColor = (0,255);
};
closed = 1;
nodes = (
(263,260,o),
(240,285,o),
(239,315,cs),
(239,316,ls),
(239,349,o),
(266,375,o),
(299,375,cs),
(332,375,o),
(358,349,o),
(358,316,cs),
(358,309,o),
(357,303,o),
(355,296,cs),
(347,272,o),
(324,256,o),
(299,256,cs),
(293,256,l)
);
},
{
attr = {
fillColor = (0,255);
};
closed = 1;
nodes = (
(213,427,l),
(213,444,l),
(196,444,l),
(196,427,l)
);
},
{
attr = {
fillColor = (0,255);
};
closed = 1;
nodes = (
(230,410,l),
(230,427,l),
(213,427,l),
(213,410,l)
);
},
{
attr = {
fillColor = (0,255);
};
closed = 1;
nodes = (
(393,384,l),
(393,401,l),
(375,401,l),
(375,384,l)
);
},
{
attr = {
fillColor = (0,255);
};
closed = 1;
nodes = (
(410,367,l),
(410,384,l),
(393,384,l),
(393,367,l)
);
},
{
attr = {
fillColor = (0,255);
};
closed = 1;
nodes = (
(469,316,l),
(469,333,l),
(452,333,l),
(452,316,l)
);
},
{
attr = {
fillColor = (0,255);
};
closed = 1;
nodes = (
(486,299,l),
(486,316,l),
(469,316,l),
(469,299,l)
);
},
{
attr = {
fillColor = (0,255);
};
closed = 1;
nodes = (
(410,401,l),
(410,418,l),
(393,418,l),
(393,401,l)
);
},
{
attr = {
fillColor = (0,255);
};
closed = 1;
nodes = (
(427,384,l),
(427,401,l),
(410,401,l),
(410,384,l)
);
},
{
attr = {
fillColor = (0,255);
};
closed = 1;
nodes = (
(486,333,l),
(486,350,l),
(469,350,l),
(469,333,l)
);
},
{
attr = {
fillColor = (0,255);
};
closed = 1;
nodes = (
(503,316,l),
(503,333,l),
(486,333,l),
(486,316,l)
);
}
);
width = 512;
}
);
note = faucet;
unicode = 57424;
},
{
glyphname = eyeem;
lastChange = "2022-07-07 15:49:33 +0000";
layers = (
{
layerId = m01;
shapes = (
{
attr = {
fillColor = (0,255);
};
closed = 1;
nodes = (
(512,51,o),
(397,-64,o),
(256,-64,c),
(115,-64,o),
(0,51,o),
(0,192,c),
(0,333,o),
(115,448,o),
(256,448,c),
(397,448,o),
(512,333,o),
(512,192,c)
);
},
{
attr = {
fillColor = (0,255);
};
closed = 1;
nodes = (
(223,284,l),
(345,284,l),
(345,334,l),
(165,334,l),
(165,50,l),
(347,50,l),
(347,100,l),
(223,100,l),
(223,174,l),
(347,174,l),
(347,223,l),
(223,223,l)
);
}
);
width = 512;
}
);
note = faucet;
unicode = 57425;
},
{
glyphname = clubhouse;
lastChange = "2022-07-07 16:31:10 +0000";
layers = (
{
layerId = m01;
shapes = (
{
attr = {
fillColor = (0,255);
};
closed = 1;
nodes = (
(140,288,o),
(152,293,o),
(164,293,c),
(166,293,o),
(168,293,o),
(170,293,c),
(169,300,o),
(168,306,o),
(168,312,c),
(168,335,o),
(186,353,o),
(211,353,c),
(215,353,o),
(218,352,o),
(221,352,c),
(220,356,o),
(220,359,o),
(220,362,c),
(220,388,o),
(241,403,o),
(264,403,c),
(281,403,o),
(293,396,o),
(300,379,c),
(311,386,o),
(325,389,o),
(337,386,c),
(354,381,o),
(364,370,o),
(370,334,c),
(372,323,o),
(376,309,o),
(380,297,c),
(385,282,o),
(391,270,o),
(401,252,c),
(404,247,o),
(408,241,o),
(412,235,c),
(415,242,l),
(425,261,o),
(444,281,o),
(472,281,c),
(484,281,o),
(497,277,o),
(504,264,c),
(509,258,o),
(511,250,o),
(511,243,c),
(511,233,o),
(507,224,o),
(503,217,c),
(503,215,o),
(502,214,o),
(502,214,c),
(494,197,o),
(483,175,o),
(483,150,c),
(483,76,o),
(456,39,o),
(435,19,c),
(413,-1,o),
(380,-18,o),
(341,-18,c),
(314,-18,o),
(285,-10,o),
(262,6,c),
(229,27,o),
(210,60,o),
(192,89,c),
(178,113,o),
(167,133,o),
(152,170,c),
(143,190,o),
(134,212,o),
(127,234,c),
(121,254,o),
(124,269,o),
(132,278,c)
);
},
{
attr = {
fillColor = (0,255);
};
closed = 1;
nodes = (
(187,142,o),
(196,123,o),
(211,100,c),
(228,71,o),
(246,42,o),
(274,24,c),
(293,11,o),
(318,4,o),
(341,4,c),
(374,4,o),
(402,18,o),
(420,35,c),
(438,51,o),
(461,84,o),
(461,150,c),
(461,180,o),
(474,206,o),
(482,223,c),
(484,227,o),
(489,236,o),
(489,243,c),
(489,245,o),
(488,249,o),
(486,252,c),
(483,257,o),
(478,259,o),
(472,259,c),
(453,259,o),
(440,245,o),
(434,232,c),
(431,227,o),
(428,221,o),
(427,215,c),
(423,201,o),
(419,196,o),
(407,187,c),
(401,181,o),
(393,174,o),
(389,169,c),
(382,159,o),
(380,151,o),
(378,138,c),
(377,134,o),
(371,133,o),
(364,133,c),
(359,133,o),
(358,134,o),
(358,141,c),
(358,148,o),
(360,159,o),
(366,169,c),
(373,182,o),
(382,190,o),
(390,197,c),
(398,203,o),
(401,206,o),
(402,211,c),
(395,221,o),
(388,231,o),
(382,241,c),
(371,260,o),
(364,274,o),
(359,290,c),
(355,303,o),
(351,319,o),
(349,331,c),
(345,356,o),
(340,362,o),
(332,365,c),
(325,366,o),
(316,365,o),
(311,360,c),
(307,357,o),
(305,354,o),
(307,346,c),
(308,328,o),
(311,315,o),
(314,302,c),
(322,273,o),
(335,249,o),
(341,236,c),
(343,231,o),
(345,229,o),
(349,230,c),
(354,230,o),
(357,230,o),
(360,230,c),
(364,230,o),
(368,227,o),
(368,223,c),
(368,219,o),
(366,218,o),
(359,216,c),
(346,213,o),
(329,209,o),
(312,199,c),
(298,191,o),
(286,181,o),
(275,167,c),
(274,166,o),
(272,165,o),
(271,165,c),
(268,165,o),
(266,168,o),
(264,171,c),
(262,174,o),
(260,176,o),
(260,178,c),
(260,181,o),
(261,183,o),
(264,186,c),
(268,192,o),
(272,196,o),
(272,198,c),
(272,200,o),
(269,204,o),
(266,209,c),
(262,218,o),
(254,235,o),
(248,248,c),
(240,268,o),
(234,294,o),
(231,309,c),
(227,326,o),
(221,331,o),
(211,331,c),
(198,331,o),
(190,323,o),
(190,312,c),
(190,304,o),
(192,294,o),
(197,277,c),
(200,266,o),
(204,256,o),
(207,248,c),
(211,235,o),
(217,221,o),
(222,209,c),
(227,198,o),
(234,186,o),
(237,180,c),
(239,177,o),
(242,171,o),
(242,168,c),
(242,162,o),
(238,159,o),
(232,159,c),
(229,159,o),
(226,160,o),
(223,166,c),
(219,171,o),
(210,188,o),
(204,201,c),
(199,211,o),
(191,230,o),
(187,243,c),
(181,264,o),
(176,272,o),
(165,272,c),
(158,271,o),
(153,269,o),
(149,264,c),
(145,259,o),
(145,251,o),
(148,241,c),
(155,219,o),
(163,199,o),
(171,178,c)
);
},
{
attr = {
fillColor = (0,255);
};
closed = 1;
nodes = (
(250,318,o),
(251,312,o),
(257,289,c),
(260,276,o),
(264,264,o),
(268,254,c),
(273,242,o),
(278,231,o),
(286,217,c),
(289,210,o),
(291,210,o),
(300,215,c),
(307,218,o),
(317,223,o),
(324,225,c),
(311,253,o),
(300,277,o),
(295,297,c),
(294,303,o),
(288,326,o),
(287,336,c),
(286,346,o),
(285,355,o),
(282,364,c),
(279,376,o),
(275,381,o),
(264,381,c),
(254,381,o),
(241,376,o),
(241,362,c),
(241,353,o),
(244,340,o),
(246,329,c)
);
},
{
attr = {
fillColor = (0,255);
};
closed = 1;
nodes = (
(71,302,o),
(34,324,o),
(24,330,c),
(16,335,o),
(14,340,o),
(21,352,c),
(26,362,o),
(32,364,o),
(41,359,c),
(51,354,o),
(87,325,o),
(94,320,c),
(101,314,o),
(100,311,o),
(97,305,c),
(93,298,o),
(90,296,o),
(84,298,c)
);
},
{
attr = {
fillColor = (0,255);
};
closed = 1;
nodes = (
(67,206,o),
(22,208,o),
(11,209,c),
(2,210,o),
(-1,214,o),
(0,227,c),
(1,241,o),
(6,241,o),
(15,241,c),
(25,240,o),
(73,232,o),
(80,230,c),
(88,227,o),
(89,224,o),
(88,217,c),
(87,208,o),
(83,206,o),
(78,206,c)
);
},
{
attr = {
fillColor = (0,255);
};
closed = 1;
nodes = (
(104,115,o),
(63,94,o),
(54,90,c),
(47,88,o),
(40,89,o),
(36,101,c),
(31,116,o),
(38,120,o),
(49,124,c),
(58,127,o),
(95,141,o),
(104,143,c),
(110,145,o),
(114,143,o),
(117,135,c),
(121,127,o),
(118,124,o),
(111,120,c)
);
}
);
width = 511;
}
);
note = faucet;
unicode = 57426;
},
{
glyphname = fediverse;
lastChange = "2022-07-07 16:31:20 +0000";
layers = (
{
layerId = m01;
shapes = (
{
attr = {
fillColor = (0,255);
};
closed = 1;
nodes = (
(229,123,l),
(199,108,l),
(73,234,l),
(83,239,o),
(91,247,o),
(96,257,c)
);
},
{
attr = {
fillColor = (0,255);
};
closed = 1;
nodes = (
(318,34,l),
(308,29,o),
(300,21,o),
(295,11,c),
(231,75,l),
(262,90,l)
);
},
{
attr = {
fillColor = (0,255);
};
closed = 1;
nodes = (
(341,137,l),
(336,171,l),
(407,207,l),
(409,196,o),
(414,186,o),
(422,178,c)
);
},
{
attr = {
fillColor = (0,255);
};
closed = 1;
nodes = (
(300,116,l),
(141,36,l),
(139,46,o),
(134,57,o),
(126,64,c),
(295,150,l)
);
},
{
attr = {
fillColor = (0,255);
};
closed = 1;
nodes = (
(183,177,l),
(159,201,l),
(240,360,l),
(248,352,o),
(258,347,o),
(269,345,c)
);
},
{
attr = {
fillColor = (0,255);
};
closed = 1;
nodes = (
(162,136,l),
(126,65,l),
(118,73,o),
(108,78,o),
(97,80,c),
(138,160,l)
);
},
{
attr = {
fillColor = (0,255);
};
closed = 1;
nodes = (
(96,80,l),
(94,80,o),
(93,80,o),
(91,80,c),
(82,81,o),
(72,79,o),
(64,75,c),
(40,229,l),
(42,228,o),
(44,228,o),
(45,228,c),
(55,228,o),
(64,229,o),
(72,234,c)
);
},
{
attr = {
fillColor = (0,255);
};
closed = 1;
nodes = (
(295,10,l),
(291,4,o),
(289,-4,o),
(289,-11,c),
(289,-15,o),
(289,-18,o),
(290,-22,c),
(136,3,l),
(139,9,o),
(141,17,o),
(142,24,c),
(142,28,o),
(142,31,o),
(141,35,c)
);
},
{
attr = {
fillColor = (0,255);
};
closed = 1;
nodes = (
(380,24,l),
(372,32,o),
(362,37,o),
(351,39,c),
(422,177,l),
(430,170,o),
(440,164,o),
(451,163,c)
);
},
{
attr = {
fillColor = (0,255);
};
closed = 1;
nodes = (
(435,263,l),
(426,258,o),
(418,250,o),
(413,240,c),
(303,350,l),
(312,356,o),
(320,363,o),
(326,373,c)
);
},
{
attr = {
fillColor = (0,255);
};
closed = 1;
nodes = (
(101,290,l),
(99,301,o),
(94,311,o),
(86,319,c),
(225,389,l),
(227,378,o),
(232,368,o),
(240,361,c)
);
},
{
attr = {
fillColor = (0,255);
};
closed = 1;
nodes = (
(316,261,l),
(283,266,l),
(271,345,l),
(272,345,o),
(274,345,o),
(275,345,c),
(285,344,o),
(294,346,o),
(302,350,c)
);
},
{
attr = {
fillColor = (0,255);
};
closed = 1;
nodes = (
(324,215,l),
(351,39,l),
(349,39,o),
(347,39,o),
(345,40,c),
(336,40,o),
(327,38,o),
(319,34,c),
(290,220,l)
);
},
{
attr = {
fillColor = (0,255);
};
closed = 1;
nodes = (
(190,275,l),
(175,245,l),
(96,258,l),
(99,264,o),
(101,271,o),
(102,279,c),
(102,282,o),
(102,286,o),
(101,290,c)
);
},
{
attr = {
fillColor = (0,255);
};
closed = 1;
nodes = (
(412,240,l),
(409,233,o),
(407,226,o),
(406,218,c),
(406,215,o),
(407,211,o),
(407,208,c),
(221,238,l),
(236,268,l)
);
},
{
attr = {
fillColor = (0,255);
};
closed = 1;
nodes = (
(325,369,o),
(302,348,o),
(275,349,c),
(249,351,o),
(228,374,o),
(229,401,c),
(231,428,o),
(254,448,o),
(281,447,c),
(308,445,o),
(328,422,o),
(327,395,c)
);
},
{
attr = {
fillColor = (0,255);
};
closed = 1;
nodes = (
(507,186,o),
(484,165,o),
(457,167,c),
(430,168,o),
(410,191,o),
(411,218,c),
(413,245,o),
(436,266,o),
(463,264,c),
(490,263,o),
(510,240,o),
(509,213,c)
);
},
{
attr = {
fillColor = (0,255);
};
closed = 1;
nodes = (
(390,-43,o),
(367,-64,o),
(340,-63,c),
(313,-61,o),
(292,-38,o),
(294,-11,c),
(295,16,o),
(318,36,o),
(345,35,c),
(372,33,o),
(393,10,o),
(391,-17,c)
);
},
{
attr = {
fillColor = (0,255);
};
closed = 1;
nodes = (
(135,-3,o),
(112,-23,o),
(85,-22,c),
(58,-20,o),
(38,3,o),
(39,30,c),
(41,56,o),
(64,77,o),
(91,76,c),
(118,74,o),
(138,51,o),
(137,24,c)
);
},
{
attr = {
fillColor = (0,255);
};
closed = 1;
nodes = (
(95,252,o),
(72,231,o),
(46,233,c),
(19,234,o),
(-2,257,o),
(0,284,c),
(1,311,o),
(24,332,o),
(51,330,c),
(78,329,o),
(98,306,o),
(97,279,c)
);
}
);
width = 509;
}
);
note = faucet;
unicode = 57427;
},
{
glyphname = hey;
lastChange = "2022-07-07 16:43:32 +0000";
layers = (
{
layerId = m01;
shapes = (
{
attr = {
fillColor = (0,255);
};
closed = 1;
nodes = (
(376,299,o),
(356,287,o),
(340,271,c),
(323,333,o),
(284,428,o),
(246,444,c),
(238,448,o),
(229,447,o),
(222,443,c),
(198,429,o),
(183,386,o),
(196,302,c),
(144,396,o),
(127,396,o),
(118,396,c),
(110,396,o),
(102,392,o),
(100,383,c),
(94,372,o),
(82,333,o),
(110,250,c),
(77,294,o),
(67,300,o),
(55,300,c),
(48,299,o),
(41,294,o),
(37,287,c),
(28,270,o),
(29,223,o),
(60,153,c),
(49,161,o),
(36,167,o),
(22,169,c),
(14,167,o),
(8,164,o),
(3,157,c),
(-8,134,o),
(17,70,o),
(49,26,c),
(76,-9,o),
(128,-64,o),
(204,-64,c),
(215,-64,o),
(225,-63,o),
(236,-60,c),
(246,-59,o),
(250,-46,o),
(243,-38,c),
(241,-35,o),
(235,-32,o),
(230,-33,c),
(168,-46,o),
(120,-11,o),
(91,21,c),
(48,66,o),
(29,123,o),
(28,139,c),
(37,136,o),
(63,120,o),
(114,56,c),
(120,48,o),
(132,49,o),
(137,58,c),
(140,63,o),
(138,68,o),
(136,72,c),
(64,179,o),
(59,245,o),
(61,267,c),
(81,246,o),
(134,167,o),
(172,109,c),
(177,103,o),
(185,100,o),
(191,104,c),
(198,109,o),
(201,117,o),
(196,123,c),
(115,273,o),
(117,341,o),
(122,365,c),
(135,352,o),
(167,308,o),
(236,159,c),
(238,152,o),
(246,150,o),
(253,152,c),
(260,156,o),
(264,163,o),
(262,170,c),
(195,351,o),
(224,413,o),
(235,419,c),
(249,419,o),
(290,351,o),
(315,260,c),
(316,254,o),
(317,248,o),
(319,244,c),
(316,237,o),
(312,231,o),
(311,224,c),
(297,173,o),
(283,59,o),
(310,29,c),
(315,22,o),
(323,18,o),
(332,19,c),
(343,21,o),
(352,26,o),
(358,36,c),
(383,71,o),
(369,160,o),
(349,239,c),
(361,258,o),
(381,271,o),
(403,278,c),
(413,281,o),
(424,278,o),
(431,271,c),
(441,259,o),
(461,212,o),
(401,46,c),
(398,36,o),
(407,25,o),
(418,28,c),
(423,29,o),
(426,32,o),
(428,37,c),
(475,169,o),
(482,254,o),
(451,289,c),
(437,305,o),
(415,311,o),
(397,304,c)
);
},
{
attr = {
fillColor = (0,255);
};
closed = 1;
nodes = (
(334,49,o),
(332,48,o),
(331,46,c),
(320,59,o),
(320,131,o),
(331,190,c),
(352,87,o),
(340,58,o),
(334,51,c)
);
}
);
width = 470;
}
);
note = faucet;
unicode = 57428;
},
{
glyphname = instapaper;
lastChange = "2022-07-07 16:32:13 +0000";
layers = (
{
layerId = m01;
shapes = (
{
attr = {
fillColor = (0,255);
};
closed = 1;
nodes = (
(60,448,l),
(27,448,o),
(0,421,o),
(0,387,c),
(0,-3,l),
(0,-37,o),
(27,-64,o),
(60,-64,c),
(451,-64,l),
(484,-64,o),
(512,-37,o),
(512,-3,c),
(512,387,l),
(512,421,o),
(484,448,o),
(451,448,c)
);
},
{
attr = {
fillColor = (0,255);
};
closed = 1;
nodes = (
(353,339,o),
(351,337,o),
(347,337,c),
(331,333,o),
(292,327,o),
(292,313,c),
(292,70,l),
(292,47,o),
(347,47,o),
(348,47,c),
(351,47,o),
(353,45,o),
(353,42,c),
(353,25,l),
(353,23,o),
(351,21,o),
(348,21,c),
(163,21,l),
(160,21,o),
(158,23,o),
(158,25,c),
(158,42,l),
(158,45,o),
(160,47,o),
(163,47,c),
(163,47,o),
(163,47,o),
(164,47,c),
(171,47,o),
(218,48,o),
(218,70,c),
(218,313,l),
(218,324,o),
(183,333,o),
(163,337,c),
(160,337,o),
(157,339,o),
(157,341,c),
(157,358,l),
(157,360,o),
(160,362,o),
(163,362,c),
(349,362,l),
(351,362,o),
(353,360,o),
(353,358,c),
(353,341,l)
);
}
);
width = 512;
}
);
note = faucet;
unicode = 57429;
},
{
glyphname = geotastic;
lastChange = "2022-10-18 03:09:07 +0000";
layers = (
{
layerId = m01;
shapes = (
{
closed = 1;
nodes = (
(220,443,o),
(205,440,o),
(190,436,c),
(131,419,o),
(82,383,o),
(48,332,c),
(25,297,o),
(12,259,o),
(7,217,c),
(0,144,o),
(26,71,o),
(77,17,c),
(83,10,o),
(99,-4,o),
(107,-10,c),
(114,-15,o),
(132,-27,o),
(139,-30,c),
(145,-33,o),
(148,-33,o),
(153,-29,c),
(159,-25,o),
(162,-19,o),
(162,-12,c),
(162,-2,o),
(162,-2,o),
(120,40,c),
(82,78,o),
(82,79,o),
(78,86,c),
(74,95,o),
(73,101,o),
(73,110,c),
(73,126,o),
(78,138,o),
(89,149,c),
(100,161,o),
(112,165,o),
(129,165,c),
(139,165,o),
(145,164,o),
(154,159,c),
(160,157,o),
(164,153,o),
(188,128,c),
(219,98,o),
(221,97,o),
(229,97,c),
(237,97,o),
(245,102,o),
(249,109,c),
(251,113,o),
(251,124,o),
(249,129,c),
(248,130,o),
(229,150,o),
(207,172,c),
(178,202,o),
(166,214,o),
(164,218,c),
(153,237,o),
(155,262,o),
(168,279,c),
(180,294,o),
(194,301,o),
(212,301,c),
(222,301,o),
(229,299,o),
(238,295,c),
(243,292,o),
(249,287,o),
(303,233,c),
(342,194,o),
(365,172,o),
(367,171,c),
(372,168,o),
(376,168,o),
(382,169,c),
(388,171,o),
(393,174,o),
(396,180,c),
(398,183,o),
(398,185,o),
(398,190,c),
(398,195,o),
(398,198,o),
(397,200,c),
(396,201,o),
(378,220,o),
(358,240,c),
(337,261,o),
(319,280,o),
(317,283,c),
(309,294,o),
(306,311,o),
(309,325,c),
(313,343,o),
(327,360,o),
(344,366,c),
(355,369,o),
(369,370,o),
(379,367,c),
(391,363,o),
(395,360,o),
(419,337,c),
(442,314,o),
(443,313,o),
(452,313,c),
(460,313,o),
(469,320,o),
(472,327,c),
(472,329,o),
(472,330,o),
(468,336,c),
(451,361,o),
(425,387,o),
(399,404,c),
(368,424,o),
(333,438,o),
(296,443,c),
(284,445,o),
(252,446,o),
(242,445,cs)
);
},
{
attr = {
fillColor = (0,255);
};
closed = 1;
nodes = (
(347,329,o),
(343,324,o),
(342,315,c),
(341,304,o),
(341,306,o),
(383,262,c),
(405,241,o),
(423,222,o),
(424,220,c),
(428,214,o),
(431,205,o),
(432,197,c),
(436,169,o),
(417,143,o),
(390,136,c),
(386,135,o),
(381,135,o),
(374,135,c),
(363,136,o),
(355,138,o),
(347,143,c),
(344,146,o),
(320,168,o),
(283,205,c),
(251,237,o),
(223,264,o),
(221,265,c),
(217,267,o),
(208,267,o),
(203,265,c),
(198,263,o),
(194,258,o),
(192,253,c),
(190,248,o),
(191,239,o),
(193,235,c),
(194,234,o),
(212,215,o),
(234,193,c),
(274,153,o),
(278,148,o),
(282,137,c),
(286,124,o),
(286,113,o),
(282,100,c),
(277,85,o),
(263,71,o),
(248,66,c),
(233,61,o),
(218,62,o),
(204,69,c),
(197,73,o),
(194,76,o),
(166,103,c),
(137,132,o),
(136,133,o),
(126,132,c),
(118,131,o),
(111,126,o),
(108,119,c),
(106,115,o),
(106,106,o),
(108,102,c),
(109,99,o),
(121,87,o),
(147,61,c),
(187,20,o),
(190,18,o),
(194,5,c),
(196,-3,o),
(197,-16,o),
(195,-24,c),
(193,-31,o),
(189,-39,o),
(185,-44,c),
(184,-46,o),
(183,-49,o),
(183,-49,c),
(184,-50,o),
(204,-55,o),
(215,-57,c),
(244,-62,o),
(275,-62,o),
(303,-57,c),
(343,-50,o),
(382,-33,o),
(416,-7,c),
(428,3,o),
(451,26,o),
(460,38,c),
(488,75,o),
(504,115,o),
(511,161,c),
(512,172,o),
(512,213,o),
(511,224,c),
(508,244,o),
(503,263,o),
(496,281,c),
(491,297,o),
(491,296,o),
(486,292,c),
(480,287,o),
(477,285,o),
(469,282,c),
(459,279,o),
(445,279,o),
(435,282,c),
(424,285,o),
(420,288,o),
(398,310,c),
(383,325,o),
(375,332,o),
(373,333,c),
(367,335,o),
(359,335,o),
(354,333,cs)
);
}
);
width = 512;
}
);
unicode = 57430;
},
{
glyphname = osu;
lastChange = "2022-07-07 16:32:30 +0000";
layers = (
{
layerId = m01;
shapes = (
{
attr = {
fillColor = (0,255);
};
closed = 1;
nodes = (
(104,132,o),
(97,133,o),
(90,137,c),
(83,139,o),
(78,143,o),
(73,148,c),
(70,153,o),
(67,160,o),
(64,167,c),
(62,173,o),
(61,181,o),
(61,189,c),
(61,197,o),
(62,205,o),
(64,212,c),
(67,219,o),
(70,226,o),
(73,230,c),
(78,236,o),
(83,240,o),
(90,242,c),
(97,246,o),
(104,247,o),
(113,247,c),
(122,247,o),
(130,246,o),
(137,242,c),
(143,240,o),
(149,236,o),
(153,230,c),
(158,226,o),
(161,219,o),
(163,212,c),
(166,205,o),
(167,197,o),
(167,189,c),
(167,181,o),
(166,173,o),
(163,167,c),
(161,160,o),
(158,153,o),
(153,148,c),
(149,143,o),
(143,139,o),
(137,137,c),
(130,133,o),
(122,132,o),
(113,132,c)
);
},
{
attr = {
fillColor = (0,255);
};
closed = 1;
nodes = (
(121,155,o),
(127,158,o),
(130,163,c),
(134,170,o),
(136,178,o),
(136,189,c),
(136,200,o),
(134,209,o),
(130,215,c),
(127,220,o),
(121,223,o),
(113,223,c),
(106,223,o),
(100,220,o),
(97,215,c),
(93,209,o),
(91,200,o),
(91,189,c),
(91,178,o),
(93,170,o),
(97,163,c),
(100,158,o),
(106,155,o),
(113,155,c)
);
},
{
attr = {
fillColor = (0,255);
};
closed = 1;
nodes = (
(212,182,l),
(203,185,o),
(198,188,o),
(193,192,c),
(189,197,o),
(187,203,o),
(187,212,c),
(187,223,o),
(190,231,o),
(198,238,c),
(205,243,o),
(217,247,o),
(230,247,c),
(241,247,o),
(252,244,o),
(262,241,c),
(262,237,o),
(261,233,o),
(260,229,c),
(259,226,o),
(258,222,o),
(257,219,c),
(253,220,o),
(249,221,o),
(245,222,c),
(241,223,o),
(237,225,o),
(232,225,c),
(228,225,o),
(223,223,o),
(221,222,c),
(219,220,o),
(217,218,o),
(217,215,c),
(217,211,o),
(218,209,o),
(220,208,c),
(222,207,o),
(224,206,o),
(228,205,c),
(240,201,l),
(244,200,o),
(248,198,o),
(251,197,c),
(254,195,o),
(257,193,o),
(259,190,c),
(261,188,o),
(263,186,o),
(264,181,c),
(265,178,o),
(267,173,o),
(267,169,c),
(267,163,o),
(265,159,o),
(263,155,c),
(261,150,o),
(258,146,o),
(253,142,c),
(249,139,o),
(244,137,o),
(239,135,c),
(232,132,o),
(225,131,o),
(218,131,c),
(214,131,o),
(212,132,o),
(209,132,c),
(205,132,o),
(203,132,o),
(201,133,c),
(198,133,o),
(195,135,o),
(193,135,c),
(190,136,o),
(188,137,o),
(184,138,c),
(184,141,o),
(186,146,o),
(187,149,c),
(188,153,o),
(189,157,o),
(191,161,c),
(195,159,o),
(200,158,o),
(204,157,c),
(208,156,o),
(212,156,o),
(217,156,c),
(219,156,o),
(221,156,o),
(223,156,c),
(225,157,o),
(228,157,o),
(230,158,c),
(232,159,o),
(233,160,o),
(235,161,c),
(237,163,o),
(237,165,o),
(237,167,c),
(237,171,o),
(237,173,o),
(234,175,c),
(232,177,o),
(229,178,o),
(225,179,c)
);
},
{
attr = {
fillColor = (0,255);
};
closed = 1;
nodes = (
(287,244,l),
(291,244,o),
(297,246,o),
(301,246,c),
(307,246,o),
(311,246,o),
(317,244,c),
(317,186,l),
(317,180,o),
(317,176,o),
(318,171,c),
(319,168,o),
(320,165,o),
(322,162,c),
(324,160,o),
(327,159,o),
(329,158,c),
(332,157,o),
(335,157,o),
(339,157,c),
(344,157,o),
(349,157,o),
(352,158,c),
(352,244,l),
(358,244,o),
(362,246,o),
(368,246,c),
(372,246,o),
(378,246,o),
(382,244,c),
(382,139,l),
(378,137,o),
(372,136,o),
(364,133,c),
(350,131,o),
(335,131,o),
(320,133,c),
(314,135,o),
(308,137,o),
(303,140,c),
(298,145,o),
(293,150,o),
(291,157,c),
(288,163,o),
(287,173,o),
(287,185,c),
(287,244,l)
);
},
{
attr = {
fillColor = (0,255);
};
closed = 1;
nodes = (
(410,140,o),
(410,145,o),
(410,150,c),
(410,155,o),
(410,160,o),
(411,166,c),
(417,167,o),
(421,167,o),
(427,167,c),
(432,167,o),
(437,167,o),
(442,166,c),
(443,160,o),
(443,155,o),
(443,150,c),
(443,145,o),
(443,140,o),
(442,135,c),
(437,133,o),
(432,133,o),
(427,133,c),
(421,133,o),
(417,133,o),
(411,135,c)
);
},
{
attr = {
fillColor = (0,255);
};
closed = 1;
nodes = (
(410,288,l),
(415,288,o),
(421,289,o),
(427,289,c),
(432,289,o),
(438,288,o),
(443,288,c),
(441,183,l),
(437,182,o),
(432,182,o),
(427,182,c),
(422,182,o),
(418,182,o),
(412,183,c)
);
},
{
attr = {
fillColor = (0,255);
};
closed = 1;
nodes = (
(511,332,o),
(397,448,o),
(255,448,c),
(114,448,o),
(0,332,o),
(0,191,c),
(0,50,o),
(114,-64,o),
(255,-64,c),
(398,-64,o),
(512,50,o),
(511,191,c)
);
}
);
width = 511;
}
);
note = faucet;
unicode = 57431;
},
{
glyphname = pronounspage;
lastChange = "2022-07-07 16:46:53 +0000";
layers = (
{
layerId = m01;
shapes = (
{
attr = {
fillColor = (0,255);
};
closed = 1;
nodes = (
(321,340,o),
(320,342,o),
(318,342,c),
(274,342,l),
(272,342,o),
(268,340,o),
(267,338,c),
(160,157,l),
(145,132,o),
(124,126,o),
(103,129,c),
(69,133,o),
(50,158,o),
(50,192,c),
(50,226,o),
(78,254,o),
(111,254,c),
(181,254,l),
(183,254,o),
(185,255,o),
(186,257,c),
(212,300,l),
(213,302,o),
(212,305,o),
(209,305,c),
(111,305,l),
(50,305,o),
(0,254,o),
(0,192,c),
(0,162,o),
(11,131,o),
(33,109,c),
(54,88,o),
(81,81,o),
(111,80,c),
(129,80,o),
(175,80,o),
(197,119,c),
(221,162,o),
(320,338,o),
(320,338,c)
);
},
{
attr = {
fillColor = (0,255);
};
closed = 1;
nodes = (
(459,295,o),
(430,302,o),
(401,304,c),
(384,304,o),
(337,304,o),
(316,264,c),
(291,222,o),
(192,45,o),
(192,45,c),
(191,43,o),
(192,42,o),
(194,42,c),
(238,42,l),
(241,42,o),
(244,43,o),
(245,45,c),
(352,226,l),
(367,252,o),
(388,257,o),
(408,254,c),
(442,251,o),
(461,225,o),
(461,192,c),
(461,157,o),
(433,129,o),
(400,129,c),
(332,129,l),
(329,129,o),
(326,128,o),
(325,126,c),
(301,83,l),
(299,81,o),
(301,79,o),
(303,79,c),
(400,79,l),
(462,79,o),
(512,129,o),
(512,192,c),
(512,222,o),
(500,253,o),
(479,275,c)
);
}
);
width = 512;
}
);
note = faucet;
unicode = 57432;
},
{
glyphname = procreate;
lastChange = "2022-07-07 16:49:29 +0000";
layers = (
{
layerId = m01;
shapes = (
{
attr = {
fillColor = (0,255);
};
closed = 1;
nodes = (
(55,448,o),
(0,393,o),
(0,326,c),
(0,58,l),
(0,-9,o),
(55,-64,o),
(122,-64,c),
(390,-64,l),
(457,-64,o),
(512,-9,o),
(512,58,c),
(512,326,l),
(512,393,o),
(457,448,o),
(390,448,c),
(122,448,l)
);
},
{
attr = {
fillColor = (0,255);
};
closed = 1;
nodes = (
(390,424,l),
(444,424,o),
(488,380,o),
(488,326,c),
(488,58,l),
(488,4,o),
(444,-40,o),
(390,-40,c),
(122,-40,l),
(68,-40,o),
(24,4,o),
(24,58,c),
(24,326,l),
(24,380,o),
(68,424,o),
(122,424,c)
);
},
{
attr = {
fillColor = (0,255);
};
closed = 1;
nodes = (
(428,387,o),
(423,381,o),
(423,375,c),
(423,366,o),
(421,343,o),
(398,317,c),
(374,291,o),
(328,261,o),
(239,238,c),
(145,214,o),
(99,156,o),
(79,105,c),
(58,54,o),
(61,8,o),
(61,8,c),
(62,2,o),
(66,-3,o),
(72,-3,c),
(78,-4,o),
(84,0,o),
(85,6,c),
(97,55,o),
(118,76,o),
(152,92,c),
(186,108,o),
(234,117,o),
(294,135,c),
(370,157,o),
(412,203,o),
(433,250,c),
(453,297,o),
(453,343,o),
(447,374,c),
(447,374,o),
(447,375,o),
(447,375,c),
(447,375,l),
(447,376,o),
(447,377,o),
(447,377,c),
(446,383,o),
(441,387,o),
(435,387,c)
);
},
{
attr = {
fillColor = (0,255);
};
closed = 1;
nodes = (
(422,296,o),
(419,278,o),
(411,260,c),
(405,246,o),
(396,233,o),
(386,220,c),
(366,204,o),
(323,177,o),
(256,168,c),
(194,159,o),
(129,127,o),
(99,83,c),
(98,83,o),
(98,83,o),
(98,82,c),
(99,87,o),
(99,91,o),
(101,96,c),
(107,110,o),
(114,124,o),
(124,137,c),
(148,164,o),
(189,191,o),
(273,213,c),
(368,237,o),
(407,279,o),
(424,313,c)
);
}
);
width = 512;
}
);
note = faucet;
unicode = 57433;
},
{
glyphname = "ko-fi";
lastChange = "2022-08-06 18:33:16 +0000";
layers = (
{
layerId = m01;
shapes = (
{
attr = {
fillColor = (0,255);
};
closed = 1;
nodes = (
(479,307,o),
(394,317,o),
(394,317,c),
(15,317,l),
(2,317,o),
(1,301,o),
(1,301,c),
(1,301,o),
(-1,149,o),
(0,56,c),
(4,5,o),
(54,0,o),
(54,0,c),
(54,0,o),
(225,0,o),
(302,1,c),
(353,10,o),
(358,54,o),
(357,79,c),
(448,74,o),
(511,137,o),
(495,222,c)
);
},
{
attr = {
fillColor = (0,255);
};
closed = 1;
nodes = (
(240,119,o),
(183,67,o),
(183,67,c),
(183,67,o),
(180,64,o),
(176,66,c),
(175,68,o),
(174,68,o),
(174,68,c),
(165,77,o),
(104,131,o),
(90,150,c),
(75,170,o),
(69,206,o),
(88,227,c),
(108,248,o),
(151,250,o),
(179,219,c),
(179,219,o),
(211,256,o),
(251,239,c),
(290,222,o),
(289,176,o),
(266,149,c)
);
},
{
attr = {
fillColor = (0,255);
};
closed = 1;
nodes = (
(375,137,o),
(359,139,o),
(359,139,c),
(359,257,l),
(396,257,l),
(396,257,o),
(437,245,o),
(437,202,c),
(437,162,o),
(416,147,o),
(394,139,c)
);
}
);
width = 497;
}
);
note = faucet;
unicode = 57440;
},
{
glyphname = clarus;
lastChange = "2022-09-10 22:24:04 +0000";
layers = (
{
layerId = m01;
shapes = (
{
attr = {
fillColor = (0,255);
};
closed = 1;
nodes = (
(29,309,o),
(24,292,o),
(29,264,c),
(36,227,o),
(68,215,o),
(69,214,c),
(79,211,l),
(82,210,o),
(84,206,o),
(81,203,c),
(76,198,l),
(73,193,o),
(73,190,o),
(73,185,c),
(73,25,l),
(75,22,o),
(84,11,o),
(116,11,c),
(134,11,o),
(144,15,o),
(149,19,c),
(151,20,o),
(152,23,o),
(152,25,c),
(153,26,o),
(152,28,o),
(151,30,c),
(148,32,o),
(146,34,o),
(143,37,c),
(136,42,o),
(126,50,o),
(126,63,c),
(126,84,l),
(126,86,l),
(126,91,o),
(130,96,o),
(135,96,c),
(138,96,l),
(166,96,o),
(181,111,o),
(195,125,c),
(204,134,o),
(213,143,o),
(226,143,c),
(320,143,l),
(328,143,o),
(334,137,o),
(334,129,c),
(334,24,l),
(336,22,o),
(344,11,o),
(377,11,c),
(399,11,o),
(408,16,o),
(412,19,c),
(415,21,o),
(415,25,o),
(413,29,c),
(410,33,o),
(405,37,o),
(400,42,c),
(391,50,o),
(381,59,o),
(381,72,c),
(381,131,l),
(381,133,o),
(380,135,o),
(378,136,c),
(370,139,o),
(353,149,o),
(353,173,c),
(353,195,o),
(368,201,o),
(376,202,c),
(379,202,o),
(381,204,o),
(381,207,c),
(381,215,l),
(381,224,o),
(388,232,o),
(398,232,c),
(447,232,l),
(466,232,o),
(478,236,o),
(481,246,c),
(484,253,o),
(485,263,o),
(473,278,c),
(437,326,l),
(433,331,o),
(432,336,o),
(431,342,c),
(431,346,o),
(431,354,o),
(428,361,c),
(424,373,o),
(418,373,o),
(416,373,c),
(412,373,o),
(410,371,o),
(405,362,c),
(401,354,o),
(394,342,o),
(380,342,c),
(368,342,o),
(362,350,o),
(358,356,c),
(353,362,o),
(345,372,o),
(335,368,c),
(328,366,o),
(325,362,o),
(325,352,c),
(325,344,o),
(326,340,o),
(329,335,c),
(332,327,o),
(336,318,o),
(336,301,c),
(336,286,o),
(322,253,o),
(281,250,c),
(279,250,o),
(278,249,o),
(278,248,c),
(273,231,o),
(254,180,o),
(197,180,c),
(135,180,o),
(132,230,o),
(132,246,c),
(132,248,o),
(131,250,o),
(128,250,c),
(112,250,l),
(107,250,o),
(102,252,o),
(99,256,c),
(40,320,l),
(39,322,o),
(35,322,o),
(34,319,c)
);
},
{
attr = {
fillColor = (0,255);
};
closed = 1;
nodes = (
(-2,301,o),
(9,326,o),
(19,340,c),
(23,344,o),
(27,348,o),
(33,348,c),
(40,350,o),
(48,347,o),
(52,342,c),
(112,276,l),
(113,275,o),
(116,274,o),
(118,274,c),
(276,274,l),
(306,274,o),
(313,297,o),
(313,301,c),
(313,313,o),
(310,319,o),
(307,325,c),
(305,332,o),
(301,339,o),
(301,352,c),
(301,381,o),
(324,391,o),
(336,391,c),
(362,391,o),
(371,377,o),
(377,369,c),
(379,367,o),
(381,367,o),
(382,369,c),
(383,370,o),
(384,372,o),
(384,373,c),
(389,382,o),
(397,397,o),
(416,397,c),
(432,397,o),
(445,386,o),
(451,368,c),
(454,359,o),
(455,349,o),
(455,343,c),
(455,342,o),
(455,341,o),
(456,341,c),
(492,293,l),
(506,274,o),
(510,256,o),
(503,238,c),
(496,218,o),
(477,208,o),
(447,208,c),
(410,208,l),
(407,208,o),
(404,206,o),
(404,202,c),
(404,72,l),
(404,69,o),
(411,63,o),
(416,59,c),
(422,54,o),
(428,48,o),
(433,41,c),
(442,28,o),
(439,10,o),
(426,0,c),
(416,-8,o),
(399,-13,o),
(377,-13,c),
(318,-13,o),
(311,17,o),
(311,21,c),
(311,22,l),
(311,114,l),
(311,117,o),
(308,120,o),
(304,120,c),
(226,120,l),
(223,120,o),
(216,113,o),
(212,108,c),
(199,96,o),
(182,78,o),
(152,73,c),
(151,73,o),
(149,71,o),
(149,70,c),
(149,63,l),
(149,61,o),
(154,58,o),
(157,55,c),
(160,53,o),
(164,50,o),
(168,46,c),
(174,40,o),
(177,32,o),
(176,23,c),
(175,14,o),
(171,6,o),
(164,0,c),
(152,-8,o),
(136,-13,o),
(116,-13,c),
(60,-13,o),
(51,16,o),
(50,20,c),
(49,21,l),
(49,187,l),
(49,190,o),
(50,192,o),
(50,195,c),
(50,196,o),
(50,198,o),
(48,199,c),
(34,207,o),
(12,226,o),
(6,259,c)
);
},
{
attr = {
fillColor = (0,255);
};
closed = 1;
nodes = (
(391,301,o),
(396,307,o),
(403,307,c),
(409,307,o),
(415,301,o),
(415,295,c),
(415,288,o),
(409,283,o),
(403,283,c),
(396,283,o),
(391,288,o),
(391,295,c)
);
}
);
width = 512;
}
);
unicode = 57441;
},
{
glyphname = session;
lastChange = "2022-10-06 18:28:32 +0000";
layers = (
{
layerId = m01;
shapes = (
{
attr = {
fillColor = (0,255);
};
closed = 1;
nodes = (
(318,241,l),
(383,241,l),
(440,241,o),
(487,288,o),
(487,345,c),
(487,402,o),
(440,448,o),
(383,448,c),
(155,448,l),
(83,448,o),
(25,390,o),
(25,319,c),
(25,268,o),
(53,221,o),
(97,196,c),
(194,143,l),
(129,143,l),
(72,143,o),
(25,96,o),
(25,39,c),
(25,-18,o),
(72,-64,o),
(129,-64,c),
(357,-64,l),
(429,-64,o),
(487,-6,o),
(487,65,c),
(487,116,o),
(459,163,o),
(415,188,c)
);
},
{
attr = {
fillColor = (0,255);
};
closed = 1;
nodes = (
(79,243,o),
(58,278,o),
(57,316,c),
(56,371,o),
(102,416,o),
(157,416,c),
(381,416,l),
(420,416,o),
(453,387,o),
(455,348,c),
(457,307,o),
(424,273,o),
(383,273,c),
(383,273,o),
(291,273,o),
(254,273,c),
(246,273,o),
(240,267,o),
(240,259,c),
(240,154,l),
(113,224,l)
);
},
{
attr = {
fillColor = (0,255);
};
closed = 1;
nodes = (
(131,-32,l),
(92,-32,o),
(59,-3,o),
(57,36,c),
(55,77,o),
(88,111,o),
(129,111,c),
(258,111,l),
(266,111,o),
(272,117,o),
(272,125,c),
(272,230,l),
(399,160,l),
(433,141,o),
(454,106,o),
(455,68,c),
(456,13,o),
(410,-32,o),
(355,-32,c)
);
}
);
width = 512;
}
);
unicode = 57442;
},
{
glyphname = verified;
lastChange = "2022-09-08 16:51:00 +0000";
layers = (
{
layerId = m01;
shapes = (
{
attr = {
fillColor = (0,255);
};
closed = 1;
nodes = (
(293,448,o),
(325,427,o),
(341,397,c),
(374,407,o),
(411,399,o),
(437,373,c),
(463,347,o),
(471,310,o),
(461,277,c),
(491,261,o),
(512,229,o),
(512,192,c),
(512,155,o),
(491,123,o),
(461,107,c),
(471,74,o),
(463,37,o),
(437,11,c),
(411,-15,o),
(374,-23,o),
(341,-13,c),
(325,-43,o),
(293,-64,o),
(256,-64,c),
(219,-64,o),
(187,-43,o),
(171,-13,c),
(138,-23,o),
(101,-15,o),
(75,11,c),
(49,37,o),
(41,74,o),
(51,107,c),
(21,123,o),
(0,155,o),
(0,192,c),
(0,229,o),
(21,261,o),
(51,277,c),
(41,310,o),
(49,347,o),
(75,373,c),
(101,399,o),
(138,407,o),
(171,397,c),
(187,427,o),
(219,448,o),
(256,448,c)
);
},
{
attr = {
fillColor = (0,255);
};
closed = 1;
nodes = (
(362,232,o),
(362,248,o),
(353,257,c),
(344,266,o),
(328,266,o),
(319,257,c),
(224,162,l),
(185,201,l),
(176,210,o),
(160,210,o),
(151,201,c),
(142,192,o),
(142,176,o),
(151,167,c),
(207,111,l),
(217,102,o),
(232,102,o),
(241,111,c),
(353,223,l)
);
}
);
width = 512;
}
);
unicode = 57443;
},
{
glyphname = "wikimedia-community";
lastChange = "2022-10-14 02:35:43 +0000";
layers = (
{
layerId = m01;
shapes = (
{
attr = {
fillColor = (0,255);
};
closed = 1;
nodes = (
(145,309,o),
(138,309,o),
(131,309,c),
(145,323,o),
(161,335,o),
(180,345,c),
(169,334,o),
(160,322,o),
(152,310,c)
);
},
{
attr = {
fillColor = (0,255);
};
closed = 1;
nodes = (
(248,358,o),
(244,353,o),
(239,349,c),
(225,351,o),
(210,352,o),
(196,352,c),
(214,359,o),
(234,362,o),
(252,363,c)
);
},
{
attr = {
fillColor = (0,255);
};
closed = 1;
nodes = (
(194,320,l),
(185,317,o),
(176,314,o),
(167,312,c),
(173,321,o),
(180,329,o),
(187,336,c)
);
},
{
attr = {
fillColor = (0,255);
};
closed = 1;
nodes = (
(220,334,o),
(212,329,o),
(204,325,c),
(197,340,l),
(207,341,o),
(217,340,o),
(227,339,c)
);
},
{
attr = {
fillColor = (0,255);
};
closed = 1;
nodes = (
(337,328,o),
(331,318,o),
(323,309,c),
(302,326,o),
(278,339,o),
(252,346,c),
(257,351,o),
(262,356,o),
(267,362,c),
(294,360,o),
(320,352,o),
(344,338,c)
);
},
{
attr = {
fillColor = (0,255);
};
closed = 1;
nodes = (
(132,274,o),
(125,248,o),
(124,221,c),
(112,221,o),
(100,223,o),
(88,225,c),
(93,251,o),
(105,276,o),
(122,298,c),
(129,297,o),
(137,297,o),
(145,298,c)
);
},
{
attr = {
fillColor = (0,255);
};
closed = 1;
nodes = (
(295,278,o),
(269,258,o),
(239,244,c),
(209,315,l),
(221,321,o),
(232,328,o),
(242,336,c),
(269,331,o),
(294,318,o),
(315,301,c)
);
},
{
attr = {
fillColor = (0,255);
};
closed = 1;
nodes = (
(229,239,l),
(198,227,o),
(167,221,o),
(135,220,c),
(137,248,o),
(145,275,o),
(158,299,c),
(172,301,o),
(185,305,o),
(198,310,c)
);
},
{
attr = {
fillColor = (0,255);
};
closed = 1;
nodes = (
(401,252,o),
(390,239,o),
(379,228,c),
(377,232,o),
(375,237,o),
(373,242,c),
(363,265,o),
(349,285,o),
(331,302,c),
(339,311,o),
(347,322,o),
(353,332,c),
(377,316,o),
(397,293,o),
(410,265,c)
);
},
{
attr = {
fillColor = (0,255);
};
closed = 1;
nodes = (
(124,186,o),
(129,163,o),
(139,140,c),
(141,135,o),
(144,130,o),
(147,125,c),
(130,124,o),
(114,125,o),
(97,126,c),
(86,155,o),
(82,185,o),
(86,214,c),
(99,211,o),
(111,210,o),
(124,209,c)
);
},
{
attr = {
fillColor = (0,255);
};
closed = 1;
nodes = (
(365,231,o),
(368,225,o),
(370,219,c),
(343,193,o),
(312,172,o),
(278,156,c),
(244,234,l),
(275,248,o),
(302,269,o),
(324,293,c),
(340,278,o),
(353,259,o),
(363,237,c)
);
},
{
attr = {
fillColor = (0,255);
};
closed = 1;
nodes = (
(267,151,l),
(232,136,o),
(196,128,o),
(159,125,c),
(156,132,o),
(152,138,o),
(149,145,c),
(140,166,o),
(136,188,o),
(135,209,c),
(168,209,o),
(201,216,o),
(233,229,c)
);
},
{
attr = {
fillColor = (0,255);
};
closed = 1;
nodes = (
(411,146,o),
(397,135,o),
(382,124,c),
(390,153,o),
(390,185,o),
(382,215,c),
(394,227,o),
(406,240,o),
(416,253,c),
(428,222,o),
(430,190,o),
(424,159,c)
);
},
{
attr = {
fillColor = (0,255);
};
closed = 1;
nodes = (
(170,87,o),
(194,67,o),
(220,52,c),
(203,49,o),
(185,46,o),
(167,45,c),
(140,61,o),
(118,85,o),
(103,114,c),
(120,113,o),
(136,113,o),
(153,113,c)
);
},
{
attr = {
fillColor = (0,255);
};
closed = 1;
nodes = (
(367,114,o),
(367,114,o),
(367,114,c),
(349,102,o),
(330,91,o),
(310,82,c),
(282,145,l),
(316,161,o),
(347,182,o),
(373,206,c),
(380,175,o),
(377,143,o),
(367,114,c)
);
},
{
attr = {
fillColor = (0,255);
};
closed = 1;
nodes = (
(299,77,l),
(279,69,o),
(258,62,o),
(238,56,c),
(210,69,o),
(185,88,o),
(166,114,c),
(202,118,o),
(237,126,o),
(272,141,c)
);
},
{
attr = {
fillColor = (0,255);
};
closed = 1;
nodes = (
(352,57,o),
(367,81,o),
(377,106,c),
(392,116,o),
(406,127,o),
(419,139,c),
(405,96,o),
(375,59,o),
(332,38,c)
);
},
{
attr = {
fillColor = (0,255);
};
closed = 1;
nodes = (
(262,34,o),
(289,30,o),
(316,31,c),
(272,14,o),
(226,17,o),
(185,35,c),
(203,37,o),
(220,40,o),
(237,44,c)
);
},
{
attr = {
fillColor = (0,255);
};
closed = 1;
nodes = (
(314,71,l),
(330,79,o),
(345,87,o),
(360,95,c),
(351,77,o),
(339,61,o),
(325,47,c)
);
},
{
attr = {
fillColor = (0,255);
};
closed = 1;
nodes = (
(314,42,l),
(295,41,o),
(275,44,o),
(256,50,c),
(272,54,o),
(288,60,o),
(304,67,c)
);
},
{
attr = {
fillColor = (0,255);
};
closed = 1;
nodes = (
(418,308,l),
(382,358,o),
(323,391,o),
(256,391,c),
(189,391,o),
(130,358,o),
(94,308,c),
(44,337,l),
(91,404,o),
(168,448,o),
(256,448,c),
(344,448,o),
(421,404,o),
(468,337,c)
);
},
{
attr = {
fillColor = (0,255);
};
closed = 1;
nodes = (
(67,258,l),
(60,237,o),
(56,215,o),
(56,191,c),
(56,91,o),
(131,7,o),
(227,-7,c),
(227,-64,l),
(99,-50,o),
(-1,59,o),
(-1,191,c),
(-1,225,o),
(6,257,o),
(17,287,c)
);
},
{
attr = {
fillColor = (0,255);
};
closed = 1;
nodes = (
(513,59,o),
(413,-50,o),
(285,-64,c),
(285,-7,l),
(381,7,o),
(456,91,o),
(456,191,c),
(456,215,o),
(452,237,o),
(445,258,c),
(495,287,l),
(506,257,o),
(513,225,o),
(513,191,c)
);
}
);
width = 512;
}
);
unicode = 57444;
},
{
glyphname = mediawiki;
lastChange = "2022-10-14 02:45:24 +0000";
layers = (
{
layerId = m01;
shapes = (
{
attr = {
fillColor = (0,255);
};
closed = 1;
nodes = (
(182,363,o),
(185,345,o),
(195,329,c),
(202,318,o),
(213,310,o),
(225,306,c),
(229,306,o),
(233,307,o),
(236,309,c),
(250,322,o),
(257,339,o),
(255,359,c),
(251,395,o),
(229,420,o),
(202,443,c),
(191,423,o),
(185,403,o),
(183,382,c)
);
},
{
attr = {
fillColor = (0,255);
};
closed = 1;
nodes = (
(148,344,o),
(155,327,o),
(168,313,c),
(177,304,o),
(189,299,o),
(202,298,c),
(206,298,o),
(210,300,o),
(212,303,c),
(223,319,o),
(227,336,o),
(220,355,c),
(209,390,o),
(183,409,o),
(151,426,c),
(145,404,o),
(143,384,o),
(145,363,c)
);
},
{
attr = {
fillColor = (0,255);
};
closed = 1;
nodes = (
(119,318,o),
(129,303,o),
(145,293,c),
(156,286,o),
(169,283,o),
(182,284,c),
(185,285,o),
(189,288,o),
(190,291,c),
(198,309,o),
(197,327,o),
(187,345,c),
(169,376,o),
(139,389,o),
(105,400,c),
(103,377,o),
(105,356,o),
(112,337,c)
);
},
{
attr = {
fillColor = (0,255);
};
closed = 1;
nodes = (
(95,287,o),
(108,275,o),
(126,267,c),
(139,263,o),
(152,263,o),
(164,267,c),
(168,269,o),
(170,272,o),
(171,276,c),
(175,295,o),
(171,312,o),
(157,327,c),
(132,354,o),
(101,361,o),
(65,364,c),
(68,341,o),
(74,322,o),
(85,304,c)
);
},
{
attr = {
fillColor = (0,255);
};
closed = 1;
nodes = (
(79,252,o),
(95,242,o),
(114,239,c),
(126,237,o),
(140,240,o),
(150,247,c),
(154,249,o),
(156,253,o),
(156,257,c),
(155,276,o),
(148,292,o),
(131,304,c),
(101,325,o),
(69,325,o),
(33,321,c),
(41,299,o),
(51,281,o),
(66,266,c)
);
},
{
attr = {
fillColor = (0,255);
};
closed = 1;
nodes = (
(71,214,o),
(88,208,o),
(107,209,c),
(120,209,o),
(132,215,o),
(141,224,c),
(144,227,o),
(145,231,o),
(145,235,c),
(140,253,o),
(129,268,o),
(110,276,c),
(77,290,o),
(45,284,o),
(12,272,c),
(24,252,o),
(37,237,o),
(55,225,c)
);
},
{
attr = {
fillColor = (0,255);
};
closed = 1;
nodes = (
(70,175,o),
(88,173,o),
(107,178,c),
(119,181,o),
(130,189,o),
(137,199,c),
(139,203,o),
(140,207,o),
(138,211,c),
(130,228,o),
(116,240,o),
(96,244,c),
(61,251,o),
(31,238,o),
(0,219,c),
(16,203,o),
(33,191,o),
(52,183,c)
);
},
{
attr = {
fillColor = (0,255);
};
closed = 1;
nodes = (
(78,137,o),
(96,138,o),
(113,147,c),
(125,153,o),
(134,163,o),
(138,175,c),
(140,179,o),
(139,183,o),
(137,186,c),
(125,201,o),
(109,210,o),
(89,210,c),
(53,209,o),
(26,190,o),
(0,166,c),
(19,153,o),
(38,145,o),
(59,141,c)
);
},
{
attr = {
fillColor = (0,255);
};
closed = 1;
nodes = (
(93,102,o),
(111,107,o),
(126,119,c),
(136,127,o),
(142,138,o),
(145,151,c),
(145,155,o),
(144,159,o),
(141,162,c),
(126,174,o),
(109,179,o),
(89,175,c),
(54,167,o),
(32,143,o),
(11,113,c),
(33,105,o),
(53,101,o),
(74,101,c)
);
},
{
attr = {
fillColor = (0,255);
};
closed = 1;
nodes = (
(115,70,o),
(132,78,o),
(144,93,c),
(152,103,o),
(156,116,o),
(156,129,c),
(155,133,o),
(153,136,o),
(150,138,c),
(133,148,o),
(115,149,o),
(96,141,c),
(64,125,o),
(47,98,o),
(33,65,c),
(56,61,o),
(76,61,o),
(97,65,c)
);
},
{
attr = {
fillColor = (0,255);
};
closed = 1;
nodes = (
(144,44,o),
(158,55,o),
(167,72,c),
(173,84,o),
(174,97,o),
(171,110,c),
(170,113,o),
(167,116,o),
(163,118,c),
(145,123,o),
(127,121,o),
(111,109,c),
(82,87,o),
(71,56,o),
(64,21,c),
(87,22,o),
(107,26,o),
(126,35,c)
);
},
{
attr = {
fillColor = (0,255);
};
closed = 1;
nodes = (
(177,24,o),
(189,38,o),
(194,57,c),
(197,69,o),
(196,82,o),
(190,94,c),
(188,97,o),
(185,100,o),
(181,100,c),
(161,102,o),
(145,96,o),
(131,81,c),
(107,53,o),
(103,21,o),
(104,-15,c),
(126,-9,o),
(145,-1,o),
(162,12,c)
);
},
{
attr = {
fillColor = (0,255);
};
closed = 1;
nodes = (
(214,11,o),
(222,28,o),
(223,47,c),
(224,60,o),
(220,72,o),
(212,83,c),
(209,86,o),
(205,87,o),
(201,87,c),
(182,84,o),
(167,75,o),
(157,57,c),
(139,26,o),
(142,-7,o),
(151,-42,c),
(171,-31,o),
(188,-19,o),
(201,-3,c)
);
},
{
attr = {
fillColor = (0,255);
};
closed = 1;
nodes = (
(252,7,o),
(257,24,o),
(254,43,c),
(252,56,o),
(246,68,o),
(236,76,c),
(232,78,o),
(228,79,o),
(225,78,c),
(206,72,o),
(193,59,o),
(187,40,c),
(177,5,o),
(186,-26,o),
(201,-58,c),
(219,-44,o),
(233,-29,o),
(243,-10,c)
);
},
{
attr = {
fillColor = (0,255);
};
closed = 1;
nodes = (
(291,10,o),
(292,28,o),
(285,47,c),
(280,59,o),
(272,69,o),
(260,75,c),
(257,76,o),
(252,76,o),
(249,74,c),
(232,64,o),
(222,49,o),
(220,29,c),
(217,-7,o),
(233,-35,o),
(255,-64,c),
(269,-46,o),
(280,-29,o),
(286,-8,c)
);
},
{
attr = {
fillColor = (0,255);
};
closed = 1;
nodes = (
(328,22,o),
(325,40,o),
(315,56,c),
(308,67,o),
(297,75,o),
(285,78,c),
(281,79,o),
(277,78,o),
(274,76,c),
(260,62,o),
(253,46,o),
(255,26,c),
(259,-10,o),
(281,-35,o),
(308,-58,c),
(319,-38,o),
(325,-19,o),
(327,2,c)
);
},
{
attr = {
fillColor = (0,255);
};
closed = 1;
nodes = (
(362,41,o),
(355,58,o),
(342,71,c),
(333,81,o),
(321,86,o),
(308,87,c),
(304,87,o),
(300,85,o),
(298,82,c),
(287,66,o),
(283,48,o),
(290,29,c),
(301,-5,o),
(327,-25,o),
(359,-42,c),
(365,-20,o),
(367,1,o),
(365,22,c)
);
},
{
attr = {
fillColor = (0,255);
};
closed = 1;
nodes = (
(391,66,o),
(381,81,o),
(365,92,c),
(354,99,o),
(341,102,o),
(328,100,c),
(325,99,o),
(321,97,o),
(320,93,c),
(312,75,o),
(313,58,o),
(323,40,c),
(341,9,o),
(371,-5,o),
(405,-15,c),
(407,8,o),
(405,28,o),
(398,48,c)
);
},
{
attr = {
fillColor = (0,255);
};
closed = 1;
nodes = (
(415,97,o),
(402,110,o),
(384,117,c),
(371,122,o),
(358,122,o),
(346,117,c),
(342,116,o),
(340,113,o),
(339,109,c),
(335,90,o),
(339,72,o),
(353,57,c),
(378,31,o),
(409,24,o),
(445,21,c),
(442,43,o),
(436,63,o),
(425,81,c)
);
},
{
attr = {
fillColor = (0,255);
};
closed = 1;
nodes = (
(431,132,o),
(415,142,o),
(396,145,c),
(384,148,o),
(370,145,o),
(360,138,c),
(356,136,o),
(354,132,o),
(354,128,c),
(355,109,o),
(362,93,o),
(379,81,c),
(409,60,o),
(441,59,o),
(477,64,c),
(469,85,o),
(459,103,o),
(444,119,c)
);
},
{
attr = {
fillColor = (0,255);
};
closed = 1;
nodes = (
(439,170,o),
(422,177,o),
(403,176,c),
(390,175,o),
(378,170,o),
(369,161,c),
(366,158,o),
(365,154,o),
(365,150,c),
(370,131,o),
(381,117,o),
(400,109,c),
(433,95,o),
(465,101,o),
(498,113,c),
(486,132,o),
(473,148,o),
(455,160,c)
);
},
{
attr = {
fillColor = (0,255);
};
closed = 1;
nodes = (
(440,209,o),
(422,212,o),
(403,207,c),
(391,204,o),
(380,196,o),
(373,185,c),
(371,182,o),
(370,178,o),
(372,174,c),
(380,156,o),
(394,145,o),
(414,141,c),
(449,134,o),
(479,147,o),
(510,165,c),
(494,182,o),
(477,194,o),
(458,202,c)
);
},
{
attr = {
fillColor = (0,255);
};
closed = 1;
nodes = (
(432,247,o),
(414,246,o),
(397,238,c),
(385,232,o),
(376,222,o),
(372,210,c),
(370,206,o),
(371,202,o),
(373,199,c),
(385,183,o),
(401,175,o),
(421,175,c),
(457,175,o),
(484,194,o),
(510,219,c),
(491,231,o),
(472,240,o),
(451,244,c)
);
},
{
attr = {
fillColor = (0,255);
};
closed = 1;
nodes = (
(417,283,o),
(399,278,o),
(384,266,c),
(374,258,o),
(368,246,o),
(365,234,c),
(365,230,o),
(366,226,o),
(369,223,c),
(384,210,o),
(401,205,o),
(421,210,c),
(456,218,o),
(478,242,o),
(499,271,c),
(477,280,o),
(457,284,o),
(436,283,c)
);
},
{
attr = {
fillColor = (0,255);
};
closed = 1;
nodes = (
(395,315,o),
(378,306,o),
(366,291,c),
(358,281,o),
(354,269,o),
(354,256,c),
(355,252,o),
(357,248,o),
(360,246,c),
(377,237,o),
(395,235,o),
(414,244,c),
(446,259,o),
(463,287,o),
(477,320,c),
(454,324,o),
(434,324,o),
(413,319,c)
);
},
{
attr = {
fillColor = (0,255);
};
closed = 1;
nodes = (
(366,341,o),
(352,329,o),
(343,312,c),
(337,301,o),
(336,287,o),
(339,275,c),
(340,271,o),
(343,268,o),
(347,267,c),
(365,261,o),
(383,264,o),
(399,276,c),
(428,297,o),
(439,328,o),
(446,363,c),
(423,362,o),
(403,358,o),
(384,349,c)
);
},
{
attr = {
fillColor = (0,255);
};
closed = 1;
nodes = (
(333,361,o),
(321,347,o),
(316,328,c),
(313,315,o),
(314,302,o),
(320,291,c),
(322,287,o),
(325,285,o),
(329,284,c),
(349,283,o),
(365,289,o),
(379,304,c),
(403,331,o),
(407,363,o),
(406,399,c),
(384,394,o),
(365,385,o),
(348,373,c)
);
},
{
attr = {
fillColor = (0,255);
};
closed = 1;
nodes = (
(296,373,o),
(288,357,o),
(287,338,c),
(286,325,o),
(290,312,o),
(298,302,c),
(301,299,o),
(305,297,o),
(309,298,c),
(328,300,o),
(343,310,o),
(353,327,c),
(371,359,o),
(368,391,o),
(359,426,c),
(339,416,o),
(322,404,o),
(309,388,c)
);
},
{
attr = {
fillColor = (0,255);
};
closed = 1;
nodes = (
(258,378,o),
(253,360,o),
(256,341,c),
(258,328,o),
(264,317,o),
(274,309,c),
(278,306,o),
(282,306,o),
(285,307,c),
(304,313,o),
(317,325,o),
(323,345,c),
(333,379,o),
(324,410,o),
(309,443,c),
(291,429,o),
(277,413,o),
(267,395,c)
);
},
{
attr = {
fillColor = (0,255);
};
closed = 1;
nodes = (
(219,375,o),
(218,356,o),
(225,338,c),
(229,326,o),
(238,316,o),
(250,310,c),
(253,308,o),
(258,309,o),
(261,310,c),
(278,321,o),
(288,335,o),
(290,355,c),
(293,392,o),
(277,420,o),
(255,448,c),
(241,431,o),
(230,413,o),
(224,393,c)
);
}
);
width = 510;
}
);
unicode = 57445;
},
{
glyphname = sourcehut;
lastChange = "2022-10-22 17:38:46 +0000";
layers = (
{
layerId = m01;
shapes = (
{
attr = {
fillColor = (0,255);
};
closed = 1;
nodes = (
(512,55,o),
(397,-60,o),
(256,-60,c),
(115,-60,o),
(0,55,o),
(0,196,c),
(0,337,o),
(115,452,o),
(256,452,c),
(397,452,o),
(512,337,o),
(512,196,c)
);
},
{
attr = {
fillColor = (0,255);
};
closed = 1;
nodes = (
(142,402,o),
(50,310,o),
(50,196,c),
(50,82,o),
(142,-10,o),
(256,-10,c),
(370,-10,o),
(462,82,o),
(462,196,c),
(462,310,o),
(370,402,o),
(256,402,c)
);
}
);
width = 512;
}
);
unicode = 57446;
},
{
glyphname = sudomemo;
lastChange = "2022-10-22 16:54:39 +0000";
layers = (
{
layerId = m01;
shapes = (
{
closed = 1;
nodes = (
(36,413,o),
(23,406,o),
(14,396,c),
(10,392,o),
(5,381,o),
(4,375,c),
(0,358,o),
(2,337,o),
(13,296,c),
(18,278,o),
(23,266,o),
(46,206,c),
(58,178,l),
(58,161,l),
(59,146,o),
(59,139,o),
(61,129,c),
(62,125,o),
(62,125,o),
(58,124,c),
(54,122,o),
(48,117,o),
(46,112,c),
(42,105,o),
(43,98,o),
(47,85,c),
(51,73,o),
(59,58,o),
(63,53,c),
(65,51,o),
(66,48,o),
(66,47,c),
(66,45,o),
(67,43,o),
(68,41,c),
(69,37,o),
(80,23,o),
(86,17,c),
(94,9,o),
(107,2,o),
(119,-2,c),
(128,-4,o),
(147,-5,o),
(157,-2,c),
(163,0,l),
(171,-4,l),
(183,-10,o),
(205,-17,o),
(220,-20,c),
(235,-23,o),
(264,-24,o),
(280,-22,c),
(302,-19,o),
(326,-13,o),
(344,-5,c),
(351,-1,l),
(359,-3,l),
(369,-5,o),
(386,-4,o),
(395,-1,c),
(412,4,o),
(424,13,o),
(437,29,c),
(444,38,o),
(446,41,o),
(446,45,c),
(446,48,o),
(447,50,o),
(451,55,c),
(460,67,o),
(468,86,o),
(469,100,c),
(469,108,o),
(469,108,o),
(466,113,c),
(464,117,o),
(458,122,o),
(454,124,c),
(453,124,o),
(454,126,o),
(454,129,c),
(456,137,o),
(458,160,o),
(457,172,c),
(457,183,l),
(471,219,l),
(494,277,o),
(499,291,o),
(505,319,c),
(510,341,o),
(512,363,o),
(509,375,c),
(505,391,o),
(494,403,o),
(480,410,c),
(472,414,o),
(464,415,o),
(453,414,c),
(435,413,o),
(434,413,o),
(348,369,c),
(320,355,l),
(293,370,l),
(279,378,o),
(265,386,o),
(263,387,c),
(255,392,o),
(241,393,o),
(230,391,c),
(215,388,o),
(201,377,o),
(195,363,c),
(194,361,o),
(193,358,o),
(191,356,c),
(191,356,o),
(168,368,o),
(139,382,c),
(106,399,o),
(83,410,o),
(78,411,c),
(72,413,o),
(56,416,o),
(54,415,c),
(54,415,o),
(52,415,o),
(51,415,cs)
);
},
{
closed = 1;
nodes = (
(76,366,o),
(114,348,o),
(134,338,c),
(151,329,o),
(172,317,o),
(174,315,c),
(175,315,o),
(174,313,o),
(169,311,c),
(144,297,o),
(121,276,o),
(106,252,c),
(101,244,o),
(92,227,o),
(90,221,c),
(90,218,o),
(89,217,o),
(88,217,c),
(87,218,o),
(73,255,o),
(66,273,c),
(56,300,o),
(46,336,o),
(45,353,c),
(44,370,o),
(50,375,o),
(68,369,cs)
);
},
{
closed = 1;
nodes = (
(466,368,o),
(467,366,o),
(467,356,c),
(467,343,o),
(460,314,o),
(451,286,c),
(446,271,o),
(426,220,o),
(425,221,c),
(425,222,o),
(423,225,o),
(421,229,c),
(408,262,o),
(381,291,o),
(349,309,c),
(338,315,l),
(349,321,l),
(369,333,o),
(390,344,o),
(412,354,c),
(436,366,o),
(443,369,o),
(450,370,c),
(456,372,o),
(458,372,o),
(462,370,cs)
);
},
{
closed = 1;
nodes = (
(215,323,o),
(215,322,o),
(212,321,c),
(204,317,o),
(199,308,o),
(199,298,c),
(198,290,o),
(199,285,o),
(203,280,c),
(206,276,o),
(213,270,o),
(216,269,c),
(217,268,o),
(217,268,o),
(216,266,c),
(213,262,o),
(211,252,o),
(212,247,c),
(214,228,o),
(234,217,o),
(251,224,c),
(254,225,o),
(268,233,o),
(282,241,c),
(296,249,o),
(308,256,o),
(309,256,c),
(309,256,o),
(311,252,o),
(310,251,c),
(309,249,o),
(254,218,o),
(251,217,c),
(249,216,o),
(245,216,o),
(241,216,c),
(227,215,o),
(214,224,o),
(208,238,c),
(206,244,o),
(206,256,o),
(208,261,c),
(210,265,l),
(203,272,l),
(198,277,o),
(197,279,o),
(195,285,c),
(190,300,o),
(196,317,o),
(209,325,c),
(214,328,o),
(215,328,o),
(215,325,cs)
);
},
{
closed = 1;
nodes = (
(174,178,o),
(176,175,o),
(176,164,c),
(176,154,o),
(174,150,o),
(169,146,c),
(166,144,o),
(157,144,o),
(153,147,c),
(149,150,o),
(147,154,o),
(147,164,c),
(147,174,o),
(148,177,o),
(153,181,c),
(157,184,o),
(164,184,o),
(169,182,cs)
);
},
{
closed = 1;
nodes = (
(364,178,o),
(365,174,o),
(365,164,c),
(365,154,o),
(364,150,o),
(359,147,c),
(355,144,o),
(347,144,o),
(343,146,c),
(338,150,o),
(337,154,o),
(337,164,c),
(337,174,o),
(338,178,o),
(343,181,c),
(347,184,o),
(355,184,o),
(359,181,cs)
);
},
{
closed = 1;
nodes = (
(281,127,o),
(286,122,o),
(287,118,c),
(287,116,o),
(288,115,o),
(288,115,c),
(288,115,o),
(323,112,o),
(365,109,c),
(407,105,o),
(442,102,o),
(444,102,c),
(446,102,o),
(446,100,o),
(444,91,c),
(439,76,o),
(430,64,o),
(420,59,c),
(417,58,o),
(414,56,o),
(414,56,c),
(410,56,o),
(412,54,o),
(417,52,c),
(420,50,o),
(422,48,o),
(422,48,c),
(422,46,o),
(416,38,o),
(412,34,c),
(395,19,o),
(375,15,o),
(354,22,c),
(350,24,l),
(339,19,l),
(316,7,o),
(285,0,o),
(257,0,c),
(230,-1,o),
(200,7,o),
(175,19,c),
(164,24,l),
(156,22,l),
(147,19,o),
(135,18,o),
(127,20,c),
(119,22,o),
(109,27,o),
(102,33,c),
(97,38,o),
(89,48,o),
(90,48,c),
(90,48,o),
(92,50,o),
(95,52,c),
(101,55,o),
(103,56,o),
(100,56,c),
(99,56,o),
(96,58,o),
(92,59,c),
(85,63,o),
(78,70,o),
(73,81,c),
(69,89,o),
(65,101,o),
(66,102,c),
(67,102,o),
(221,115,o),
(224,115,c),
(225,115,o),
(226,117,o),
(226,119,c),
(228,123,o),
(232,127,o),
(237,128,c),
(239,129,o),
(241,129,o),
(242,130,c),
(244,130,o),
(273,129,o),
(276,128,cs)
);
},
{
closed = 1;
nodes = (
(235,124,o),
(233,123,o),
(231,120,c),
(228,117,o),
(229,115,o),
(238,105,c),
(254,87,o),
(259,87,o),
(275,105,c),
(285,116,o),
(285,118,o),
(281,122,c),
(279,123,o),
(276,125,o),
(274,125,c),
(269,127,o),
(247,127,o),
(241,126,cs)
);
},
{
attr = {
fillColor = (0,255);
};
closed = 1;
nodes = (
(215,73,o),
(213,71,o),
(213,68,c),
(213,67,o),
(215,65,o),
(219,61,c),
(229,51,o),
(239,48,o),
(257,48,c),
(274,48,o),
(287,52,o),
(296,62,c),
(301,67,o),
(301,70,o),
(298,73,c),
(295,76,o),
(292,75,o),
(287,69,c),
(279,61,o),
(266,57,o),
(251,59,c),
(239,61,o),
(234,63,o),
(227,69,c),
(222,74,o),
(220,75,o),
(218,74,cs)
);
}
);
width = 512;
}
);
unicode = 57447;
},
{
glyphname = "rate-your-music";
lastChange = "2022-10-22 17:15:39 +0000";
layers = (
{
layerId = m01;
shapes = (
{
attr = {
fillColor = (0,255);
};
closed = 1;
nodes = (
(275,170,o),
(267,145,o),
(277,122,c),
(287,100,o),
(312,89,o),
(332,98,c),
(352,107,o),
(360,133,o),
(349,155,c),
(339,178,o),
(314,189,o),
(295,180,c)
);
},
{
attr = {
fillColor = (0,255);
};
closed = 1;
nodes = (
(480,72,o),
(380,-28,o),
(256,-28,c),
(132,-28,o),
(32,72,o),
(32,196,c),
(32,284,o),
(98,395,o),
(174,395,c),
(213,395,o),
(268,322,o),
(297,306,c),
(350,279,o),
(456,288,o),
(458,287,c),
(467,281,o),
(480,241,o),
(480,196,c)
);
},
{
attr = {
fillColor = (0,255);
};
closed = 1;
nodes = (
(115,452,o),
(0,337,o),
(0,196,c),
(0,55,o),
(115,-60,o),
(256,-60,c),
(397,-60,o),
(512,55,o),
(512,196,c),
(512,337,o),
(397,452,o),
(256,452,c)
);
}
);
width = 512;
}
);
unicode = 57448;
},
{
glyphname = read.cv;
lastChange = "2022-10-26 19:58:07 +0000";
layers = (
{
layerId = m01;
shapes = (
{
attr = {
fillColor = (0,255);
};
closed = 1;
nodes = (
(168,407,o),
(151,397,o),
(147,381,c),
(67,83,l),
(63,67,o),
(73,50,o),
(89,45,c),
(327,-19,l),
(344,-23,o),
(361,-13,o),
(365,3,c),
(445,301,l),
(449,317,o),
(439,334,o),
(423,339,c),
(185,403,l),
(185,403,l)
);
},
{
attr = {
fillColor = (0,255);
};
closed = 1;
nodes = (
(121,427,o),
(158,448,o),
(194,438,c),
(433,374,l),
(469,365,o),
(490,328,o),
(480,291,c),
(401,-6,l),
(391,-43,o),
(354,-64,o),
(318,-54,c),
(79,10,l),
(43,19,o),
(22,56,o),
(32,93,c),
(111,390,l)
);
},
{
attr = {
fillColor = (0,255);
};
closed = 1;
nodes = (
(180,338,o),
(190,344,o),
(200,341,c),
(379,293,l),
(393,289,o),
(397,272,o),
(387,262,c),
(382,258,o),
(376,256,o),
(369,257,c),
(191,305,l),
(181,308,o),
(175,318,o),
(178,328,c)
);
},
{
attr = {
fillColor = (0,255);
};
closed = 1;
nodes = (
(160,260,o),
(170,266,o),
(180,264,c),
(358,216,l),
(372,212,o),
(376,195,o),
(366,185,c),
(362,180,o),
(355,178,o),
(349,180,c),
(170,228,l),
(160,230,o),
(154,241,o),
(157,250,c),
(157,250,l)
);
},
{
attr = {
fillColor = (0,255);
};
closed = 1;
nodes = (
(139,183,o),
(149,189,o),
(159,186,c),
(278,154,l),
(292,151,o),
(296,133,o),
(286,123,c),
(281,119,o),
(275,117,o),
(268,118,c),
(149,150,l),
(139,153,o),
(133,163,o),
(136,173,c)
);
}
);
width = 512;
}
);
unicode = 57449;
},
{
glyphname = revolt;
lastChange = "2022-10-22 17:24:33 +0000";
layers = (
{
layerId = m01;
shapes = (
{
attr = {
fillColor = (0,255);
};
closed = 1;
nodes = (
(75,348,l),
(75,-60,l),
(199,-60,l),
(199,133,l),
(229,133,l),
(336,-60,l),
(476,-60,l),
(358,143,l),
(426,159,o),
(474,221,o),
(472,291,c),
(472,380,o),
(409,452,o),
(284,452,c),
(0,452,l)
);
},
{
attr = {
fillColor = (0,255);
};
closed = 1;
nodes = (
(277,348,l),
(323,348,o),
(345,324,o),
(345,286,c),
(345,246,o),
(323,222,o),
(277,222,c),
(199,222,l),
(199,348,l)
);
}
);
width = 476;
}
);
unicode = 57456;
},
{
glyphname = vukky;
lastChange = "2022-10-22 17:35:40 +0000";
layers = (
{
layerId = m01;
shapes = (
{
attr = {
fillColor = (0,255);
};
closed = 1;
nodes = (
(275,452,o),
(260,451,o),
(247,449,c),
(219,446,o),
(195,439,o),
(174,428,c),
(152,417,o),
(133,402,o),
(123,387,c),
(112,372,o),
(108,356,o),
(107,334,c),
(105,311,o),
(105,282,o),
(105,267,c),
(104,252,o),
(102,251,o),
(90,261,c),
(77,271,o),
(54,291,o),
(40,301,c),
(26,312,o),
(21,312,o),
(17,312,c),
(13,311,o),
(10,308,o),
(8,305,c),
(5,302,o),
(4,299,o),
(4,295,c),
(4,290,o),
(5,286,o),
(21,272,c),
(37,258,o),
(67,234,o),
(82,223,c),
(97,211,o),
(97,211,o),
(98,208,c),
(98,205,o),
(99,199,o),
(100,176,c),
(101,152,o),
(103,112,o),
(103,89,c),
(104,66,o),
(104,60,o),
(106,56,c),
(109,51,o),
(113,49,o),
(121,47,c),
(128,45,o),
(139,45,o),
(147,44,c),
(155,43,o),
(160,41,o),
(163,40,c),
(167,38,o),
(168,38,o),
(169,26,c),
(170,14,o),
(172,-10,o),
(173,-23,c),
(174,-35,o),
(174,-36,o),
(175,-38,c),
(177,-40,o),
(179,-43,o),
(182,-45,c),
(185,-47,o),
(188,-47,o),
(192,-47,c),
(196,-47,o),
(199,-46,o),
(202,-44,c),
(205,-42,o),
(206,-40,o),
(207,-26,c),
(208,-12,o),
(208,13,o),
(207,26,c),
(207,38,o),
(207,39,o),
(220,38,c),
(234,38,o),
(261,37,o),
(275,36,c),
(289,35,o),
(290,35,o),
(290,22,c),
(290,8,o),
(290,-18,o),
(290,-32,c),
(290,-47,o),
(291,-49,o),
(293,-52,c),
(295,-54,o),
(299,-57,o),
(302,-58,c),
(306,-60,o),
(309,-60,o),
(312,-59,c),
(315,-58,o),
(318,-55,o),
(320,-53,c),
(322,-51,o),
(323,-50,o),
(324,-35,c),
(325,-21,o),
(326,7,o),
(326,21,c),
(327,35,o),
(326,36,o),
(337,36,c),
(348,36,o),
(370,36,o),
(382,37,c),
(395,38,o),
(398,41,o),
(400,43,c),
(403,46,o),
(404,49,o),
(405,66,c),
(405,84,o),
(404,116,o),
(404,139,c),
(403,162,o),
(402,176,o),
(402,189,c),
(401,202,o),
(401,216,o),
(402,223,c),
(402,230,o),
(402,231,o),
(418,242,c),
(434,252,o),
(464,272,o),
(483,286,c),
(501,299,o),
(506,306,o),
(507,313,c),
(507,319,o),
(503,325,o),
(497,328,c),
(492,331,o),
(485,331,o),
(477,327,c),
(469,324,o),
(460,317,o),
(450,309,c),
(440,301,o),
(428,291,o),
(421,285,c),
(413,280,o),
(410,277,o),
(408,276,c),
(407,275,o),
(406,274,o),
(406,283,c),
(406,292,o),
(406,311,o),
(405,325,c),
(404,339,o),
(403,349,o),
(399,361,c),
(396,373,o),
(392,388,o),
(387,401,c),
(381,414,o),
(374,424,o),
(366,432,c),
(357,441,o),
(347,446,o),
(326,449,c),
(315,451,o),
(302,452,o),
(289,452,c)
);
}
);
width = 512;
}
);
unicode = 57457;
},
{
glyphname = laker;
lastChange = "2022-10-22 17:39:42 +0000";
layers = (
{
layerId = m01;
shapes = (
{
attr = {
fillColor = (0,255);
};
closed = 1;
nodes = (
(244,409,o),
(234,406,o),
(232,404,c),
(226,400,o),
(210,375,o),
(198,350,c),
(191,337,o),
(186,325,o),
(186,325,c),
(186,324,o),
(184,321,o),
(182,317,c),
(180,312,o),
(178,306,o),
(177,303,c),
(176,300,o),
(174,296,o),
(173,294,c),
(159,263,o),
(139,187,o),
(134,151,c),
(133,144,l),
(123,138,l),
(100,127,o),
(78,114,o),
(69,108,c),
(63,104,o),
(59,102,o),
(58,102,c),
(57,102,o),
(49,96,o),
(43,92,c),
(41,90,o),
(38,89,o),
(38,89,c),
(38,89,o),
(39,97,o),
(41,105,c),
(51,151,o),
(60,212,o),
(64,269,c),
(65,292,o),
(64,379,o),
(62,390,c),
(61,396,o),
(61,398,o),
(62,399,c),
(64,401,o),
(64,406,o),
(62,407,c),
(61,407,o),
(58,407,o),
(55,407,c),
(47,407,o),
(46,406,o),
(45,357,c),
(44,337,o),
(43,315,o),
(42,309,c),
(37,256,o),
(35,234,o),
(24,172,c),
(19,140,o),
(13,113,o),
(5,85,c),
(-1,64,o),
(-1,57,o),
(5,47,c),
(9,39,o),
(16,32,o),
(20,32,c),
(24,32,o),
(35,38,o),
(53,47,c),
(63,53,o),
(72,58,o),
(72,58,c),
(73,58,o),
(82,63,o),
(94,69,c),
(106,74,o),
(117,79,o),
(119,80,c),
(120,80,o),
(124,82,o),
(126,83,c),
(130,85,l),
(131,80,l),
(131,77,o),
(132,69,o),
(132,62,c),
(134,37,o),
(140,6,o),
(145,-5,c),
(147,-8,o),
(149,-12,o),
(151,-14,c),
(156,-18,o),
(159,-18,o),
(164,-12,c),
(169,-8,o),
(169,-4,o),
(165,-1,c),
(161,1,o),
(161,1,o),
(159,26,c),
(157,41,o),
(157,89,o),
(158,94,c),
(159,97,o),
(160,98,o),
(164,100,c),
(172,103,o),
(194,112,o),
(199,115,c),
(202,116,o),
(212,120,o),
(221,124,c),
(238,131,l),
(242,122,l),
(243,117,o),
(246,110,o),
(247,108,c),
(250,101,o),
(265,74,o),
(270,66,c),
(274,59,o),
(288,43,o),
(293,39,c),
(315,23,o),
(321,20,o),
(336,18,c),
(351,16,o),
(366,20,o),
(385,32,c),
(422,55,o),
(455,94,o),
(482,148,c),
(490,164,o),
(498,184,o),
(498,187,c),
(498,192,o),
(494,190,o),
(489,184,c),
(446,128,o),
(405,94,o),
(360,76,c),
(348,71,o),
(343,70,o),
(334,72,c),
(315,77,o),
(295,101,o),
(281,137,c),
(277,146,o),
(277,149,o),
(278,149,c),
(279,149,o),
(285,152,o),
(293,155,c),
(317,166,o),
(322,169,o),
(323,169,c),
(324,169,o),
(371,193,o),
(376,196,c),
(377,196,o),
(386,201,o),
(395,207,c),
(404,212,o),
(414,218,o),
(417,220,c),
(425,225,o),
(463,248,o),
(473,254,c),
(478,257,o),
(484,261,o),
(487,262,c),
(489,264,o),
(494,267,o),
(498,269,c),
(509,274,o),
(511,276,o),
(511,278,c),
(511,282,o),
(497,283,o),
(472,279,c),
(454,277,o),
(437,273,o),
(407,264,c),
(396,260,o),
(384,257,o),
(379,255,c),
(366,252,o),
(351,247,o),
(332,239,c),
(315,232,o),
(308,229,o),
(284,217,c),
(278,215,o),
(271,212,o),
(269,211,c),
(265,209,l),
(264,227,l),
(262,262,o),
(264,321,o),
(269,361,c),
(271,379,o),
(271,400,o),
(270,403,c),
(269,406,o),
(259,411,o),
(256,411,c),
(255,411,o),
(253,410,o),
(251,410,c)
);
},
{
attr = {
fillColor = (0,255);
};
closed = 1;
nodes = (
(222,273,o),
(222,228,o),
(225,196,c),
(226,189,l),
(198,175,l),
(182,168,o),
(170,162,o),
(169,163,c),
(169,164,o),
(171,170,o),
(176,190,c),
(183,218,o),
(201,269,o),
(214,296,c),
(216,300,o),
(219,307,o),
(220,310,c),
(223,317,o),
(226,323,o),
(226,322,c),
(226,322,o),
(226,317,o),
(226,311,c)
);
}
);
width = 512;
}
);
unicode = 57458;
},
{
glyphname = codeberg;
lastChange = "2022-10-22 17:38:57 +0000";
layers = (
{
layerId = m01;
shapes = (
{
attr = {
fillColor = (0,255);
};
closed = 1;
nodes = (
(114,437,o),
(0,323,o),
(0,182,c),
(0,133,o),
(13,86,o),
(39,45,c),
(253,322,l),
(253,323,o),
(255,323,o),
(256,323,c),
(257,323,o),
(259,323,o),
(259,322,c),
(473,45,l),
(499,86,o),
(512,133,o),
(512,182,c),
(512,323,o),
(398,438,o),
(256,438,c),
(256,438,o),
(255,438,o),
(255,438,c)
);
},
{
attr = {
fillColor = (0,255);
};
closed = 1;
nodes = (
(263,300,l),
(357,-54,l),
(402,-35,o),
(440,-4,o),
(467,36,c)
);
}
);
width = 512;
}
);
unicode = 57459;
},
{
glyphname = neatnik;
lastChange = "2022-10-31 18:19:56 +0000";
layers = (
{
layerId = m01;
shapes = (
{
closed = 1;
nodes = (
(105,443,o),
(90,435,o),
(79,423,c),
(71,414,o),
(67,406,o),
(62,394,c),
(59,385,o),
(59,383,o),
(59,370,c),
(59,358,o),
(61,347,o),
(71,294,c),
(81,234,o),
(82,231,o),
(80,229,c),
(75,222,o),
(65,206,o),
(59,195,c),
(49,173,o),
(44,150,o),
(44,125,c),
(44,78,o),
(62,36,o),
(98,1,c),
(113,-14,o),
(123,-22,o),
(142,-31,c),
(174,-47,o),
(205,-55,o),
(242,-56,c),
(303,-60,o),
(358,-44,o),
(399,-13,c),
(426,8,o),
(449,40,o),
(459,72,c),
(465,89,o),
(467,99,o),
(468,119,c),
(469,139,o),
(467,153,o),
(462,172,c),
(458,186,o),
(445,211,o),
(436,223,c),
(430,231,l),
(441,294,l),
(454,366,o),
(455,376,o),
(450,392,c),
(441,421,o),
(419,441,o),
(391,447,c),
(379,449,o),
(372,449,o),
(360,447,c),
(337,442,o),
(315,426,o),
(306,405,c),
(300,393,o),
(299,388,o),
(291,347,c),
(288,329,o),
(286,314,o),
(285,312,c),
(285,309,l),
(227,309,l),
(226,315,l),
(225,319,o),
(222,334,o),
(220,350,c),
(213,387,o),
(212,393,o),
(206,405,c),
(202,414,o),
(200,417,o),
(192,425,c),
(172,445,o),
(146,452,o),
(120,447,cs)
);
},
{
closed = 1;
nodes = (
(170,144,o),
(176,135,o),
(175,124,c),
(174,119,o),
(174,116,o),
(171,112,c),
(159,98,o),
(138,100,o),
(130,116,c),
(122,135,o),
(141,156,o),
(160,148,cs)
);
},
{
attr = {
fillColor = (0,255);
};
closed = 1;
nodes = (
(383,139,o),
(386,127,o),
(381,116,c),
(374,101,o),
(354,98,o),
(343,110,c),
(334,119,o),
(335,135,o),
(344,143,c),
(352,150,o),
(364,151,o),
(373,145,cs)
);
}
);
width = 512;
}
);
unicode = 57460;
},
{
glyphname = credly;
lastChange = "2022-10-26 19:06:46 +0000";
layers = (
{
layerId = m01;
shapes = (
{
attr = {
fillColor = (0,255);
};
closed = 1;
nodes = (
(256,395,l),
(301,441,l),
(307,447,o),
(316,450,o),
(324,447,c),
(333,445,o),
(339,438,o),
(341,430,c),
(357,367,l),
(419,385,l),
(428,387,o),
(437,385,o),
(443,379,c),
(449,373,o),
(451,364,o),
(449,355,c),
(431,293,l),
(494,278,l),
(502,275,o),
(509,269,o),
(511,260,c),
(514,252,o),
(511,243,o),
(505,237,c),
(459,192,l),
(505,147,l),
(511,141,o),
(514,132,o),
(511,124,c),
(509,115,o),
(502,109,o),
(494,107,c),
(431,91,l),
(449,29,l),
(451,20,o),
(449,11,o),
(443,5,c),
(437,-1,o),
(428,-3,o),
(419,-1,c),
(357,17,l),
(342,-46,l),
(339,-54,o),
(333,-61,o),
(324,-63,c),
(316,-65,o),
(307,-63,o),
(301,-57,c),
(256,-11,l),
(211,-57,l),
(205,-63,o),
(196,-65,o),
(188,-63,c),
(179,-61,o),
(173,-54,o),
(171,-46,c),
(155,17,l),
(93,-1,l),
(84,-3,o),
(75,-1,o),
(69,5,c),
(63,11,o),
(61,20,o),
(63,29,c),
(81,91,l),
(18,107,l),
(10,109,o),
(3,115,o),
(1,124,c),
(-1,132,o),
(1,141,o),
(7,147,c),
(54,192,l),
(7,237,l),
(1,243,o),
(-1,252,o),
(1,260,c),
(3,269,o),
(10,275,o),
(18,277,c),
(81,293,l),
(63,355,l),
(61,364,o),
(63,373,o),
(69,379,c),
(75,385,o),
(84,387,o),
(93,385,c),
(155,367,l),
(171,430,l),
(173,438,o),
(179,445,o),
(188,447,c),
(196,449,o),
(205,447,o),
(211,441,c)
);
},
{
attr = {
fillColor = (0,255);
};
closed = 1;
nodes = (
(337,139,o),
(320,117,o),
(312,109,c),
(299,98,o),
(284,89,o),
(269,86,c),
(243,80,o),
(216,88,o),
(202,111,c),
(195,125,o),
(191,140,o),
(190,155,c),
(188,185,o),
(193,215,o),
(205,242,c),
(216,269,o),
(233,295,o),
(265,299,c),
(277,300,o),
(291,296,o),
(296,285,c),
(300,277,o),
(299,267,o),
(296,259,c),
(294,250,o),
(290,242,o),
(290,233,c),
(290,224,o),
(294,214,o),
(303,211,c),
(311,209,o),
(320,214,o),
(325,221,c),
(330,229,o),
(331,237,o),
(333,246,c),
(338,266,o),
(346,285,o),
(356,302,c),
(361,310,o),
(367,319,o),
(365,329,c),
(364,335,o),
(359,341,o),
(352,343,c),
(346,345,o),
(338,343,o),
(334,338,c),
(329,333,o),
(327,325,o),
(320,323,c),
(314,321,o),
(308,325,o),
(303,328,c),
(282,339,o),
(256,339,o),
(235,330,c),
(213,321,o),
(195,304,o),
(182,285,c),
(163,257,o),
(150,223,o),
(147,189,c),
(146,177,o),
(146,165,o),
(147,153,c),
(149,137,o),
(151,124,o),
(155,111,c),
(160,97,o),
(166,84,o),
(174,73,c),
(183,62,o),
(194,53,o),
(206,47,c),
(219,42,o),
(234,40,o),
(248,40,c),
(261,41,o),
(275,44,o),
(289,50,c),
(300,55,o),
(312,63,o),
(324,74,c),
(335,83,o),
(345,93,o),
(353,105,c),
(359,112,o),
(365,119,o),
(364,128,c),
(364,134,o),
(362,142,o),
(347,140,c)
);
}
);
width = 512;
}
);
unicode = 57461;
},
{
glyphname = pixelfed;
lastChange = "2022-10-27 22:24:38 +0000";
layers = (
{
layerId = m01;
shapes = (
{
attr = {
fillColor = (0,255);
};
closed = 1;
nodes = (
(210,448,o),
(167,436,o),
(127,413,c),
(88,390,o),
(58,359,o),
(35,321,c),
(12,281,o),
(0,238,o),
(0,192,c),
(0,145,o),
(12,102,o),
(35,62,c),
(58,24,o),
(88,-7,o),
(127,-29,c),
(167,-52,o),
(210,-64,o),
(257,-64,c),
(303,-64,o),
(346,-52,o),
(386,-29,c),
(425,-7,o),
(455,24,o),
(478,62,c),
(501,102,o),
(512,145,o),
(512,192,c),
(512,238,o),
(501,281,o),
(478,321,c),
(455,359,o),
(425,390,o),
(386,413,c),
(346,436,o),
(303,448,o),
(257,448,c)
);
},
{
attr = {
fillColor = (0,255);
};
closed = 1;
nodes = (
(283,292,l),
(297,292,o),
(311,288,o),
(323,281,c),
(335,274,o),
(345,265,o),
(352,253,c),
(360,241,o),
(363,228,o),
(363,214,c),
(363,200,o),
(360,187,o),
(352,175,c),
(345,163,o),
(335,154,o),
(323,147,c),
(311,139,o),
(297,136,o),
(283,136,c),
(236,136,l),
(169,72,l),
(169,247,l),
(169,259,o),
(174,270,o),
(183,279,c),
(192,288,o),
(203,292,o),
(216,292,c)
);
}
);
width = 512;
}
);
unicode = 57462;
},
{
glyphname = passkey;
lastChange = "2022-10-29 05:19:58 +0000";
layers = (
{
layerId = m01;
shapes = (
{
attr = {
fillColor = (0,255);
};
closed = 1;
nodes = (
(264,433,o),
(284,420,o),
(300,401,c),
(334,360,o),
(335,300,o),
(303,257,c),
(260,200,o),
(177,195,o),
(127,245,c),
(98,274,o),
(86,317,o),
(97,357,c),
(108,399,o),
(142,432,o),
(185,441,c),
(200,445,o),
(226,444,o),
(240,440,c)
);
},
{
attr = {
fillColor = (0,255);
};
closed = 1;
nodes = (
(273,165,o),
(281,164,o),
(286,163,c),
(295,161,l),
(297,153,l),
(304,131,o),
(317,112,o),
(336,95,c),
(341,90,l),
(342,33,l),
(342,-24,l),
(184,-24,l),
(27,-23,l),
(21,-20,l),
(8,-14,o),
(4,-5,o),
(5,13,c),
(8,49,o),
(21,82,o),
(45,110,c),
(70,140,o),
(110,161,o),
(150,166,c),
(163,167,o),
(256,167,o),
(267,166,c)
);
},
{
attr = {
fillColor = (0,255);
};
closed = 1;
nodes = (
(456,82,l),
(456,79,o),
(454,75,o),
(452,73,c),
(437,58,l),
(452,43,l),
(457,38,o),
(457,29,o),
(452,24,c),
(437,9,l),
(452,-6,l),
(457,-11,o),
(457,-19,o),
(452,-24,c),
(421,-55,l),
(416,-60,o),
(408,-60,o),
(403,-55,c),
(373,-24,l),
(370,-22,o),
(369,-19,o),
(369,-15,c),
(369,108,l),
(360,112,o),
(352,118,o),
(345,125,c),
(308,162,o),
(308,222,o),
(345,259,c),
(382,296,o),
(442,296,o),
(479,259,c),
(516,222,o),
(516,162,o),
(479,125,c),
(472,118,o),
(464,112,o),
(456,108,c)
);
},
{
attr = {
fillColor = (0,255);
};
closed = 1;
nodes = (
(419,246,o),
(405,246,o),
(397,238,c),
(389,229,o),
(389,216,o),
(397,207,c),
(405,199,o),
(419,199,o),
(427,207,c),
(436,216,o),
(436,229,o),
(427,238,c)
);
}
);
width = 512;
}
);
unicode = 57463;
},
{
glyphname = ecosia;
lastChange = "2022-11-02 04:19:15 +0000";
layers = (
{
layerId = m01;
shapes = (
{
attr = {
fillColor = (0,255);
};
closed = 1;
nodes = (
(100,-64,l),
(413,-64,l),
(413,100,l),
(219,100,l),
(219,161,l),
(345,161,l),
(345,223,l),
(219,223,l),
(219,285,l),
(413,285,l),
(413,448,l),
(100,448,l),
(100,192,l)
);
}
);
width = 512;
}
);
unicode = 57464;
},
{
glyphname = mltshp;
lastChange = "2022-11-13 16:11:26 +0000";
layers = (
{
layerId = m01;
shapes = (
{
attr = {
fillColor = (0,255);
};
closed = 1;
nodes = (
(472,448,l),
(494,448,o),
(512,430,o),
(512,408,c),
(512,-24,l),
(512,-46,o),
(494,-64,o),
(472,-64,c),
(40,-64,l),
(18,-64,o),
(0,-46,o),
(0,-24,c),
(0,408,l),
(0,430,o),
(18,448,o),
(40,448,c)
);
},
{
attr = {
fillColor = (0,255);
};
closed = 1;
nodes = (
(358,113,o),
(348,110,o),
(343,102,c),
(304,35,o),
(208,35,o),
(169,102,c),
(169,102,o),
(169,102,o),
(169,102,c),
(163,114,o),
(146,115,o),
(139,103,c),
(135,98,o),
(135,90,o),
(139,84,c),
(191,-6,o),
(321,-6,o),
(373,84,c),
(373,84,o),
(373,84,o),
(373,84,c),
(378,93,o),
(375,103,o),
(367,108,c)
);
},
{
attr = {
fillColor = (0,255);
};
closed = 1;
nodes = (
(64,253,o),
(98,225,o),
(135,225,c),
(174,225,o),
(206,257,o),
(206,296,c),
(206,336,o),
(174,367,o),
(135,367,c),
(96,367,o),
(63,335,o),
(64,296,c)
);
},
{
attr = {
fillColor = (0,255);
};
closed = 1;
nodes = (
(306,253,o),
(340,225,o),
(378,225,c),
(417,225,o),
(448,257,o),
(448,296,c),
(448,336,o),
(417,367,o),
(378,367,c),
(338,367,o),
(306,335,o),
(306,296,c)
);
}
);
width = 512;
}
);
unicode = 57472;
},
{
glyphname = andycarolan;
lastChange = "2023-04-11 12:35:47 +0000";
layers = (
{
layerId = m01;
shapes = (
{
attr = {
fillColor = (0,255);
};
closed = 1;
nodes = (
(437,244,l),
(435,258,o),
(430,272,o),
(424,286,c),
(414,312,o),
(398,335,o),
(378,354,c),
(359,374,o),
(336,389,o),
(310,400,c),
(284,411,o),
(256,417,o),
(227,417,c),
(198,417,o),
(170,411,o),
(143,400,c),
(118,389,o),
(95,374,o),
(75,354,c),
(55,335,o),
(40,312,o),
(29,286,c),
(18,260,o),
(12,231,o),
(12,202,c),
(12,170,l),
(5,169,o),
(0,164,o),
(0,157,c),
(0,87,l),
(0,79,o),
(6,73,o),
(14,73,c),
(32,73,l),
(33,68,o),
(38,64,o),
(44,64,c),
(60,64,l),
(65,64,o),
(69,67,o),
(71,71,c),
(71,70,o),
(71,70,o),
(71,70,c),
(80,50,o),
(92,32,o),
(107,16,c),
(123,1,o),
(141,-11,o),
(161,-20,c),
(182,-29,o),
(204,-33,o),
(227,-33,c),
(249,-33,o),
(272,-29,o),
(292,-20,c),
(312,-11,o),
(330,1,o),
(346,16,c),
(361,32,o),
(374,50,o),
(382,70,c),
(382,70,o),
(382,70,o),
(382,71,c),
(384,67,o),
(389,64,o),
(394,64,c),
(409,64,l),
(415,64,o),
(420,68,o),
(422,73,c),
(440,73,l),
(447,73,o),
(453,79,o),
(453,87,c),
(453,157,l),
(453,164,o),
(448,169,o),
(441,170,c),
(441,202,l),
(441,209,o),
(441,216,o),
(440,222,c),
(512,222,l),
(512,244,l),
(512,244,l)
);
},
{
attr = {
fillColor = (0,255);
};
closed = 1;
nodes = (
(72,244,l),
(72,245,l),
(72,256,o),
(74,267,o),
(76,278,c),
(117,278,l),
(135,278,o),
(151,263,o),
(151,244,c)
);
},
{
attr = {
fillColor = (0,255);
};
closed = 1;
nodes = (
(71,310,o),
(71,310,o),
(71,310,c),
(71,310,o),
(71,309,o),
(71,309,c),
(70,308,o),
(70,308,o),
(70,307,c),
(70,307,o),
(70,306,o),
(69,306,c),
(69,305,o),
(69,304,o),
(69,304,c),
(69,303,o),
(68,303,o),
(68,303,c),
(68,302,o),
(68,301,o),
(67,300,c),
(67,300,o),
(67,300,o),
(67,300,c),
(66,295,o),
(64,290,o),
(63,285,c),
(61,278,l),
(61,278,l),
(59,267,o),
(58,256,o),
(58,245,c),
(58,180,l),
(44,180,l),
(40,180,o),
(36,178,o),
(33,174,c),
(33,202,l),
(33,229,o),
(39,254,o),
(49,278,c),
(56,296,o),
(67,313,o),
(80,328,c),
(78,325,o),
(77,322,o),
(75,319,c),
(75,319,o),
(75,319,o),
(75,319,c),
(75,318,o),
(74,317,o),
(74,316,c),
(74,316,o),
(74,316,o),
(74,316,c),
(73,315,o),
(73,314,o),
(73,314,c),
(72,313,o),
(72,313,o),
(72,313,c),
(72,312,o),
(72,311,o),
(71,311,c),
(71,311,l)
);
},
{
attr = {
fillColor = (0,255);
};
closed = 1;
nodes = (
(381,135,l),
(381,115,o),
(377,94,o),
(369,75,c),
(361,57,o),
(350,41,o),
(336,26,c),
(322,12,o),
(305,1,o),
(287,-7,c),
(277,-11,o),
(267,-14,o),
(257,-16,c),
(247,-18,o),
(237,-19,o),
(227,-19,c),
(206,-19,o),
(186,-15,o),
(167,-7,c),
(148,1,o),
(132,12,o),
(118,26,c),
(103,41,o),
(92,57,o),
(85,75,c),
(76,94,o),
(72,115,o),
(72,135,c),
(72,222,l),
(381,222,l),
(381,167,l),
(381,167,l)
);
},
{
attr = {
fillColor = (0,255);
};
closed = 1;
nodes = (
(379,317,o),
(376,323,o),
(373,328,c),
(386,313,o),
(397,296,o),
(405,278,c),
(409,267,o),
(413,255,o),
(415,244,c),
(395,244,l),
(395,245,l),
(395,268,o),
(391,290,o),
(382,311,c),
(382,311,l)
);
},
{
attr = {
fillColor = (0,255);
};
closed = 1;
nodes = (
(418,178,o),
(414,180,o),
(409,180,c),
(395,180,l),
(395,222,l),
(419,222,l),
(420,216,o),
(420,209,o),
(420,202,c),
(420,174,l),
(420,174,l)
);
},
{
attr = {
fillColor = (0,255);
};
closed = 1;
nodes = (
(144,115,l),
(144,104,o),
(135,95,o),
(124,95,c),
(113,95,o),
(104,104,o),
(104,115,c),
(104,129,l),
(104,140,o),
(113,149,o),
(124,149,c),
(135,149,o),
(144,140,o),
(144,129,c)
);
},
{
attr = {
fillColor = (0,255);
};
closed = 1;
nodes = (
(276,74,o),
(254,52,o),
(227,52,c),
(200,52,o),
(177,74,o),
(177,101,c),
(192,101,l),
(192,82,o),
(207,67,o),
(227,67,c),
(246,67,o),
(262,82,o),
(262,101,c),
(276,101,l)
);
},
{
attr = {
fillColor = (0,255);
};
closed = 1;
nodes = (
(349,115,l),
(349,104,o),
(340,95,o),
(329,95,c),
(318,95,o),
(309,104,o),
(309,115,c),
(309,129,l),
(309,140,o),
(318,149,o),
(329,149,c),
(340,149,o),
(349,140,o),
(349,129,c)
);
}
);
width = 512;
}
);
unicode = 57473;
},
{
glyphname = cohost;
lastChange = "2022-11-30 02:58:36 +0000";
layers = (
{
layerId = m01;
shapes = (
{
closed = 1;
nodes = (
(247,374,o),
(179,356,o),
(128,330,c),
(79,306,o),
(45,277,o),
(24,241,c),
(3,206,o),
(-1,169,o),
(12,126,c),
(18,106,o),
(27,87,o),
(40,72,c),
(63,44,o),
(101,25,o),
(148,17,c),
(159,16,o),
(163,16,o),
(192,16,c),
(226,16,o),
(230,16,o),
(256,20,c),
(305,28,o),
(359,47,o),
(397,68,c),
(410,75,o),
(410,75,o),
(396,75,c),
(371,75,o),
(351,80,o),
(335,90,c),
(327,94,o),
(317,105,o),
(314,112,c),
(307,126,o),
(307,145,o),
(314,159,c),
(317,165,o),
(324,173,o),
(331,178,c),
(357,196,o),
(406,201,o),
(443,189,c),
(464,182,o),
(479,169,o),
(484,153,c),
(486,148,l),
(488,152,l),
(507,184,o),
(511,220,o),
(502,259,c),
(496,280,o),
(487,300,o),
(475,315,c),
(451,348,o),
(407,369,o),
(354,375,c),
(343,376,o),
(315,377,o),
(304,376,cs)
);
},
{
closed = 1;
nodes = (
(231,191,o),
(252,183,o),
(262,174,c),
(265,171,l),
(250,161,l),
(236,152,l),
(233,154,l),
(229,158,o),
(219,162,o),
(211,164,c),
(205,166,o),
(202,166,o),
(185,166,c),
(167,166,o),
(164,166,o),
(159,164,c),
(149,162,o),
(143,159,o),
(138,154,c),
(132,148,o),
(131,143,o),
(131,134,c),
(132,126,o),
(133,122,o),
(138,117,c),
(154,101,o),
(199,99,o),
(225,112,c),
(229,114,o),
(232,116,o),
(233,117,c),
(234,117,o),
(235,118,o),
(235,118,c),
(235,118,o),
(242,114,o),
(251,109,c),
(265,99,l),
(262,96,l),
(257,92,o),
(245,86,o),
(235,83,c),
(196,70,o),
(152,72,o),
(121,88,c),
(117,91,o),
(113,94,o),
(108,99,c),
(96,110,o),
(92,120,o),
(92,135,c),
(92,149,o),
(95,158,o),
(103,168,c),
(120,189,o),
(164,200,o),
(209,194,cs)
);
},
{
attr = {
fillColor = (0,255);
};
closed = 1;
nodes = (
(365,163,o),
(352,155,o),
(348,143,c),
(344,130,o),
(351,117,o),
(364,110,c),
(375,105,o),
(396,102,o),
(412,105,c),
(436,108,o),
(450,120,o),
(448,138,c),
(447,151,o),
(437,160,o),
(420,164,c),
(412,166,o),
(393,167,o),
(383,166,cs)
);
}
);
width = 512;
}
);
unicode = 57474;
},
{
glyphname = "json-feed";
lastChange = "2022-12-20 00:05:30 +0000";
layers = (
{
layerId = m01;
shapes = (
{
attr = {
fillColor = (0,255);
};
closed = 1;
nodes = (
(25,377,o),
(8,344,o),
(8,321,c),
(8,294,o),
(26,266,o),
(75,214,c),
(131,155,o),
(135,142,o),
(112,110,c),
(97,90,o),
(96,68,o),
(109,55,c),
(123,41,o),
(145,42,o),
(165,57,c),
(198,81,o),
(210,76,o),
(271,18,c),
(301,-11,o),
(335,-39,o),
(346,-44,c),
(388,-64,o),
(427,-54,o),
(480,-7,c),
(503,13,l),
(482,35,l),
(460,56,l),
(443,40,l),
(403,6,o),
(387,11,o),
(319,77,c),
(254,139,o),
(238,146,o),
(203,131,c),
(179,121,o),
(175,124,o),
(188,146,c),
(205,176,o),
(196,200,o),
(148,248,c),
(78,315,o),
(70,338,o),
(103,374,c),
(121,395,l),
(102,415,l),
(91,426,o),
(81,435,o),
(79,435,c),
(76,435,o),
(65,423,o),
(52,408,c)
);
},
{
attr = {
fillColor = (0,255);
};
closed = 1;
nodes = (
(286,269,l),
(306,269,o),
(323,252,o),
(323,232,c),
(323,211,o),
(306,195,o),
(286,195,c),
(265,195,o),
(249,211,o),
(249,232,c),
(249,252,o),
(265,269,o),
(286,269,c)
);
},
{
attr = {
fillColor = (0,255);
};
closed = 1;
nodes = (
(375,357,l),
(396,357,o),
(412,340,o),
(412,319,c),
(412,299,o),
(396,282,o),
(375,282,c),
(354,282,o),
(338,299,o),
(338,319,c),
(338,340,o),
(354,357,o),
(375,357,c)
);
},
{
attr = {
fillColor = (0,255);
};
closed = 1;
nodes = (
(465,448,l),
(485,448,o),
(502,431,o),
(502,411,c),
(502,390,o),
(485,373,o),
(465,373,c),
(444,373,o),
(428,390,o),
(428,411,c),
(428,431,o),
(444,448,o),
(465,448,c)
);
}
);
width = 512;
}
);
unicode = 57475;
},
{
glyphname = zioibi;
lastChange = "2022-12-24 22:20:09 +0000";
layers = (
{
layerId = m01;
shapes = (
{
attr = {
fillColor = (0,255);
};
closed = 1;
nodes = (
(218,295,o),
(192,250,o),
(192,249,c),
(191,247,o),
(191,247,o),
(192,246,c),
(194,245,o),
(329,245,o),
(337,246,c),
(344,248,o),
(348,249,o),
(354,253,c),
(364,260,o),
(370,269,o),
(389,305,c),
(397,320,o),
(403,332,o),
(404,333,c),
(404,334,o),
(419,334,o),
(420,333,c),
(421,332,o),
(417,227,o),
(416,226,c),
(415,226,o),
(93,226,o),
(91,226,c),
(89,227,o),
(90,238,o),
(91,242,c),
(92,243,o),
(118,289,o),
(149,344,c),
(180,399,o),
(205,445,o),
(206,446,c),
(206,447,o),
(206,447,o),
(205,447,c),
(203,447,o),
(188,444,o),
(179,441,c),
(95,414,o),
(29,343,o),
(8,256,c),
(2,231,o),
(-1,204,o),
(0,180,c),
(2,156,o),
(5,136,o),
(12,114,c),
(37,34,o),
(100,-30,o),
(179,-55,c),
(190,-59,o),
(198,-61,o),
(199,-60,c),
(200,-60,o),
(201,-59,o),
(202,-57,c),
(203,-55,o),
(227,-12,o),
(256,40,c),
(285,91,o),
(309,134,o),
(310,136,c),
(311,140,o),
(311,140,o),
(310,140,c),
(309,141,o),
(298,141,o),
(246,141,c),
(184,141,l),
(179,140,l),
(172,138,o),
(167,135,o),
(162,131,c),
(152,124,o),
(146,115,o),
(128,81,c),
(121,66,o),
(114,54,o),
(114,54,c),
(113,53,o),
(99,53,o),
(98,54,c),
(97,54,o),
(97,61,o),
(99,106,c),
(100,135,o),
(101,159,o),
(102,159,c),
(102,161,l),
(256,161,l),
(341,161,o),
(411,161,o),
(411,160,c),
(413,160,o),
(413,149,o),
(411,145,c),
(410,144,o),
(384,97,o),
(353,42,c),
(322,-14,o),
(296,-60,o),
(295,-61,c),
(294,-64,l),
(297,-64,l),
(298,-64,o),
(302,-63,o),
(306,-63,c),
(408,-42,o),
(487,39,o),
(508,142,c),
(511,161,o),
(512,168,o),
(512,193,c),
(512,218,o),
(511,224,o),
(508,243,c),
(488,343,o),
(414,422,o),
(316,446,c),
(311,447,o),
(306,448,o),
(305,448,c),
(304,448,o),
(297,436,o),
(248,349,c)
);
}
);
width = 512;
}
);
unicode = 57476;
},
{
glyphname = fandom;
lastChange = "2023-04-30 14:34:30 +0000";
layers = (
{
layerId = m01;
shapes = (
{
attr = {
fillColor = (0,255);
};
closed = 1;
nodes = (
(439,175,o),
(440,169,o),
(440,162,c),
(440,85,l),
(440,78,o),
(439,71,o),
(436,65,c),
(434,59,o),
(430,53,o),
(425,49,c),
(328,-49,l),
(318,-59,o),
(305,-64,o),
(292,-64,c),
(220,-64,l),
(207,-64,o),
(194,-59,o),
(184,-49,c),
(87,49,l),
(82,53,o),
(79,59,o),
(76,65,c),
(73,71,o),
(72,78,o),
(72,85,c),
(72,299,l),
(72,301,o),
(73,303,o),
(74,304,c),
(75,306,o),
(76,307,o),
(78,308,c),
(79,308,o),
(81,309,o),
(83,308,c),
(85,308,o),
(86,307,o),
(88,306,c),
(162,231,l),
(162,439,l),
(162,441,o),
(163,442,o),
(164,444,c),
(165,445,o),
(166,446,o),
(168,447,c),
(170,448,o),
(172,448,o),
(173,448,c),
(175,447,o),
(177,446,o),
(178,445,c),
(425,198,l),
(430,193,o),
(434,188,o),
(436,181,c)
);
},
{
attr = {
fillColor = (0,255);
};
closed = 1;
nodes = (
(350,138,l),
(350,140,o),
(349,142,o),
(349,143,c),
(348,145,o),
(347,147,o),
(345,148,c),
(317,177,l),
(316,178,o),
(314,179,o),
(312,180,c),
(310,181,o),
(308,181,o),
(306,181,c),
(304,181,o),
(302,181,o),
(300,180,c),
(299,179,o),
(297,178,o),
(295,177,c),
(256,137,l),
(217,177,l),
(215,178,o),
(214,179,o),
(212,180,c),
(210,181,o),
(208,181,o),
(206,181,c),
(204,181,o),
(202,181,o),
(200,180,c),
(198,179,o),
(196,178,o),
(195,177,c),
(167,148,l),
(165,147,o),
(164,145,o),
(164,143,c),
(163,142,o),
(162,140,o),
(162,138,c),
(162,108,l),
(162,104,o),
(164,100,o),
(167,97,c),
(245,18,l),
(247,16,o),
(248,15,o),
(250,15,c),
(252,14,o),
(254,13,o),
(256,13,c),
(258,13,o),
(260,14,o),
(262,15,c),
(264,15,o),
(265,16,o),
(267,18,c),
(345,97,l),
(348,100,o),
(350,104,o),
(350,108,c)
);
}
);
width = 512;
}
);
unicode = 57477;
},
{
glyphname = tor;
lastChange = "2023-04-30 14:36:07 +0000";
layers = (
{
layerId = m01;
shapes = (
{
attr = {
fillColor = (0,255);
};
closed = 1;
nodes = (
(312,418,o),
(286,389,o),
(270,359,c),
(269,357,o),
(268,356,o),
(268,356,c),
(268,356,o),
(281,408,o),
(281,409,c),
(282,410,o),
(281,409,o),
(278,403,c),
(261,371,o),
(249,338,o),
(244,310,c),
(243,308,o),
(243,306,o),
(243,306,c),
(243,306,o),
(240,307,o),
(236,308,c),
(233,309,o),
(226,312,o),
(222,314,c),
(214,317,l),
(210,314,l),
(206,311,l),
(209,304,l),
(222,279,o),
(224,260,o),
(217,246,c),
(214,240,o),
(211,238,o),
(198,229,c),
(148,196,o),
(140,191,o),
(128,178,c),
(102,152,o),
(89,125,o),
(86,94,c),
(85,87,o),
(85,70,o),
(86,63,c),
(88,43,o),
(93,25,o),
(102,9,c),
(122,-26,o),
(157,-52,o),
(199,-63,c),
(205,-64,l),
(256,-64,l),
(307,-64,l),
(313,-63,l),
(331,-58,o),
(347,-52,o),
(360,-44,c),
(382,-30,o),
(402,-9,o),
(413,16,c),
(420,29,o),
(424,41,o),
(426,57,c),
(427,64,o),
(428,79,o),
(427,88,c),
(425,114,o),
(416,139,o),
(401,160,c),
(395,168,o),
(391,173,o),
(384,180,c),
(371,193,o),
(356,203,o),
(332,217,c),
(316,226,o),
(314,228,o),
(309,232,c),
(292,246,o),
(284,265,o),
(289,283,c),
(289,285,o),
(289,286,o),
(289,286,c),
(289,286,o),
(272,293,o),
(272,293,c),
(271,293,o),
(271,295,o),
(275,300,c),
(294,327,o),
(314,352,o),
(336,375,c),
(345,385,o),
(367,407,o),
(376,415,c),
(387,425,o),
(386,424,o),
(381,422,c),
(369,418,o),
(353,411,o),
(344,406,c),
(324,395,o),
(307,380,o),
(294,363,c),
(290,359,o),
(290,359,o),
(292,363,c),
(302,383,o),
(322,411,o),
(349,442,c),
(352,445,o),
(354,448,o),
(354,448,c),
(354,448,o),
(352,446,o),
(349,444,c)
);
},
{
attr = {
fillColor = (0,255);
};
closed = 1;
nodes = (
(246,294,o),
(265,286,o),
(271,283,c),
(276,280,l),
(276,279,l),
(275,272,o),
(275,267,o),
(276,261,c),
(278,250,o),
(285,238,o),
(295,228,c),
(299,224,o),
(303,221,o),
(313,215,c),
(338,200,o),
(361,184,o),
(374,170,c),
(385,160,o),
(392,150,o),
(399,137,c),
(409,118,o),
(413,98,o),
(413,76,c),
(413,60,o),
(411,48,o),
(406,32,c),
(397,7,o),
(379,-16,o),
(357,-31,c),
(341,-42,o),
(319,-51,o),
(297,-56,c),
(289,-58,o),
(289,-58,o),
(289,-57,c),
(305,-36,o),
(316,-4,o),
(321,29,c),
(323,42,o),
(323,47,o),
(323,67,c),
(323,100,o),
(321,118,o),
(312,150,c),
(308,166,o),
(305,174,o),
(299,186,c),
(294,196,o),
(292,200,o),
(282,215,c),
(277,221,o),
(274,228,o),
(273,229,c),
(267,243,o),
(265,254,o),
(263,268,c),
(263,272,l),
(263,265,l),
(262,253,o),
(264,241,o),
(266,232,c),
(268,228,o),
(272,220,o),
(278,211,c),
(293,186,o),
(298,177,o),
(302,162,c),
(315,119,o),
(315,57,o),
(302,-2,c),
(300,-11,o),
(298,-16,o),
(293,-24,c),
(291,-27,o),
(286,-34,o),
(286,-34,c),
(286,-34,o),
(286,-33,o),
(287,-31,c),
(290,-25,o),
(291,-22,o),
(294,-9,c),
(300,11,o),
(303,23,o),
(305,36,c),
(306,44,o),
(306,70,o),
(305,81,c),
(303,99,o),
(300,111,o),
(295,124,c),
(290,136,o),
(283,151,o),
(272,171,c),
(268,178,o),
(265,184,o),
(264,186,c),
(262,193,o),
(259,214,o),
(257,235,c),
(256,241,o),
(256,236,o),
(257,227,c),
(258,204,o),
(260,189,o),
(263,181,c),
(264,178,o),
(266,173,o),
(270,166,c),
(285,138,o),
(292,122,o),
(296,104,c),
(297,99,o),
(299,84,o),
(300,79,c),
(302,64,o),
(300,40,o),
(293,7,c),
(289,-14,o),
(288,-18,o),
(283,-29,c),
(279,-37,o),
(274,-45,o),
(269,-50,c),
(267,-52,l),
(269,-50,l),
(276,-40,o),
(282,-28,o),
(285,-14,c),
(290,4,o),
(293,33,o),
(291,46,c),
(290,63,o),
(283,85,o),
(275,100,c),
(274,103,o),
(271,109,o),
(268,114,c),
(261,125,o),
(261,127,o),
(259,148,c),
(257,160,l),
(257,147,l),
(257,133,o),
(257,129,o),
(259,122,c),
(261,117,o),
(262,113,o),
(267,105,c),
(274,95,o),
(276,91,o),
(279,81,c),
(282,71,o),
(284,62,o),
(285,57,c),
(288,40,o),
(284,0,o),
(277,-21,c),
(274,-30,o),
(269,-40,o),
(263,-46,c),
(261,-49,o),
(254,-54,o),
(254,-54,c),
(253,-54,o),
(254,-53,o),
(256,-51,c),
(261,-45,o),
(264,-40,o),
(266,-34,c),
(267,-29,o),
(268,-22,o),
(270,-6,c),
(271,6,o),
(271,9,o),
(271,16,c),
(270,30,o),
(268,41,o),
(261,63,c),
(260,69,o),
(257,77,o),
(257,80,c),
(255,84,o),
(255,85,o),
(255,83,c),
(255,80,o),
(257,70,o),
(260,56,c),
(264,37,o),
(264,36,o),
(264,16,c),
(264,-6,o),
(263,-14,o),
(259,-30,c),
(257,-38,o),
(253,-48,o),
(253,-48,c),
(252,-48,o),
(247,-44,o),
(244,-42,c),
(239,-36,o),
(234,-28,o),
(230,-16,c),
(225,-3,o),
(223,2,o),
(223,12,c),
(223,22,o),
(225,29,o),
(229,38,c),
(231,43,o),
(233,46,o),
(240,56,c),
(246,65,o),
(248,69,o),
(250,75,c),
(251,80,o),
(252,82,o),
(250,79,c),
(249,75,o),
(246,70,o),
(245,68,c),
(244,67,o),
(240,63,o),
(237,59,c),
(229,50,o),
(226,45,o),
(223,37,c),
(221,29,o),
(219,21,o),
(219,9,c),
(219,0,o),
(219,-2,o),
(222,-10,c),
(223,-16,o),
(227,-26,o),
(230,-31,c),
(234,-40,o),
(242,-50,o),
(250,-54,c),
(252,-54,o),
(253,-55,o),
(253,-55,c),
(252,-55,o),
(244,-53,o),
(238,-52,c),
(223,-47,o),
(214,-43,o),
(206,-35,c),
(182,-14,o),
(164,23,o),
(168,44,c),
(172,65,o),
(190,88,o),
(213,102,c),
(229,112,o),
(237,122,o),
(242,137,c),
(243,142,o),
(246,152,o),
(246,153,c),
(246,153,o),
(245,151,o),
(244,148,c),
(236,125,o),
(228,114,o),
(210,104,c),
(200,99,o),
(193,94,o),
(187,88,c),
(175,76,o),
(167,63,o),
(164,48,c),
(163,42,o),
(163,32,o),
(164,24,c),
(168,-4,o),
(180,-24,o),
(203,-41,c),
(211,-47,o),
(218,-50,o),
(230,-55,c),
(233,-57,o),
(236,-58,o),
(236,-58,c),
(235,-58,o),
(231,-57,o),
(226,-55,c),
(202,-49,o),
(193,-45,o),
(184,-34,c),
(182,-32,o),
(180,-30,o),
(179,-29,c),
(178,-28,o),
(176,-25,o),
(174,-22,c),
(162,-8,o),
(153,5,o),
(146,21,c),
(140,32,o),
(137,40,o),
(135,49,c),
(133,58,o),
(132,63,o),
(132,70,c),
(132,75,o),
(133,76,o),
(134,80,c),
(140,99,o),
(149,115,o),
(162,128,c),
(170,137,o),
(180,144,o),
(199,157,c),
(224,174,o),
(225,175,o),
(229,181,c),
(233,187,o),
(236,195,o),
(239,206,c),
(241,212,o),
(244,229,o),
(244,230,c),
(244,231,o),
(242,225,o),
(240,219,c),
(233,196,o),
(228,185,o),
(222,179,c),
(219,176,o),
(214,173,o),
(207,168,c),
(197,162,o),
(180,151,o),
(171,144,c),
(152,128,o),
(140,112,o),
(132,90,c),
(126,75,o),
(125,68,o),
(129,52,c),
(134,30,o),
(146,5,o),
(163,-18,c),
(176,-35,o),
(185,-43,o),
(198,-50,c),
(200,-51,o),
(202,-52,o),
(202,-52,c),
(201,-52,o),
(192,-49,o),
(186,-47,c),
(174,-42,o),
(161,-35,o),
(150,-26,c),
(145,-22,o),
(132,-9,o),
(127,-3,c),
(120,6,o),
(114,15,o),
(109,25,c),
(101,43,o),
(98,58,o),
(98,81,c),
(99,102,o),
(103,118,o),
(110,134,c),
(115,143,o),
(122,152,o),
(130,161,c),
(137,168,o),
(143,173,o),
(158,185,c),
(172,196,o),
(176,199,o),
(188,207,c),
(207,218,o),
(217,226,o),
(224,236,c),
(230,244,o),
(232,249,o),
(234,257,c),
(235,261,o),
(235,263,o),
(235,268,c),
(235,275,l),
(232,285,l),
(230,290,o),
(228,296,o),
(228,298,c),
(227,300,o),
(226,302,o),
(226,302,c),
(226,302,o),
(230,300,o),
(235,298,c)
);
}
);
width = 512;
}
);
unicode = 57478;
},
{
glyphname = niconico;
lastChange = "2023-01-17 17:14:07 +0000";
layers = (
{
layerId = m01;
shapes = (
{
attr = {
fillColor = (0,255);
};
closed = 1;
nodes = (
(465,351,l),
(317,351,l),
(378,409,l),
(386,417,o),
(386,430,o),
(379,439,c),
(371,448,o),
(358,448,o),
(349,440,c),
(256,351,l),
(163,440,l),
(154,448,o),
(141,448,o),
(133,439,c),
(126,430,o),
(126,417,o),
(135,409,c),
(195,351,l),
(47,351,l),
(22,351,o),
(2,331,o),
(2,305,c),
(2,30,l),
(2,4,o),
(22,-16,o),
(47,-16,c),
(105,-16,l),
(139,-57,l),
(145,-64,o),
(155,-64,o),
(160,-57,c),
(194,-16,l),
(318,-16,l),
(352,-57,l),
(357,-64,o),
(367,-64,o),
(373,-57,c),
(407,-16,l),
(465,-16,l),
(490,-16,o),
(510,4,o),
(510,30,c),
(510,305,l),
(510,331,o),
(490,351,o),
(465,351,c)
);
}
);
width = 512;
}
);
unicode = 57479;
},
{
glyphname = robb;
lastChange = "2023-11-26 16:11:04 +0000";
layers = (
{
layerId = m01;
shapes = (
{
attr = {
fillColor = (0,255);
};
closed = 1;
nodes = (
(256,192,l),
(384,448,l),
(512,448,l),
(384,192,l),
(512,-64,l),
(384,-64,l)
);
},
{
attr = {
fillColor = (0,255);
};
closed = 1;
nodes = (
(0,-63,l),
(96,-63,l),
(96,33,l),
(0,33,l)
);
},
{
attr = {
fillColor = (0,255);
};
closed = 1;
nodes = (
(64,192,l),
(136,334,l),
(0,334,l),
(0,448,l),
(320,448,l),
(192,192,l),
(320,-64,l),
(192,-64,l)
);
}
);
width = 512;
}
);
unicode = 57480;
},
{
glyphname = "bunny-omg-lol";
lastChange = "2023-01-17 18:26:33 +0000";
layers = (
{
layerId = m01;
shapes = (
{
attr = {
fillColor = (0,255);
};
closed = 1;
nodes = (
(271,88,o),
(274,88,o),
(279,85,c),
(292,79,o),
(294,66,o),
(283,53,c),
(267,35,o),
(241,33,o),
(224,50,c),
(216,56,o),
(213,63,o),
(213,70,c),
(213,79,o),
(219,85,o),
(230,88,c),
(232,88,o),
(243,89,o),
(253,88,c)
);
},
{
attr = {
fillColor = (0,255);
};
closed = 1;
nodes = (
(233,72,o),
(230,71,o),
(229,70,c),
(227,68,o),
(233,61,o),
(240,57,c),
(250,52,o),
(262,54,o),
(270,63,c),
(274,67,o),
(275,70,o),
(272,72,c),
(268,73,o),
(241,74,o),
(235,72,c)
);
},
{
attr = {
fillColor = (0,255);
};
closed = 1;
nodes = (
(332,125,o),
(334,124,o),
(336,122,c),
(339,119,o),
(339,116,o),
(337,112,c),
(335,109,o),
(334,109,o),
(319,109,c),
(306,109,o),
(302,110,o),
(300,111,c),
(297,114,o),
(297,119,o),
(301,122,c),
(303,124,o),
(305,125,o),
(318,125,c)
);
},
{
attr = {
fillColor = (0,255);
};
closed = 1;
nodes = (
(201,125,o),
(203,124,o),
(204,118,c),
(205,115,o),
(205,114,o),
(203,112,c),
(200,109,o),
(198,109,o),
(184,109,c),
(172,109,o),
(169,110,o),
(167,111,c),
(164,114,o),
(164,119,o),
(166,122,c),
(168,124,o),
(171,125,o),
(184,125,c)
);
},
{
attr = {
fillColor = (0,255);
};
closed = 1;
nodes = (
(381,393,o),
(388,377,o),
(393,344,c),
(395,332,o),
(395,320,o),
(395,279,c),
(395,224,o),
(393,187,o),
(390,182,c),
(387,177,o),
(382,179,o),
(374,186,c),
(364,194,o),
(350,203,o),
(339,209,c),
(332,212,o),
(329,215,o),
(328,217,c),
(326,222,o),
(326,314,o),
(328,334,c),
(332,372,o),
(339,391,o),
(351,398,c),
(355,401,o),
(364,402,o),
(369,399,c)
);
},
{
attr = {
fillColor = (0,255);
};
closed = 1;
nodes = (
(347,367,o),
(343,334,o),
(343,274,c),
(343,227,o),
(343,225,o),
(348,222,c),
(350,222,o),
(357,217,o),
(364,213,c),
(371,208,o),
(377,205,o),
(377,205,c),
(378,205,o),
(379,225,o),
(380,262,c),
(382,323,o),
(376,372,o),
(365,383,c),
(361,387,o),
(358,386,o),
(355,381,c)
);
},
{
attr = {
fillColor = (0,255);
};
closed = 1;
nodes = (
(173,393,o),
(180,373,o),
(184,334,c),
(186,314,o),
(186,222,o),
(184,217,c),
(183,215,o),
(180,212,o),
(173,209,c),
(162,203,o),
(148,194,o),
(138,186,c),
(130,179,o),
(125,177,o),
(122,182,c),
(117,190,o),
(114,313,o),
(119,344,c),
(124,377,o),
(131,392,o),
(143,399,c),
(147,401,o),
(156,401,o),
(160,399,c)
);
},
{
attr = {
fillColor = (0,255);
};
closed = 1;
nodes = (
(136,372,o),
(130,323,o),
(132,262,c),
(133,225,o),
(134,205,o),
(135,205,c),
(135,205,o),
(141,208,o),
(148,213,c),
(155,217,o),
(162,222,o),
(164,222,c),
(168,224,o),
(168,225,o),
(169,232,c),
(170,246,o),
(169,330,o),
(166,345,c),
(164,362,o),
(161,374,o),
(157,380,c),
(154,386,o),
(151,387,o),
(147,383,c)
);
},
{
attr = {
fillColor = (0,255);
};
closed = 1;
nodes = (
(212,342,o),
(213,333,o),
(214,286,c),
(214,240,l),
(220,241,l),
(246,245,o),
(266,245,o),
(292,241,c),
(298,240,l),
(298,286,l),
(299,333,o),
(300,342,o),
(304,369,c),
(311,408,o),
(323,433,o),
(341,441,c),
(346,444,o),
(349,444,o),
(357,444,c),
(366,444,o),
(368,444,o),
(375,440,c),
(400,428,o),
(415,393,o),
(422,331,c),
(424,306,o),
(424,226,o),
(421,188,c),
(419,158,l),
(424,147,l),
(431,134,o),
(437,118,o),
(440,104,c),
(444,88,o),
(443,49,o),
(440,35,c),
(428,-8,o),
(396,-36,o),
(344,-51,c),
(296,-64,o),
(216,-64,o),
(168,-51,c),
(116,-36,o),
(84,-8,o),
(72,35,c),
(69,49,o),
(68,88,o),
(72,104,c),
(75,118,o),
(81,134,o),
(88,147,c),
(93,158,l),
(91,188,l),
(88,226,o),
(88,306,o),
(90,331,c),
(94,366,o),
(100,390,o),
(109,409,c),
(118,429,o),
(133,442,o),
(148,444,c),
(179,448,o),
(198,424,o),
(208,369,c)
);
},
{
attr = {
fillColor = (0,255);
};
closed = 1;
nodes = (
(146,429,o),
(140,426,o),
(133,418,c),
(109,392,o),
(99,317,o),
(105,210,c),
(106,191,o),
(108,172,o),
(108,166,c),
(109,156,l),
(101,139,l),
(89,114,o),
(84,94,o),
(84,70,c),
(84,6,o),
(122,-29,o),
(203,-42,c),
(224,-45,o),
(288,-45,o),
(309,-42,c),
(390,-29,o),
(428,6,o),
(428,70,c),
(428,94,o),
(423,114,o),
(411,139,c),
(403,156,l),
(404,166,l),
(404,172,o),
(406,191,o),
(407,210,c),
(414,332,o),
(400,412,o),
(369,426,c),
(361,430,o),
(351,430,o),
(345,426,c),
(336,420,o),
(327,403,o),
(322,381,c),
(316,352,o),
(313,322,o),
(313,266,c),
(313,228,o),
(313,227,o),
(311,224,c),
(308,222,o),
(307,222,o),
(301,224,c),
(267,230,o),
(245,230,o),
(211,224,c),
(205,222,o),
(204,222,o),
(201,224,c),
(199,227,o),
(199,228,o),
(199,266,c),
(199,322,o),
(196,352,o),
(190,381,c),
(185,403,o),
(176,420,o),
(167,426,c),
(164,428,o),
(161,429,o),
(155,429,c)
);
}
);
width = 512;
}
);
unicode = 57481;
},
{
glyphname = "prami-staff";
lastChange = "2023-01-26 05:49:36 +0000";
layers = (
{
layerId = m01;
shapes = (
{
closed = 1;
nodes = (
(243,446,o),
(237,444,o),
(233,442,c),
(228,439,o),
(225,436,o),
(201,413,c),
(175,387,l),
(138,387,l),
(102,386,o),
(100,386,o),
(95,385,c),
(81,380,o),
(69,368,o),
(64,354,c),
(62,348,o),
(62,347,o),
(61,311,c),
(61,273,l),
(35,247,l),
(7,219,o),
(5,216,o),
(2,204,c),
(0,195,o),
(0,189,o),
(2,180,c),
(5,168,o),
(7,165,o),
(35,137,c),
(61,111,l),
(61,73,l),
(62,37,o),
(62,36,o),
(64,30,c),
(69,16,o),
(80,5,o),
(94,0,c),
(100,-2,o),
(101,-2,o),
(137,-3,c),
(175,-3,l),
(201,-29,l),
(229,-57,o),
(232,-59,o),
(244,-62,c),
(253,-64,o),
(259,-64,o),
(268,-62,c),
(280,-59,o),
(283,-57,o),
(311,-29,c),
(337,-3,l),
(375,-3,l),
(411,-2,o),
(412,-2,o),
(418,0,c),
(432,5,o),
(443,16,o),
(448,30,c),
(450,36,o),
(450,37,o),
(451,73,c),
(451,111,l),
(475,135,l),
(488,149,o),
(500,161,o),
(502,163,c),
(506,168,o),
(508,173,o),
(510,181,c),
(512,189,o),
(512,195,o),
(510,204,c),
(507,216,o),
(505,219,o),
(477,247,c),
(451,273,l),
(451,311,l),
(450,347,o),
(450,348,o),
(448,354,c),
(443,368,o),
(431,380,o),
(417,385,c),
(412,386,o),
(410,386,o),
(374,387,c),
(337,387,l),
(312,412,l),
(286,438,o),
(281,442,o),
(271,445,c),
(263,447,o),
(253,448,o),
(246,446,cs)
);
},
{
closed = 1;
nodes = (
(228,306,o),
(239,301,o),
(251,292,c),
(256,288,l),
(261,292,l),
(278,305,o),
(296,311,o),
(316,312,c),
(363,314,o),
(404,284,o),
(416,237,c),
(417,231,o),
(418,227,o),
(417,215,c),
(417,202,o),
(417,199,o),
(415,192,c),
(412,181,o),
(408,171,o),
(402,162,c),
(398,156,o),
(390,148,o),
(359,116,c),
(338,95,o),
(318,75,o),
(314,73,c),
(299,61,o),
(281,55,o),
(261,54,c),
(247,53,o),
(238,54,o),
(226,58,c),
(215,62,o),
(206,67,o),
(198,73,c),
(194,75,o),
(174,95,o),
(153,116,c),
(120,149,o),
(114,155,o),
(110,163,c),
(100,178,o),
(95,193,o),
(94,211,c),
(92,255,o),
(119,294,o),
(161,308,c),
(177,313,o),
(198,314,o),
(214,310,cs)
);
},
{
closed = 1;
nodes = (
(299,245,o),
(296,244,o),
(294,243,c),
(283,235,o),
(282,220,o),
(291,211,c),
(301,200,o),
(318,203,o),
(325,216,c),
(327,221,o),
(327,230,o),
(325,235,c),
(320,243,o),
(310,248,o),
(301,246,cs)
);
},
{
closed = 1;
nodes = (
(193,243,o),
(186,234,o),
(186,225,c),
(186,214,o),
(198,203,o),
(209,205,c),
(217,207,o),
(223,212,o),
(225,220,c),
(228,229,o),
(224,239,o),
(215,243,c),
(212,245,o),
(206,246,o),
(202,245,cs)
);
},
{
attr = {
fillColor = (0,255);
};
closed = 1;
nodes = (
(198,177,o),
(194,171,o),
(195,166,c),
(196,163,o),
(202,154,o),
(208,148,c),
(218,138,o),
(231,132,o),
(247,130,c),
(255,129,o),
(257,129,o),
(265,130,c),
(279,132,o),
(291,137,o),
(302,146,c),
(306,150,o),
(315,160,o),
(316,164,c),
(319,170,o),
(315,177,o),
(309,179,c),
(303,181,o),
(300,179,o),
(295,172,c),
(288,164,o),
(285,161,o),
(279,158,c),
(265,150,o),
(247,150,o),
(233,158,c),
(228,161,o),
(221,167,o),
(216,174,c),
(214,177,o),
(209,180,o),
(206,180,c),
(206,180,o),
(204,179,o),
(203,179,cs)
);
}
);
width = 512;
}
);
unicode = 57488;
},
{
glyphname = peertube;
lastChange = "2023-01-30 04:24:33 +0000";
layers = (
{
layerId = m01;
shapes = (
{
closed = 1;
nodes = (
(70,-64,l),
(163,6,l),
(257,76,l),
(349,134,l),
(400,165,o),
(441,192,o),
(441,192,c),
(441,192,o),
(400,219,o),
(348,251,c),
(255,309,l),
(163,378,l),
(132,402,o),
(101,425,o),
(70,448,c),
(70,448,o),
(70,332,o),
(70,192,cs)
);
},
{
attr = {
fillColor = (0,255);
};
closed = 1;
nodes = (
(256,76,l),
(163,133,l),
(112,165,o),
(71,192,o),
(71,192,c),
(71,192,o),
(112,219,o),
(163,251,c),
(256,308,l),
(256,250,l),
(256,218,o),
(256,166,o),
(256,134,cs)
);
}
);
width = 512;
}
);
unicode = 57489;
},
{
glyphname = trakt;
lastChange = "2023-01-30 04:26:13 +0000";
layers = (
{
layerId = m01;
shapes = (
{
attr = {
fillColor = (0,255);
};
closed = 1;
nodes = (
(115,-64,o),
(0,51,o),
(0,192,c),
(0,333,o),
(115,448,o),
(256,448,c),
(397,448,o),
(512,333,o),
(512,192,c),
(512,51,o),
(397,-64,o),
(256,-64,c)
);
},
{
attr = {
fillColor = (0,255);
};
closed = 1;
nodes = (
(129,422,o),
(26,319,o),
(26,192,c),
(26,65,o),
(129,-38,o),
(256,-38,c),
(383,-38,o),
(486,65,o),
(486,192,c),
(486,319,o),
(383,422,o),
(256,422,c)
);
},
{
attr = {
fillColor = (0,255);
};
closed = 1;
nodes = (
(142,12,o),
(196,-14,o),
(256,-14,c),
(287,-14,o),
(316,-7,o),
(342,5,c),
(199,147,l),
(104,53,l)
);
},
{
attr = {
fillColor = (0,255);
};
closed = 1;
nodes = (
(442,91,o),
(462,139,o),
(462,192,c),
(462,275,o),
(413,346,o),
(343,379,c),
(213,249,l),
(409,54,l),
(409,54,l)
);
},
{
attr = {
fillColor = (0,255);
};
closed = 1;
nodes = (
(90,126,l),
(76,141,l),
(190,254,l),
(322,387,l),
(302,394,o),
(279,398,o),
(256,398,c),
(142,398,o),
(50,306,o),
(50,192,c),
(50,146,o),
(65,103,o),
(91,68,c),
(199,176,l),
(207,169,l),
(361,15,l),
(365,16,o),
(367,18,o),
(370,20,c),
(199,191,l),
(95,87,l),
(81,102,l),
(199,220,l),
(207,213,l),
(387,33,l),
(390,35,o),
(393,37,o),
(395,40,c),
(200,234,l),
(199,234,l),
(198,234,l)
);
},
{
attr = {
fillColor = (0,255);
};
closed = 1;
nodes = (
(249,226,l),
(351,329,l),
(366,314,l),
(263,212,l),
(263,212,l)
);
},
{
attr = {
fillColor = (0,255);
};
closed = 1;
nodes = (
(243,235,l),
(228,249,l),
(346,367,l),
(360,352,l),
(360,352,l)
);
}
);
width = 512;
}
);
unicode = 57490;
},
{
glyphname = buttondown;
lastChange = "2023-02-02 18:09:17 +0000";
layers = (
{
layerId = m01;
shapes = (
{
attr = {
fillColor = (0,255);
};
closed = 1;
nodes = (
(167,244,o),
(179,233,o),
(192,221,c),
(218,195,o),
(227,189,o),
(246,185,c),
(255,183,o),
(259,183,o),
(268,185,c),
(288,189,o),
(299,197,o),
(329,226,c),
(339,236,o),
(347,244,o),
(348,244,c),
(349,244,o),
(357,236,o),
(366,227,c),
(382,211,l),
(357,186,l),
(325,154,o),
(309,144,o),
(278,136,c),
(269,134,o),
(243,135,o),
(230,138,c),
(219,140,o),
(202,148,o),
(190,156,c),
(180,163,o),
(133,207,o),
(133,210,c),
(133,211,o),
(140,219,o),
(149,228,c),
(158,237,o),
(165,244,o),
(166,244,c)
);
},
{
attr = {
fillColor = (0,255);
};
closed = 1;
nodes = (
(404,436,o),
(458,402,o),
(487,345,c),
(506,308,o),
(511,275,o),
(511,191,c),
(511,120,o),
(508,94,o),
(497,61,c),
(479,9,o),
(438,-32,o),
(386,-50,c),
(353,-61,o),
(327,-64,o),
(256,-64,c),
(185,-64,o),
(159,-61,o),
(126,-50,c),
(74,-32,o),
(33,9,o),
(15,61,c),
(4,94,o),
(1,120,o),
(1,191,c),
(1,246,o),
(3,275,o),
(8,296,c),
(27,383,o),
(91,436,o),
(182,444,c),
(193,445,o),
(202,446,o),
(203,446,c),
(204,448,o),
(312,446,o),
(331,444,c)
);
},
{
attr = {
fillColor = (0,255);
};
closed = 1;
nodes = (
(368,339,l),
(260,339,l),
(201,339,o),
(151,339,o),
(148,338,c),
(130,332,o),
(118,319,o),
(112,300,c),
(108,287,o),
(108,95,o),
(112,82,c),
(117,66,o),
(125,55,o),
(141,47,c),
(148,43,l),
(366,43,l),
(374,47,l),
(385,52,o),
(395,63,o),
(400,73,c),
(404,81,l),
(404,301,l),
(400,309,l),
(395,319,o),
(385,329,o),
(375,335,c)
);
}
);
width = 512;
}
);
unicode = 57491;
},
